<?xml version="1.0" encoding="UTF-8" standalone="no"?>
<!-- Created with Inkscape (http://www.inkscape.org/) -->

<svg
   version="1.1"
   id="svg2"
   width="1800"
   height="1200"
   viewBox="0 0 1800 1200"
   sodipodi:docname="24023238_musician_09.eps"
   xmlns:inkscape="http://www.inkscape.org/namespaces/inkscape"
   xmlns:sodipodi="http://sodipodi.sourceforge.net/DTD/sodipodi-0.dtd"
   xmlns="http://www.w3.org/2000/svg"
   xmlns:svg="http://www.w3.org/2000/svg">
  <defs
     id="defs6" />
  <sodipodi:namedview
     id="namedview4"
     pagecolor="#ffffff"
     bordercolor="#000000"
     borderopacity="0.25"
     inkscape:showpageshadow="2"
     inkscape:pageopacity="0.0"
     inkscape:pagecheckerboard="0"
     inkscape:deskcolor="#d1d1d1" />
  <g
     id="g8"
     inkscape:groupmode="layer"
     inkscape:label="ink_ext_XXXXXX"
     transform="matrix(1.3333333,0,0,-1.3333333,0,1200)">
    <g
       id="g10"
       transform="scale(0.1)">
      <path
         d="M 0,0 H 13500 V 9000 H 0 Z"
         style="fill:#ffffff;fill-opacity:1;fill-rule:nonzero;stroke:none"
         id="path12" />
      <path
         d="m 6883.83,500 c -3101.72,0 -5616.18,78.699 -5616.18,175.781 0,97.09 2514.46,175.778 5616.18,175.778 3101.72,0 5616.17,-78.688 5616.17,-175.778 C 12500,578.699 9985.55,500 6883.83,500"
         style="fill:#a8a19c;fill-opacity:1;fill-rule:nonzero;stroke:none"
         id="path14" />
      <path
         d="m 7372.63,5824.13 -33.61,-896.02 c 48.91,-201.12 -120.68,-585.24 12.42,-766.32 105.91,-144.08 566.25,-178.96 607.02,-12 38.53,157.71 3.48,1794.56 -585.83,1674.34"
         style="fill:#ce1332;fill-opacity:1;fill-rule:nonzero;stroke:none"
         id="path16" />
      <path
         d="m 6078.34,4686 c 0,0 -1317.52,717.39 -1673.34,965.03 -146.76,102.14 -213.87,727.66 -45.2,694.75 129.49,-25.28 1064.32,-509.84 1745.41,-572.92 152.92,-14.16 68.98,-960.78 -26.87,-1086.86"
         style="fill:#ce1332;fill-opacity:1;fill-rule:nonzero;stroke:none"
         id="path18" />
      <path
         d="m 9110.13,6028.02 c -16.75,14.84 -35.53,69.1 -55.25,77 -13.65,5.46 -67.86,-9.36 -83.92,-12.09 -41.44,66.83 -110.25,-5.5 -149.42,-60.39 -152.61,-213.83 -22.63,-414.01 -32.12,-462.03 l 136.43,-18.31 c 50.24,49.69 260.98,251.26 269.74,301.9 3.74,21.53 -19.11,84.77 -26.37,106.36 -14.78,43.96 -27.64,39.69 -59.09,67.56"
         style="fill:#f49369;fill-opacity:1;fill-rule:nonzero;stroke:none"
         id="path20" />
      <path
         d="m 8819.27,5651.03 118.58,-70.13 c -48.89,-55.89 -521.83,-1372.21 -1019.95,-1492.89 -102.11,-24.74 -281.02,132.6 -281.86,255.02 -0.82,117.57 1146.32,1261.56 1183.23,1308"
         style="fill:#fba479;fill-opacity:1;fill-rule:nonzero;stroke:none"
         id="path22" />
      <path
         d="m 8689.23,7035.72 c 30.51,6.98 59.51,-5.98 64.75,-28.95 l 330.7,-1446.38 c 5.26,-22.97 -15.22,-47.24 -45.72,-54.21 -30.5,-6.97 -59.49,6 -64.73,28.97 l -330.7,1446.36 c -5.27,22.95 15.2,47.23 45.7,54.21"
         style="fill:#b56b09;fill-opacity:1;fill-rule:nonzero;stroke:none"
         id="path24" />
      <path
         d="m 8638.32,7182.57 c 88.51,20.23 176.66,-35.11 196.89,-123.59 20.23,-88.51 -35.11,-176.67 -123.61,-196.9 -88.49,-20.23 -176.65,35.1 -196.88,123.6 -20.24,88.49 35.11,176.66 123.6,196.89"
         style="fill:#b56b09;fill-opacity:1;fill-rule:nonzero;stroke:none"
         id="path26" />
      <path
         d="m 8899.63,6006.03 c -41.17,-19.78 -134.98,-39.98 -161.67,-78.54 -73.96,-106.86 62.86,-308.48 53.18,-416.53 l 79.3,-15.17 c 47.9,69.86 109.58,92.2 112.39,198.6 1.84,69.23 -3.82,164.57 -77.5,191.49 46.74,44.17 148.71,69.9 142.23,151.81 -51.08,33.43 -102.59,-9.9 -147.93,-31.66"
         style="fill:#fba479;fill-opacity:1;fill-rule:nonzero;stroke:none"
         id="path28" />
      <path
         d="m 5545.79,8015.45 c 20.6,-8.73 77.66,-2.3 93.29,-16.68 10.8,-9.96 20.8,-65.27 25.26,-80.94 78.14,-8.58 42.53,-101.84 9.88,-160.86 -127.19,-229.84 -363.85,-198.83 -403.1,-228.05 l -75.3,115.2 c 23.19,66.76 114.27,343.78 156.18,373.5 17.84,12.65 84.73,19.29 107.37,22.04 46.02,5.61 47.7,-7.83 86.42,-24.21"
         style="fill:#f49369;fill-opacity:1;fill-rule:nonzero;stroke:none"
         id="path30" />
      <path
         d="m 5330.93,7590.53 -114.39,76.77 c -29.35,-68.18 -1013.41,-1062.16 -907.67,-1563.68 21.67,-102.8 240.74,-196.45 351.58,-144.46 106.43,49.92 644.46,1578.06 670.48,1631.37"
         style="fill:#fba479;fill-opacity:1;fill-rule:nonzero;stroke:none"
         id="path32" />
      <path
         d="m 6636.49,8069.86 c -6.84,30.53 -31.03,51.11 -54.02,45.96 L 5134.76,7790.98 c -22.99,-5.15 -36.06,-34.09 -29.22,-64.6 6.85,-30.54 31.05,-51.12 54.04,-45.95 l 1447.7,324.8 c 22.96,5.16 36.05,34.1 29.21,64.63"
         style="fill:#b56b09;fill-opacity:1;fill-rule:nonzero;stroke:none"
         id="path34" />
      <path
         d="m 6790.96,8087.19 c -19.89,88.58 -107.82,144.29 -196.37,124.41 -88.6,-19.87 -144.29,-107.8 -124.43,-196.37 19.87,-88.59 107.79,-144.29 196.39,-124.42 88.56,19.87 144.28,107.8 124.41,196.38"
         style="fill:#b56b09;fill-opacity:1;fill-rule:nonzero;stroke:none"
         id="path36" />
      <path
         d="m 5616.64,7816.02 c -0.09,-45.69 22.11,-139.04 -1.19,-179.74 -64.57,-112.78 -305.48,-76.19 -398.82,-131.48 l -47.85,65.01 c 42.4,73.32 36,138.61 130.79,187.01 61.68,31.49 150.17,67.47 206.2,12.55 19.72,61.24 -1,164.34 75.69,193.77 52.18,-31.68 35.3,-96.82 35.18,-147.12"
         style="fill:#fba479;fill-opacity:1;fill-rule:nonzero;stroke:none"
         id="path38" />
      <path
         d="m 7389.06,3210.95 c -292.76,-118.12 -511.77,-35.84 -651.62,46.44 -91.51,53.84 -149.13,107.67 -171.34,105.37 -316.08,646.14 -519.95,1426.99 -657.5,1821.65 -97.43,279.42 -120.29,400.61 105.45,548.91 39.35,25.84 131.2,55.71 252.02,82.73 2.09,0.45 4.19,0.98 6.35,1.43 5.22,1.19 10.53,2.31 15.91,3.51 2.01,0.45 4.1,0.89 6.11,1.26 258.53,54.82 633.01,95.29 915.57,60.42 6.56,-0.82 13.14,-1.64 19.63,-2.54 0.98,-0.15 2.03,-0.31 3,-0.45 6.72,-0.89 13.37,-1.87 20.01,-2.91 158.24,-24.8 281.96,-75.94 330.56,-165.32 112.7,-207.38 -79.22,-2454.12 -194.15,-2500.5"
         style="fill:#ce1332;fill-opacity:1;fill-rule:nonzero;stroke:none"
         id="path40" />
      <path
         d="m 7088.76,5755.99 c -6.53,55.79 -129.69,255.69 -137.13,311.37 -10,74.9 -23.3,149.52 -41.55,224.04 -16.64,67.95 -106.51,310.5 -102.01,316.34 l -238.96,-118.58 c 35.52,-78.59 -1.21,-481.87 -49.5,-568.25 -19.42,-34.71 -52.34,-60.33 -85.33,-87.51 -36.77,-30.28 -119.02,-66.45 -92.45,-112.07 562.4,-966.15 830.32,-677.25 746.93,34.66"
         style="fill:#fba479;fill-opacity:1;fill-rule:nonzero;stroke:none"
         id="path42" />
      <path
         d="m 6434.28,5833.4 c 73.21,-43.09 384.55,-168.72 469.95,-146.85 128.02,32.79 100.34,172.76 47.4,380.81 -10,74.9 -23.3,149.52 -41.55,224.04 -16.64,67.95 -106.51,310.5 -102.01,316.34 l -238.96,-118.58 c 35.52,-78.59 -1.21,-481.87 -49.5,-568.25 -19.42,-34.71 -52.34,-60.33 -85.33,-87.51"
         style="fill:#db744b;fill-opacity:1;fill-rule:nonzero;stroke:none"
         id="path44" />
      <path
         d="m 6719.46,7139.01 0.76,0.1 -0.31,-0.39 c -2.45,-3.06 -2.61,-2.95 -0.45,0.29"
         style="fill:#644253;fill-opacity:1;fill-rule:nonzero;stroke:none"
         id="path46" />
      <path
         d="m 6343.74,6972.29 0.04,-1.81 c 1.47,-0.8 1.68,-0.38 -0.04,1.81"
         style="fill:#fba479;fill-opacity:1;fill-rule:nonzero;stroke:none"
         id="path48" />
      <path
         d="m 6202.59,6935.99 c -48.01,9.59 -57.92,-105.25 -57.28,-153.12 1.58,-116.61 105.87,-288.91 187.69,-113.2 0,0 120.08,216.34 -130.41,266.32"
         style="fill:#fba479;fill-opacity:1;fill-rule:nonzero;stroke:none"
         id="path50" />
      <path
         d="m 6341.03,6788.55 c -13.12,67.07 -180.06,163.26 -156.51,24.17 22.24,51.24 70.6,12.31 88.91,-17.67 -54.86,-11.34 -15.74,-142.08 37.12,-101.6 -43.14,16.71 -11.61,97.08 30.48,95.1"
         style="fill:#db744b;fill-opacity:1;fill-rule:nonzero;stroke:none"
         id="path52" />
      <path
         d="m 6285.85,6701.37 c -0.96,-0.84 -1.95,-1.62 -2.9,-2.38 l 2.22,-0.81 c 4.4,0.42 2.96,1.64 0.68,3.19"
         style="fill:#db744b;fill-opacity:1;fill-rule:nonzero;stroke:none"
         id="path54" />
      <path
         d="m 6192.44,6365.59 c 3.39,-26.75 7.96,-51.83 13.24,-78.58 3.03,-15.82 6.34,-32.21 9.79,-50.04 20.93,-108.59 87.36,-285.86 154.7,-314.6 168.91,-72.13 430.42,44.09 525.4,109.18 76,52.1 264.4,356.11 349.59,528.01 303.84,613.2 94.18,955.03 -433.71,1005.21 -163.95,15.57 -449.76,-224.08 -488.63,-557.49 -10.5,-90.5 -62.51,-107.18 -99.4,-227.35 -2.44,-7.84 -4.73,-16.12 -6.97,-24.84 -11.52,-44.5 -20.92,-101.52 -26.24,-177.64 -6.78,-96.89 -4.62,-157.96 2.23,-211.86"
         style="fill:#fba479;fill-opacity:1;fill-rule:nonzero;stroke:none"
         id="path56" />
      <path
         d="m 6470.46,6610.58 c 27.57,53.27 31.39,120.51 47.59,167.51 0,0 6.56,-271.19 -113.92,-277.58 7.15,-40.05 48.45,-78.52 87.78,-64.57 -17.57,-31.13 -70.69,-19.25 -93.61,-0.22 -30.09,25 -37.88,54.67 -51.66,87.63 58.35,9.34 95.38,32.29 123.82,87.23"
         style="fill:#db744b;fill-opacity:1;fill-rule:nonzero;stroke:none"
         id="path58" />
      <path
         d="m 6828.96,6833.7 c 65.92,51.8 173.59,29.65 248.4,-4.42 0,0 -86.22,140.4 -241.54,138.5 5.74,-26.41 17.11,-56.79 25.07,-70.78 -18.27,14.23 -39.63,41.47 -54.02,68.83 -11.15,-1.34 -22.58,-3.44 -34.35,-6.41 2.54,-53.19 23.77,-93.37 56.44,-125.72"
         style="fill:#472f1f;fill-opacity:1;fill-rule:nonzero;stroke:none"
         id="path60" />
      <path
         d="m 6441.82,6961.16 c -35.03,62.3 -127.07,79.97 -197.12,77.48 0,0 113.68,82.55 235.45,30.4 -13.16,-18.95 -32.01,-39.2 -42.83,-47.62 19.04,5.29 44.72,19.79 64.97,36.66 8.35,-4.72 16.7,-10.09 25,-16.26 -19.33,-41.1 -49.17,-65.81 -85.47,-80.66"
         style="fill:#472f1f;fill-opacity:1;fill-rule:nonzero;stroke:none"
         id="path62" />
      <path
         d="m 7187.3,6946.65 c 0.47,1.57 1.03,3.14 1.71,4.7 -0.54,-1.58 -1.15,-3.12 -1.71,-4.7"
         style="fill:#472f1f;fill-opacity:1;fill-rule:nonzero;stroke:none"
         id="path64" />
      <path
         d="m 6337.95,6336.89 c 91.87,-117.59 162.91,-153.44 228.7,-181.05 18.31,30.72 184.21,117.07 202.76,145.05 -126.7,-22.64 -311.55,8.7 -431.46,36"
         style="fill:#ffffff;fill-opacity:1;fill-rule:nonzero;stroke:none"
         id="path66" />
      <path
         d="m 7360.42,6616.53 c 63.16,-12.31 17.56,-135.49 -7.27,-184.65 -60.43,-119.73 -273.83,-249.52 -285.07,-30.17 0,0 -37.4,278.92 292.34,214.82"
         style="fill:#fba479;fill-opacity:1;fill-rule:nonzero;stroke:none"
         id="path68" />
      <path
         d="m 7118.02,6528.16 c 49.61,63.27 300.93,85.48 202.44,-47.33 -1.3,63.2 -79.66,45.33 -116.96,22.84 61,-37.08 -52.22,-154.03 -96.2,-87.78 60.85,-2.69 62.89,94.89 10.72,112.27"
         style="fill:#db744b;fill-opacity:1;fill-rule:nonzero;stroke:none"
         id="path70" />
      <path
         d="m 7141.34,6412.63 c 0.75,-1.33 1.54,-2.56 2.33,-3.75 -1.05,0.04 -2.06,0.04 -3.14,0.14 -5.1,2.48 -2.74,3.08 0.81,3.61"
         style="fill:#db744b;fill-opacity:1;fill-rule:nonzero;stroke:none"
         id="path72" />
      <path
         d="m 6702.35,6685.73 c 0,0 0.79,1.14 2.28,3.29 1.59,2.09 3.5,5.35 7.06,8.9 3.31,3.79 7.77,7.94 13.37,12.15 5.66,4.12 12.44,8.51 20.54,11.81 15.97,7.29 36.64,11.15 58.52,10.51 10.9,-0.52 22.2,-1.71 33.31,-4.42 11.13,-2.58 22.24,-6.06 32.86,-10.6 21.37,-8.92 41.05,-21.54 57.22,-35.85 8.15,-7.08 15.22,-14.8 21.49,-22.43 3.18,-3.77 5.97,-7.7 8.71,-11.42 2.46,-3.96 4.94,-7.68 7.05,-11.41 4.31,-7.42 7.51,-14.61 10.02,-21.05 1.12,-3.29 2.27,-6.3 3.15,-9.15 0.73,-2.88 1.4,-5.54 2,-7.94 1.35,-4.7 1.53,-8.65 1.99,-11.2 0.35,-2.58 0.51,-3.96 0.51,-3.96 0,0 -0.63,1.24 -1.86,3.55 -1.21,2.3 -2.75,5.75 -5.22,9.85 -2.24,4.2 -5.4,9.03 -8.95,14.5 -3.75,5.36 -8.21,11.18 -13.25,17.3 -5.19,6.01 -11.11,12.2 -17.63,18.4 -6.61,6.15 -13.96,12.15 -21.81,17.99 -15.72,11.58 -33.82,22.15 -52.95,30.09 -9.48,4.2 -19.37,7.34 -29.13,10.15 -9.77,2.81 -19.6,4.52 -29.15,5.84 -9.57,1.15 -18.86,1.54 -27.69,1.27 -8.75,-0.73 -17.19,-1.41 -24.68,-3.36 -15.13,-3.46 -27.3,-9.37 -35.21,-14.29 -4.07,-2.33 -7.18,-4.72 -9.27,-6.22 -2.13,-1.5 -3.28,-2.3 -3.28,-2.3"
         style="fill:#db744b;fill-opacity:1;fill-rule:nonzero;stroke:none"
         id="path74" />
      <path
         d="m 6705.92,6692.06 c 0,0 3.5,2.65 9.87,6.46 3.17,1.82 7.72,3.43 13.05,5.29 5.4,1.76 11.19,2.6 17.93,3.78 6.47,0.31 13.92,1.22 21.36,0.48 3.76,-0.18 7.64,-0.58 11.61,-0.95 3.88,-0.55 7.8,-1.35 11.84,-2.07 4.1,-0.62 8.02,-1.79 12.05,-2.94 3.98,-1.15 8.16,-2.15 12.07,-3.71 7.98,-2.84 15.96,-6.1 23.61,-9.89 7.72,-3.71 15.05,-8.05 22.17,-12.46 3.57,-2.18 6.92,-4.64 10.23,-7.04 3.34,-2.4 6.67,-4.66 9.67,-7.32 6.14,-5.04 11.93,-10.08 17.02,-15.34 5.17,-5.11 9.73,-10.31 13.71,-15.31 4.05,-4.89 7.38,-9.76 10.19,-14.15 2.9,-4.29 5.08,-8.32 6.77,-11.71 3.41,-6.69 4.94,-10.77 4.94,-10.77 0,0 -4.18,1.65 -10.7,4.96 -3.18,1.73 -7.25,3.56 -11.71,5.8 -4.39,2.22 -9.33,4.76 -14.72,7.53 -10.42,5.43 -22.59,11.77 -35.63,18.58 -6.36,3.45 -13.13,6.59 -19.72,10.22 -6.82,3.17 -13.41,7.03 -20.36,10.1 -6.69,3.6 -13.63,6.52 -20.3,9.83 -6.75,2.93 -13.36,6.19 -19.84,8.81 -3.23,1.36 -6.45,2.6 -9.56,4.08 -3.13,1.22 -6.25,2.22 -9.24,3.49 -3.02,1.34 -5.99,2.31 -8.87,3.21 -2.9,1 -5.72,1.98 -8.42,2.91 -5.35,1.33 -10.66,3.15 -15.08,4.12 -4.42,0.76 -8.5,2.23 -12.22,2.53 -7.4,0.65 -11.72,1.48 -11.72,1.48"
         style="fill:#db744b;fill-opacity:1;fill-rule:nonzero;stroke:none"
         id="path76" />
      <path
         d="m 6484.65,6754.13 c 0,0 0.12,1.06 0.35,3.04 0.17,2 0.71,4.83 0.47,8.66 0.01,3.86 -0.44,8.47 -1.51,13.72 -1.18,5.21 -2.84,11.15 -5.8,17.13 -5.46,12.24 -15.34,24.89 -28.19,35.57 -6.5,5.22 -13.57,10.25 -21.29,14.3 -7.69,4.14 -15.8,7.77 -24.19,10.54 -16.73,5.67 -34.37,8.4 -50.85,8.38 -8.24,0.06 -16.21,-0.78 -23.64,-1.98 -3.72,-0.56 -7.3,-1.39 -10.75,-2.14 -3.41,-1.02 -6.69,-1.91 -9.8,-2.96 -6.22,-2.08 -11.69,-4.59 -16.36,-7.02 -2.31,-1.28 -4.49,-2.43 -6.42,-3.63 -1.88,-1.27 -3.6,-2.46 -5.17,-3.52 -3.15,-2.02 -5.23,-4.18 -6.79,-5.41 -1.51,-1.32 -2.29,-2.01 -2.29,-2.01 0,0 0.99,0.37 2.85,1.09 1.86,0.69 4.49,1.9 7.97,3 3.4,1.27 7.66,2.44 12.45,3.78 4.87,1.17 10.35,2.24 16.31,3.2 6.01,0.82 12.53,1.38 19.4,1.63 6.88,0.19 14.13,-0.09 21.56,-0.72 14.85,-1.3 30.57,-4.41 45.52,-9.53 7.55,-2.38 14.79,-5.58 21.79,-8.89 7.02,-3.35 13.5,-7.32 19.63,-11.39 6.08,-4.18 11.58,-8.64 16.52,-13.27 4.62,-4.83 9.1,-9.48 12.41,-14.39 6.91,-9.63 10.9,-19.14 12.94,-25.96 1.16,-3.39 1.72,-6.33 2.17,-8.25 0.46,-1.93 0.71,-2.97 0.71,-2.97"
         style="fill:#db744b;fill-opacity:1;fill-rule:nonzero;stroke:none"
         id="path78" />
      <path
         d="m 6485.82,6759.55 c 0,0 -0.68,3.3 -2.41,8.68 -0.89,2.66 -2.67,5.88 -4.8,9.64 -2.19,3.73 -5.08,7.13 -8.36,11.21 -3.54,3.44 -7.33,7.74 -11.97,11.08 -2.25,1.79 -4.67,3.52 -7.12,5.31 -2.49,1.66 -5.14,3.17 -7.83,4.78 -2.67,1.73 -5.5,3.05 -8.37,4.42 -2.87,1.35 -5.76,2.89 -8.79,3.99 -6.01,2.38 -12.22,4.56 -18.51,6.23 -6.3,1.8 -12.67,3.02 -18.99,4.09 -3.13,0.55 -6.3,0.83 -9.4,1.14 -3.13,0.3 -6.17,0.69 -9.24,0.69 -6.07,0.23 -11.92,0.25 -17.5,-0.19 -5.54,-0.3 -10.77,-0.99 -15.58,-1.83 -4.79,-0.75 -9.16,-1.87 -12.98,-2.94 -3.83,-1 -7.09,-2.21 -9.78,-3.29 -5.34,-2.1 -8.27,-3.66 -8.27,-3.66 0,0 3.21,-1.18 8.62,-2.57 2.72,-0.62 5.95,-1.63 9.64,-2.61 3.63,-0.93 7.74,-1.97 12.22,-3.12 8.72,-2.16 18.88,-4.67 29.77,-7.37 5.39,-1.24 10.86,-2.86 16.47,-4.09 5.5,-1.65 11.23,-2.76 16.75,-4.51 5.66,-1.33 11.1,-3.17 16.6,-4.63 5.34,-1.75 10.76,-3.2 15.81,-4.98 2.52,-0.85 5,-1.77 7.51,-2.51 2.42,-0.87 4.71,-1.87 7.08,-2.66 2.4,-0.76 4.58,-1.72 6.69,-2.64 2.17,-0.89 4.27,-1.77 6.29,-2.58 3.73,-1.95 7.68,-3.59 10.7,-5.28 2.92,-1.79 5.99,-3.01 8.28,-4.71 4.57,-3.37 7.47,-5.09 7.47,-5.09"
         style="fill:#db744b;fill-opacity:1;fill-rule:nonzero;stroke:none"
         id="path80" />
      <path
         d="m 7300.39,7671.28 -1.57,-0.42 1.57,-0.82 c 8.31,0.41 8.31,0.83 0,1.24"
         style="fill:#472f1f;fill-opacity:1;fill-rule:nonzero;stroke:none"
         id="path82" />
      <path
         d="m 7432.98,7453.7 c 31.21,-74.82 49.8,-161.66 54.21,-241.41 -3.88,6.12 -13.81,19.41 -20.46,28.82 -29.94,-167.79 -27.26,-296.07 -123.14,-451.92 13.74,87.74 -24.11,172.8 -55.1,250.01 -7.46,-23.6 -28,-46.3 -33.98,-70.2 -31.14,80.95 -71.54,161.82 -112.3,238.21 -9.86,-61.23 -43.25,-79.97 -84.98,-77.58 -62.21,3.58 -143.08,54.06 -192.44,80.71 1.95,-36.8 -11.65,-64.51 -15.38,-98.34 -117.68,61.98 -502.1,200.28 -502.1,200.28 -81.83,89.23 -86.38,298.61 -44.5,421.37 12.62,-52.12 52.87,-99.24 101.33,-126.27 5.23,57.57 44.36,108.72 88.78,148.45 34.73,-43.16 79.77,-70.86 132.18,-84.08 46.67,80.05 182.95,146.36 269.95,153.38 -20.1,-24.42 -26.07,-61.99 -44.81,-87.22 0.3,-0.3 14.41,-19.27 15.15,-20.76 132.4,56.6 311.39,18.59 433.4,-46.3 -27.4,-6.35 -55.41,-22.62 -77.05,-31.29 37.7,-7.62 77.81,-22.1 115.44,-42.64 68.99,-37.48 129.93,-95.28 153.67,-168.16 -19.27,11.2 -40.25,14.94 -57.87,24.94"
         style="fill:#472f1f;fill-opacity:1;fill-rule:nonzero;stroke:none"
         id="path84" />
      <path
         d="m 7432.98,7453.7 c 31.21,-74.82 49.8,-161.66 54.21,-241.41 -3.88,6.12 -13.81,19.41 -20.46,28.82 -29.94,-167.79 -27.26,-296.07 -123.14,-451.92 13.74,87.74 -24.11,172.8 -55.1,250.01 -7.46,-23.6 -28,-46.3 -33.98,-70.2 -31.14,80.95 -71.54,161.82 -112.3,238.21 -9.86,-61.23 -43.25,-79.97 -84.98,-77.58 l -4.34,14.63 c -32.55,67.35 -112.44,150.84 -178.02,221.78 70.05,12.25 158.32,-4.11 221.41,-18.22 -22.62,20.16 -29.12,52.49 -41.89,74.45 63.32,13.22 123.43,-16.88 175.71,-41.45 -6.35,45.63 -15.75,93.72 -18.67,142.78 43.53,-5.68 83.78,-33.31 122.32,-50.41 10.37,42.12 8.28,82.96 3.43,123.73 68.99,-37.48 129.93,-95.28 153.67,-168.16 -19.27,11.2 -40.25,14.94 -57.87,24.94"
         style="fill:#351e12;fill-opacity:1;fill-rule:nonzero;stroke:none"
         id="path86" />
      <path
         d="m 5697.71,1176.33 c 36.01,-103.18 55.86,-279.131 116.4,-388.517 -100.44,-61.153 -426.2,-40.192 -532.33,12.066 272.97,38.98 415.93,376.451 415.93,376.451"
         style="fill:#1a202e;fill-opacity:1;fill-rule:nonzero;stroke:none"
         id="path88" />
      <path
         d="m 5666.09,1459.86 c 1.81,-171.45 78.8,-377.69 5.58,-521.34 -105.69,125.87 -115.16,346.91 -164.75,511.27 l 159.17,10.07"
         style="fill:#fba479;fill-opacity:1;fill-rule:nonzero;stroke:none"
         id="path90" />
      <path
         d="m 8800.6,1264.37 c -14.03,-108.36 2.72,-284.64 -34.03,-404.151 110.87,-39.18 425.36,48.312 518.47,121.269 C 9009.9,963.512 8800.6,1264.37 8800.6,1264.37"
         style="fill:#1a202e;fill-opacity:1;fill-rule:nonzero;stroke:none"
         id="path92" />
      <path
         d="m 8757.77,1507.12 c 29.17,-168.98 -9.31,-385.71 88.66,-513.8 81.22,142.9 50.61,362.02 69.72,532.63 l -158.38,-18.83"
         style="fill:#fba479;fill-opacity:1;fill-rule:nonzero;stroke:none"
         id="path94" />
      <path
         d="m 5738.62,1228.53 c -75.93,914.64 207.25,1323.46 -299.44,1846.21 426.24,-173.78 1756.17,-749.62 1795.7,-233.24 36.21,473.19 -1267.7,920.35 -2161.78,507.4 -236.85,-109.41 315.18,-1624.86 462.35,-2120.37 h 203.17"
         style="fill:#0c1923;fill-opacity:1;fill-rule:nonzero;stroke:none"
         id="path96" />
      <path
         d="M 8804.77,3140.16 C 8366.2,2559.08 8697.5,2188.19 8734.62,1271.14 l 201.63,24.98 c 85.12,509.85 446.6,2081.68 198.12,2161.14 -938.09,299.87 -2263.84,-151.66 -2169.71,-616.8 102.71,-507.6 1438.47,74.83 1840.11,299.7"
         style="fill:#0c1923;fill-opacity:1;fill-rule:nonzero;stroke:none"
         id="path98" />
      <path
         d="m 7283.18,5214.79 c -3.28,-440.26 -59.88,-726.86 -168.53,-852.83 -5.97,-6.94 -12.1,-13.38 -18.37,-19.34 l -2.46,-2.25 c -37.12,-34.2 -79.6,-51.36 -126.88,-51.36 -14.33,0 -29.12,1.56 -44.27,4.69 -13.22,2.77 -26.28,6.65 -39.06,11.58 -9.41,3.51 -18.59,7.62 -27.69,12.24 -201.33,101.72 -347.54,449.16 -420.49,661.02 -97.97,284.34 -161,601.7 -169.36,837.51 7.33,1.66 14.7,3.3 22.26,4.94 16.35,-480.97 266.72,-1330.15 581.25,-1485.02 9.63,-4.86 19.34,-8.88 29.11,-12.32 9.49,-3.36 18.98,-5.96 28.53,-8 56.53,-11.79 104.62,0.31 146.74,37.05 2.31,1.94 4.63,4.03 6.86,6.2 5.15,4.93 10.24,10.15 15.08,15.75 214.39,243.28 172.42,1103.44 133.74,1505.48 7.77,-1.05 15.39,-2.17 23.01,-3.36 16.27,-170.03 32.4,-415.48 30.53,-661.98"
         style="fill:#efdfe4;fill-opacity:1;fill-rule:nonzero;stroke:none"
         id="path100" />
      <path
         d="m 7236.51,5626.02 c -3.28,-440.28 -59.88,-726.87 -168.53,-852.84 -5.97,-6.94 -12.1,-13.37 -18.37,-19.33 l -2.46,-2.25 c -37.12,-34.2 -79.6,-51.39 -126.88,-51.39 -14.33,0 -29.12,1.59 -44.27,4.72 -13.22,2.76 -26.28,6.65 -39.06,11.58 -9.41,3.5 -18.59,7.61 -27.69,12.24 -201.33,101.71 -347.54,449.16 -420.49,661.01 -47.94,139.11 -87.52,286.14 -116.34,427.72 5.22,1.19 10.53,2.31 15.91,3.51 2.01,0.45 4.1,0.89 6.11,1.27 91.78,-449.76 291.99,-958.65 528.47,-1075.06 9.63,-4.86 19.34,-8.89 29.11,-12.33 9.49,-3.36 18.98,-5.96 28.53,-7.99 56.53,-11.8 104.62,0.31 146.74,37.05 2.31,1.93 4.63,4.02 6.86,6.2 5.15,4.92 10.24,10.14 15.08,15.74 155.99,177.06 176.24,680.72 160.78,1096.8 6.56,-0.82 13.14,-1.64 19.63,-2.54 0.98,-0.15 2.03,-0.31 3,-0.45 2.99,-82.37 4.55,-167.94 3.87,-253.66"
         style="fill:#efdfe4;fill-opacity:1;fill-rule:nonzero;stroke:none"
         id="path102" />
      <path
         d="m 7005.69,4072.75 c -81.82,0 -148.36,66.54 -148.36,148.38 0,31.21 9.71,60.25 26.28,84.15 4.48,6.5 9.56,12.7 15.08,18.37 26.9,28.23 64.97,45.77 107,45.77 24.65,0 47.87,-6.04 68.27,-16.72 6.94,-3.59 13.59,-7.69 19.86,-12.33 36.44,-27.02 60.18,-70.41 60.18,-119.24 0,-81.84 -66.53,-148.38 -148.31,-148.38 z m 108.96,289.21 c -5.9,4.62 -12.17,8.88 -18.75,12.69 -26.43,15.68 -57.27,24.65 -90.21,24.65 -54.5,0 -103.41,-24.57 -136.11,-63.33 -4.93,-5.81 -9.49,-11.95 -13.66,-18.45 -18,-27.76 -28.46,-60.84 -28.46,-96.39 0,-98.27 79.97,-178.25 178.23,-178.25 98.27,0 178.19,79.98 178.19,178.25 0,57.19 -27.11,108.19 -69.23,140.83"
         style="fill:#efdfe4;fill-opacity:1;fill-rule:nonzero;stroke:none"
         id="path104" />
      <path
         d="m 7918.13,5132.6 c 80.1,-252.6 759.63,-262.47 1517.77,-22.04 758.1,240.42 1307.8,640.08 1227.7,892.68 -80.1,252.6 -759.63,262.46 -1517.77,22.03 C 8387.69,5784.85 7838.04,5385.2 7918.13,5132.6"
         style="fill:#e89215;fill-opacity:1;fill-rule:nonzero;stroke:none"
         id="path106" />
      <path
         d="m 7918.13,5095.71 c 80.1,-252.59 759.63,-262.45 1517.77,-22.03 758.1,240.42 1307.8,640.09 1227.7,892.69 -80.1,252.59 -759.63,262.46 -1517.77,22.03 -758.14,-240.42 -1307.79,-640.09 -1227.7,-892.69"
         style="fill:#c47e0e;fill-opacity:1;fill-rule:nonzero;stroke:none"
         id="path108" />
      <path
         d="m 8421.42,5051.85 c 55.68,-175.6 528.04,-182.46 1055.05,-15.33 527.03,167.13 909.13,444.95 853.43,620.54 -55.7,175.59 -528.06,182.44 -1055.08,15.31 -527.01,-167.12 -909.09,-444.94 -853.4,-620.52"
         style="fill:#b56b09;fill-opacity:1;fill-rule:nonzero;stroke:none"
         id="path110" />
      <path
         d="m 9299.43,5112.35 c 7.96,-25.11 75.52,-26.09 150.89,-2.18 75.37,23.88 130.02,63.63 122.06,88.75 -7.97,25.11 -75.51,26.09 -150.9,2.18 -75.37,-23.9 -130.02,-63.63 -122.05,-88.75"
         style="fill:#0b1d2b;fill-opacity:1;fill-rule:nonzero;stroke:none"
         id="path112" />
      <path
         d="m 8606.44,1076.46 c 709.94,-356.288 2378.56,6.06 2378.56,6.06 l -1579.21,4071.27 70.68,30.64 2091.03,-4558.289 c -2309.14,44.761 -2837.82,49.129 -3446.1,0 l 485.04,450.319"
         style="fill:#0b1d2b;fill-opacity:1;fill-rule:nonzero;stroke:none"
         id="path114" />
      <path
         d="m 8453.4,901.891 c 507.71,-16.739 1621.3,267.379 1621.3,267.379 l -218.96,3677.74 77.23,15.02 329.93,-4141.12 c 0,0 -1333.47,-54.738 -1913.22,14.621 l 103.72,166.36"
         style="fill:#0b1d2b;fill-opacity:1;fill-rule:nonzero;stroke:none"
         id="path116" />
      <path
         d="m 10089.8,4615.26 c -10.8,17.79 -44,187.86 -114.21,186.77 l -142.99,-2.23 c -70.22,-1.09 -98.16,-172.12 -108.39,-190.22 -338.22,-598.38 -1214.72,-230.11 -1214.18,-263.79 0.56,-36.64 631.13,-246.84 1404.78,-234.83 773.69,12.02 1396.79,277.84 1396.29,314.46 -0.6,33.7 -864.6,-397.75 -1221.3,189.84"
         style="fill:#c47e0e;fill-opacity:1;fill-rule:nonzero;stroke:none"
         id="path118" />
      <path
         d="m 5994.75,5132.6 c -80.1,-252.6 -759.64,-262.47 -1517.79,-22.04 -758.13,240.42 -1307.79,640.08 -1227.69,892.68 80.11,252.6 759.64,262.46 1517.78,22.03 758.15,-240.42 1307.79,-640.07 1227.7,-892.67"
         style="fill:#e89215;fill-opacity:1;fill-rule:nonzero;stroke:none"
         id="path120" />
      <path
         d="m 5994.75,5095.71 c -80.1,-252.59 -759.64,-262.45 -1517.79,-22.03 -758.13,240.42 -1307.79,640.09 -1227.69,892.69 80.11,252.59 759.64,262.46 1517.78,22.03 758.15,-240.42 1307.79,-640.09 1227.7,-892.69"
         style="fill:#c47e0e;fill-opacity:1;fill-rule:nonzero;stroke:none"
         id="path122" />
      <path
         d="m 5491.46,5051.85 c -55.68,-175.6 -528.04,-182.46 -1055.05,-15.33 -527.02,167.13 -909.11,444.95 -853.42,620.54 55.67,175.59 528.05,182.44 1055.06,15.31 527.01,-167.12 909.1,-444.94 853.41,-620.52"
         style="fill:#b56b09;fill-opacity:1;fill-rule:nonzero;stroke:none"
         id="path124" />
      <path
         d="m 4613.45,5112.35 c -7.97,-25.11 -75.52,-26.09 -150.91,-2.18 -75.37,23.88 -130.01,63.63 -122.06,88.75 7.97,25.11 75.54,26.09 150.91,2.18 75.37,-23.9 130.02,-63.63 122.06,-88.75"
         style="fill:#0b1d2b;fill-opacity:1;fill-rule:nonzero;stroke:none"
         id="path126" />
      <path
         d="m 5306.45,1076.46 c -709.95,-356.288 -2378.62,6.06 -2378.62,6.06 l 1579.24,4071.27 -70.66,30.64 L 2345.38,626.141 c 2309.13,44.761 2837.82,49.129 3446.1,0 l -485.03,450.319"
         style="fill:#0b1d2b;fill-opacity:1;fill-rule:nonzero;stroke:none"
         id="path128" />
      <path
         d="M 5459.48,901.891 C 4951.76,885.152 3838.2,1169.27 3838.2,1169.27 l 218.94,3677.74 -77.23,15.02 -329.89,-4141.12 c 0,0 1333.42,-54.738 1913.18,14.621 l -103.72,166.36"
         style="fill:#0b1d2b;fill-opacity:1;fill-rule:nonzero;stroke:none"
         id="path130" />
      <path
         d="m 3823.04,4615.26 c 10.79,17.79 44.03,187.86 114.24,186.77 l 143,-2.23 c 70.21,-1.09 98.16,-172.12 108.39,-190.22 338.21,-598.38 1214.72,-230.11 1214.17,-263.79 -0.55,-36.64 -631.14,-246.84 -1404.77,-234.83 -773.66,12.02 -1396.83,277.84 -1396.26,314.46 0.52,33.7 864.6,-397.75 1221.23,189.84"
         style="fill:#c47e0e;fill-opacity:1;fill-rule:nonzero;stroke:none"
         id="path132" />
      <path
         d="M 6015.41,1989.85 5594.62,626.141 h 153.82 l 590.25,937.819 -323.28,425.89"
         style="fill:#0b1d2b;fill-opacity:1;fill-rule:nonzero;stroke:none"
         id="path134" />
      <path
         d="M 7596.37,1989.85 8017.15,626.141 h -153.83 l -590.23,937.819 323.28,425.89"
         style="fill:#0b1d2b;fill-opacity:1;fill-rule:nonzero;stroke:none"
         id="path136" />
      <path
         d="M 8173.51,1989.85 8594.3,626.141 h -153.82 l -590.26,937.819 323.29,425.89"
         style="fill:#2d6c9b;fill-opacity:1;fill-rule:nonzero;stroke:none"
         id="path138" />
      <path
         d="m 8331.59,2804.4 c 0,-518.06 -225.89,-983.42 -584.53,-1302.86 -91.62,-81.64 -191.98,-153.78 -299.43,-214.85 -123.74,-70.27 -256.58,-125.9 -396.9,-164.43 h -0.38 c -97.58,-26.8 -198.69,-45.33 -302.33,-54.73 -25.18,-2.39 -50.49,-4.19 -75.94,-5.38 -10.84,-0.52 -21.66,-0.89 -32.5,-1.18 -17.39,-0.61 -34.8,-0.83 -52.26,-0.83 -179.89,0 -353.43,27.25 -516.74,77.8 -98.12,30.39 -192.58,69.15 -282.41,115.59 l -2.24,1.21 c -31.36,16.2 -62.12,33.37 -92.37,51.52 -67.95,40.55 -132.99,85.64 -194.53,134.93 -118.49,94.62 -224.31,204.45 -314.59,326.47 -184.73,249.48 -304.43,549.89 -334.16,876.43 -2.24,23.67 -3.87,47.49 -5.14,71.46 -1.44,29.43 -2.18,59.06 -2.18,88.85 0,459.55 177.8,880.26 468.21,1197.09 20.61,22.47 41.74,44.43 63.38,65.79 256.59,252.98 589.02,429.81 959.11,492.17 65.56,11.13 132.24,18.6 199.96,22.17 h 0.08 c 17.85,1.05 35.7,1.72 53.62,2.17 295.02,7.16 548.76,-36 764.12,-118.94 108.51,-41.84 207.21,-93.73 296.61,-154.45 2.39,-1.55 4.68,-3.13 7.01,-4.76 115.98,-79.75 215.88,-174.29 300.55,-280.85 l 0.07,-0.08 c 258.16,-324.23 375.91,-758.74 375.91,-1220.31"
         style="fill:#0b1d2b;fill-opacity:1;fill-rule:nonzero;stroke:none"
         id="path140" />
      <path
         d="m 8729.98,2722.58 c 0,-435.8 -163.47,-833.35 -432.43,-1134.8 -88.12,-98.87 -187.66,-187.36 -296.46,-263.45 -53.61,-37.57 -109.55,-72.06 -167.49,-103.34 -86.09,-46.53 -176.74,-85.81 -270.98,-117.09 -169.07,-56.23 -349.99,-86.63 -537.95,-86.63 -100.35,0 -198.62,8.66 -294.21,25.32 1.72,2.24 3.37,4.32 4.93,6.48 4.41,6.37 8.73,12.26 12.47,18.24 l 0.16,0.22 c -25.18,-2.39 -50.49,-4.19 -75.94,-5.38 -2.63,-2.24 -5.24,-4.48 -8.07,-6.64 h -0.09 c -8.21,1.72 -16.28,3.58 -24.34,5.46 -176.08,40.61 -341.7,108.48 -492.24,199.06 -75.56,45.32 -147.24,96.47 -214.61,152.71 -13.35,11.13 -26.5,22.41 -39.5,33.97 -11.94,10.61 -23.81,21.37 -35.47,32.33 -308.54,289.66 -509.19,692.68 -535.39,1142.66 v 0.07 c -2.03,33.37 -3,66.97 -3,100.81 0,18.36 0.3,36.59 0.9,54.8 11.65,370 141.14,710.14 352.15,984.34 29.2,38.01 60.05,74.75 92.29,110.07 219.78,240.82 507.63,418.46 833.2,502.32 48.03,12.39 96.79,22.7 146.29,30.9 91.25,15.1 184.97,22.93 280.47,22.93 167.34,0 329.09,-24.11 481.87,-69.07 48.09,-14.1 95.29,-30.31 141.51,-48.47 1.64,-0.6 3.28,-1.26 4.92,-1.93 630.92,-250.16 1077.01,-865.9 1077.01,-1585.89"
         style="fill:#2d6c9b;fill-opacity:1;fill-rule:nonzero;stroke:none"
         id="path142" />
      <path
         d="m 8625.27,2722.61 c 0,-883.99 -716.6,-1600.58 -1600.57,-1600.58 -883.97,0 -1600.58,716.59 -1600.58,1600.58 0,883.96 716.61,1600.57 1600.58,1600.57 883.97,0 1600.57,-716.61 1600.57,-1600.57"
         style="fill:#122a3f;fill-opacity:1;fill-rule:nonzero;stroke:none"
         id="path144" />
      <path
         d="M 5252.98,1989.85 4832.19,626.141 h 153.82 l 590.25,937.819 -323.28,425.89"
         style="fill:#2d6c9b;fill-opacity:1;fill-rule:nonzero;stroke:none"
         id="path146" />
      <path
         d="m 5824.38,3788.14 -133.67,-66.45 c 0,0 -0.89,2.1 -2.6,6.04 -1.71,3.96 -3.88,10.01 -7.48,17.26 -1.69,3.66 -3.49,7.76 -5.74,12.09 -0.82,1.5 -1.56,3.07 -2.47,4.64 -1.55,2.98 -3.2,6.2 -4.92,9.48 -2.92,4.93 -5.97,10.23 -9.19,15.75 -3.28,5.53 -7.09,11.13 -10.9,17.11 -8.06,11.63 -17.02,24.27 -27.7,36.74 -10.37,12.83 -22.48,25.3 -35.4,38.01 -13.15,12.47 -27.55,24.56 -42.85,36.21 -15.46,11.35 -31.9,22.11 -48.92,31.88 -17.18,9.5 -35.02,18 -53.01,25.39 -18.14,7.02 -36.45,13.07 -54.59,17.71 -18.07,4.17 -35.93,7.9 -53.02,9.62 -7.1,1.05 -13.97,1.35 -20.75,1.87 20.61,22.47 41.74,44.43 63.38,65.8 7.56,-0.46 15.17,-0.98 22.85,-1.59 22.04,-2.08 44.59,-5.74 67.36,-10.82 22.63,-5.38 45.4,-12.17 67.73,-20.46 22.26,-8.44 44.06,-18.29 64.97,-29.2 20.75,-11.13 40.69,-23.22 59.29,-36.14 18.36,-13.06 35.92,-26.36 51.45,-40.32 15.82,-13.74 29.79,-27.86 42.48,-41.22 4.79,-5.45 9.56,-10.67 14.04,-15.75 1.19,-1.36 2.31,-2.7 3.43,-4.04 5.39,-6.56 10.46,-12.69 15.09,-18.67 4.55,-6.05 8.73,-11.73 12.71,-16.94 3.8,-5.31 7.08,-10.39 10.14,-14.86 6.27,-8.96 10.53,-16.43 13.67,-21.43 3.06,-5.02 4.62,-7.71 4.62,-7.71"
         style="fill:#2d6c9b;fill-opacity:1;fill-rule:nonzero;stroke:none"
         id="path148" />
      <path
         d="m 5423.17,2732.58 -81.55,-125.08 c 0,0 -1.86,1.42 -5.29,3.96 -3.28,2.39 -7.78,6.12 -13.96,10.24 v 0.07 l -1.2,0.74 c -3.37,2.25 -7.03,4.85 -11.12,7.54 -4.19,2.62 -8.74,5.38 -13.53,8.37 -5,2.83 -10.31,5.82 -15.9,8.95 -5.61,3.07 -11.71,5.99 -18.07,9.27 -12.84,5.89 -26.95,12.16 -42.49,17.62 -15.39,5.74 -32.19,10.38 -49.81,14.71 -17.61,4.1 -36.21,7.24 -55.26,9.56 -19.1,1.94 -38.67,2.84 -58.31,2.6 -19.64,-0.51 -39.36,-2.16 -58.62,-4.92 -19.18,-3.14 -38.01,-7.24 -55.94,-12.47 -17.76,-5.53 -35.09,-11.35 -50.69,-18.6 -7.99,-3.21 -15.32,-7.31 -22.7,-10.82 -6.36,-3.43 -12.56,-6.87 -18.45,-10.23 -2.24,23.67 -3.87,47.49 -5.14,71.46 4.47,3.14 9.02,6.29 13.81,9.19 16.8,11.12 35.61,20.98 55.47,30.69 20.01,9.34 41.37,17.63 63.55,24.78 22.25,6.8 45.33,12.48 68.78,16.73 23.44,3.97 47.19,6.51 70.78,7.7 23.52,0.89 46.84,0.6 69.37,-1.05 22.55,-2.01 44.36,-4.55 64.9,-8.74 20.53,-3.8 39.72,-8.87 57.42,-13.96 3.73,-1.18 7.39,-2.38 11.05,-3.51 4.86,-1.57 9.56,-3.13 14.11,-4.7 7.92,-2.9 15.46,-5.68 22.49,-8.43 6.94,-2.92 13.44,-5.68 19.48,-8.21 5.97,-2.63 11.36,-5.32 16.28,-7.63 9.93,-4.55 17.39,-8.89 22.62,-11.57 5.16,-2.77 7.92,-4.26 7.92,-4.26"
         style="fill:#2d6c9b;fill-opacity:1;fill-rule:nonzero;stroke:none"
         id="path150" />
      <path
         d="m 5959.32,1468.44 c 0,0 -1.05,-2.54 -2.99,-7.24 -0.97,-2.31 -2.16,-5.23 -3.58,-8.66 -1.35,-3.28 -3.22,-7.39 -5.52,-12.03 -2.32,-4.62 -4.79,-9.77 -7.54,-15.37 -2.18,-3.88 -4.49,-8.07 -6.96,-12.4 -0.75,-1.58 -1.64,-3.13 -2.53,-4.78 -3.51,-6.12 -7.62,-12.4 -11.8,-19.12 -4.18,-6.71 -9.18,-13.36 -14.11,-20.61 -5.24,-6.94 -10.76,-14.18 -16.65,-21.5 -6.27,-7.03 -12.33,-14.79 -19.42,-21.88 -13.51,-14.93 -29.34,-29.12 -46.23,-43.39 -10.37,-8.44 -21.28,-16.65 -32.69,-24.48 -1.13,-0.83 -2.25,-1.58 -3.37,-2.24 -31.36,16.2 -62.12,33.38 -92.37,51.52 11.13,3.66 22.11,7.69 32.86,12.09 17.85,7.77 35.02,16.35 51.15,25.77 15.91,9.7 31.21,19.63 44.58,30.47 1.56,1.1 2.98,2.23 4.48,3.5 5.15,4.11 9.93,8.51 14.86,12.54 5.96,5.53 11.72,10.91 17.09,16.21 5.17,5.52 10.46,10.6 14.94,15.9 4.48,5.23 8.97,10.16 12.77,15.01 2.39,3.14 4.77,6.13 6.94,8.96 1.27,1.65 2.54,3.22 3.74,4.78 2.99,4.33 5.74,8.29 8.28,11.8 2.46,3.52 4.71,6.8 6.65,10.08 1.95,3.21 3.52,5.83 4.86,8.07 2.68,4.32 4.1,6.65 4.1,6.65 l 38.46,-19.65"
         style="fill:#2d6c9b;fill-opacity:1;fill-rule:nonzero;stroke:none"
         id="path152" />
      <path
         d="m 6784,1137.58 c 0,0 -0.89,-2.25 -2.61,-6.36 -0.89,-2.09 -1.94,-4.63 -3.21,-7.68 -1.12,-2.92 -2.85,-6.5 -4.86,-10.61 -2.01,-4.11 -4.26,-8.66 -6.63,-13.59 -2.63,-4.7 -5.46,-9.79 -8.45,-15.16 -2.99,-5.38 -6.65,-10.74 -10.22,-16.65 -25.18,-2.39 -50.49,-4.19 -75.94,-5.38 2.61,2.31 5.21,4.56 7.83,6.72 5.3,4.85 10.38,9.64 15.15,14.33 4.57,4.86 9.19,9.34 13.23,13.98 3.88,4.69 7.83,9.02 11.27,13.28 3.36,4.33 6.49,8.45 9.41,12.18 2.61,3.81 5.07,7.23 7.25,10.37 2.23,3.06 4.17,6.05 5.89,8.97 1.05,1.63 1.94,3.14 2.77,4.48 l 1.57,2.53 c 2.31,3.88 3.58,5.89 3.58,5.89 l 27.1,-13.81 6.87,-3.49"
         style="fill:#2d6c9b;fill-opacity:1;fill-rule:nonzero;stroke:none"
         id="path154" />
      <path
         d="m 6775.64,4357.07 -133.74,-66.51 c 0,0 -0.82,2.15 -2.53,6.11 -1.72,3.96 -3.88,9.93 -7.48,17.18 -1.71,3.66 -3.58,7.75 -5.74,12.18 -2.32,4.31 -4.78,9.02 -7.39,14.1 -2.92,4.93 -5.99,10.16 -9.19,15.68 -3.28,5.53 -7.09,11.12 -10.9,17.18 l -0.76,1.12 c -7.9,11.27 -16.64,23.44 -26.94,35.62 -10.39,12.77 -22.48,25.24 -35.47,37.93 -13.08,12.47 -27.48,24.64 -42.79,36.22 -15.46,11.33 -31.89,22.11 -48.98,31.87 -17.19,9.49 -34.96,18 -53.03,25.39 -18.07,7.11 -36.36,13.07 -54.51,17.71 l -2.53,0.6 c 65.56,11.13 132.24,18.6 199.96,22.17 h 0.08 c 5.08,-2.39 10.08,-4.93 15.01,-7.47 20.76,-11.2 40.63,-23.29 59.3,-36.14 18.36,-13.14 35.91,-26.43 51.43,-40.4 15.84,-13.66 29.81,-27.77 42.5,-41.15 6.05,-6.94 12.02,-13.42 17.47,-19.86 5.31,-6.48 10.45,-12.68 15.09,-18.66 3.43,-4.55 6.65,-8.89 9.7,-12.93 0.98,-1.41 2.02,-2.68 2.99,-4.02 3.81,-5.31 7.1,-10.38 10.16,-14.87 6.27,-8.95 10.44,-16.41 13.58,-21.34 3.06,-5.08 4.71,-7.71 4.71,-7.71"
         style="fill:#2d6c9b;fill-opacity:1;fill-rule:nonzero;stroke:none"
         id="path156" />
      <path
         d="m 7684.18,4260.91 -82.52,-41.08 c -21.35,53.24 -54.65,99.61 -95.12,139.04 -39.58,38.6 -86.03,70.57 -134.86,95.81 -6.72,3.44 -13.45,6.86 -20.24,10.16 108.51,-41.83 207.21,-93.72 296.61,-154.44 1.64,-0.6 3.28,-1.26 4.92,-1.93 0.67,-0.97 1.41,-1.95 2.09,-2.84 l 0.59,-0.83 c 3.88,-5.29 7.18,-10.37 10.25,-14.84 6.27,-8.97 10.44,-16.43 13.57,-21.37 3.07,-5.01 4.71,-7.68 4.71,-7.68"
         style="fill:#2d6c9b;fill-opacity:1;fill-rule:nonzero;stroke:none"
         id="path158" />
      <path
         d="m 7385.05,4240.09 14,-103.03 92.83,-46.86 -93.66,-45.17 -15.9,-102.76 -71.88,75.12 -102.64,-16.65 49.22,91.59 -47.54,92.47 102.32,-18.51 73.25,73.8"
         style="fill:#2d6c9b;fill-opacity:1;fill-rule:nonzero;stroke:none"
         id="path160" />
      <path
         d="m 6294.24,4097.55 14.03,-103.03 92.8,-46.86 -93.64,-45.16 -15.9,-102.76 -71.9,75.12 -102.63,-16.65 49.22,91.59 -47.55,92.47 102.32,-18.52 73.25,73.8"
         style="fill:#2d6c9b;fill-opacity:1;fill-rule:nonzero;stroke:none"
         id="path162" />
      <path
         d="m 5748.5,3314.52 14.02,-103.04 92.81,-46.85 -93.65,-45.18 -15.89,-102.75 -71.9,75.13 -102.64,-16.65 49.22,91.59 -47.54,92.48 102.31,-18.53 73.26,73.8"
         style="fill:#2d6c9b;fill-opacity:1;fill-rule:nonzero;stroke:none"
         id="path164" />
      <path
         d="m 5796.67,2273.48 14,-103.04 92.83,-46.86 -93.66,-45.16 -15.89,-102.77 -71.89,75.13 -102.64,-16.66 49.22,91.6 -47.54,92.48 102.32,-18.53 73.25,73.81"
         style="fill:#2d6c9b;fill-opacity:1;fill-rule:nonzero;stroke:none"
         id="path166" />
      <path
         d="m 6627.32,1509.78 14.02,-103.03 92.81,-46.87 -93.65,-45.15 -15.89,-102.77 -71.9,75.13 -102.62,-16.65 49.22,91.59 -47.54,92.46 102.3,-18.5 73.25,73.79"
         style="fill:#2d6c9b;fill-opacity:1;fill-rule:nonzero;stroke:none"
         id="path168" />
      <path
         d="m 7723.47,1627.92 14,-103.04 92.82,-46.85 -93.65,-45.17 -15.9,-102.76 -71.89,75.12 -102.63,-16.66 49.22,91.61 -47.53,92.47 102.3,-18.52 73.26,73.8"
         style="fill:#2d6c9b;fill-opacity:1;fill-rule:nonzero;stroke:none"
         id="path170" />
      <path
         d="m 8346.4,2327.78 14.02,-103.02 92.8,-46.87 -93.64,-45.17 -15.9,-102.76 -71.9,75.14 -102.63,-16.65 49.22,91.59 -47.55,92.47 102.31,-18.52 73.27,73.79"
         style="fill:#2d6c9b;fill-opacity:1;fill-rule:nonzero;stroke:none"
         id="path172" />
      <path
         d="m 8458.8,3028.23 14.01,-103.03 92.82,-46.85 -93.66,-45.18 -15.9,-102.76 -71.88,75.13 -102.64,-16.65 49.23,91.59 -47.54,92.48 102.31,-18.53 73.25,73.8"
         style="fill:#2d6c9b;fill-opacity:1;fill-rule:nonzero;stroke:none"
         id="path174" />
      <path
         d="m 8127.37,3703.94 14.01,-103.03 92.81,-46.87 -93.64,-45.15 -15.9,-102.76 -71.89,75.12 -102.63,-16.65 49.23,91.59 -47.55,92.46 102.31,-18.5 73.25,73.79"
         style="fill:#2d6c9b;fill-opacity:1;fill-rule:nonzero;stroke:none"
         id="path176" />
      <path
         d="m 6504.06,2581.28 c 0,28.9 -9.48,48.92 -28.43,60.07 -14.68,8.51 -37.67,12.79 -68.94,12.79 -22.5,0 -34.46,-3.45 -35.89,-10.32 -1.43,-8.06 -2.15,-31.27 -2.15,-69.64 0,-5.46 0.13,-13.51 0.36,-24.18 0.24,-10.65 0.36,-18.6 0.36,-23.8 0,-1.19 3.8,-2.37 11.38,-3.56 14.45,-2.13 29.61,-3.19 45.48,-3.19 51.9,0 77.83,20.61 77.83,61.83 m 149.27,-318.77 c 0,-1.67 -2.38,-2.84 -7.1,-3.56 -9.01,-1.42 -31.64,-2.13 -67.89,-2.13 -31.04,0 -52.12,0.71 -63.25,2.13 -5.22,0.72 -8.18,1.29 -8.9,1.77 -1.4,0.71 -3.08,3.09 -4.96,7.1 -3.55,9.25 -8.78,22.99 -15.64,41.24 -9.24,23.68 -23.7,58.64 -43.35,104.85 -4.28,9.22 -14.12,14.31 -29.5,15.26 7.09,-0.47 -5.11,-0.7 -36.61,-0.7 -3.55,0 -5.33,-6.04 -5.33,-18.14 0,-16.1 1.48,-40.14 4.43,-72.13 2.97,-31.99 4.45,-56.03 4.45,-72.15 0,-4.03 -1.08,-6.38 -3.2,-7.1 -3.31,-0.24 -6.63,-0.46 -9.95,-0.71 -13.98,-0.96 -35.78,-1.42 -65.39,-1.42 -33.87,0 -54.26,0.71 -61.12,2.13 -6.87,1.41 -10.31,5.09 -10.31,11.02 0,26.05 1.24,65.38 3.73,117.98 2.5,52.6 3.73,92.04 3.73,118.35 0,100.22 -2.25,178.39 -6.76,234.55 l -0.34,4.97 c -0.25,4.04 3.48,6.77 11.18,8.19 7.72,1.4 43.9,2.84 108.57,4.25 43.84,0.95 78.78,1.43 104.85,1.43 54.02,0 98.07,-12.21 132.2,-36.61 38.61,-27.49 57.93,-67.16 57.93,-119.07 0,-34.58 -4.98,-62.17 -14.93,-82.78 -9.96,-20.62 -28.32,-40.65 -55.1,-60.08 -5.43,-3.78 -8.15,-7.34 -8.15,-10.65 0,0.23 14.43,-29.5 43.34,-89.21 28.92,-59.69 43.37,-92.63 43.37,-98.78"
         style="fill:#2d6c9b;fill-opacity:1;fill-rule:nonzero;stroke:none"
         id="path178" />
      <path
         d="m 7052.41,2508.43 c 0,35.53 -10.78,65.75 -32.32,90.61 -22.52,26.07 -51.3,39.1 -86.36,39.1 -33.42,0 -61.73,-13.49 -84.94,-40.51 -22.51,-26.07 -33.76,-56.04 -33.76,-89.91 0,-36.24 10.55,-66.46 31.62,-90.63 22.28,-25.34 51.31,-38.03 87.08,-38.03 33.41,0 61.84,13.39 85.29,40.17 22.26,25.57 33.39,55.31 33.39,89.2 m 134.69,-0.71 c 0,-73.92 -23.57,-135.88 -70.71,-185.88 -48.1,-50.69 -108.98,-76.05 -182.66,-76.05 -73.21,0 -133.98,25.6 -182.32,76.78 -47.39,49.98 -71.07,111.7 -71.07,185.15 0,73.67 23.68,135.63 71.07,185.87 48.34,51.39 109.11,77.1 182.32,77.1 72.74,0 133.38,-25.71 181.95,-77.1 47.62,-50.72 71.42,-112.66 71.42,-185.87"
         style="fill:#2d6c9b;fill-opacity:1;fill-rule:nonzero;stroke:none"
         id="path180" />
      <path
         d="m 7655.17,2339.26 c 0,-3.78 -2.49,-8.77 -7.48,-14.92 -43.59,-51.89 -101.51,-77.84 -173.77,-77.84 -73.93,0 -133.86,25.25 -179.84,75.7 -44.77,48.82 -67.17,110.4 -67.17,184.8 0,72.02 21.92,133.15 65.76,183.38 45.72,52.6 103.87,78.9 174.49,78.9 76.76,0 136.94,-23.58 180.53,-70.72 4.73,-5.22 7.11,-9.83 7.11,-13.87 0,-4.51 -8.25,-21.19 -24.69,-50.1 -16.5,-28.91 -26.85,-45.15 -31.11,-48.7 -1.89,-1.88 -4.25,-2.83 -7.1,-2.83 -1.2,0 -7.11,4.73 -17.78,14.21 -12.79,11.38 -25.34,20.26 -37.68,26.66 -18.7,9.48 -38.13,14.21 -58.27,14.21 -34.82,0 -62.65,-13.03 -83.51,-39.1 -19.2,-24.16 -28.79,-54.02 -28.79,-89.56 0,-36 9.59,-66.21 28.79,-90.61 20.86,-26.53 48.69,-39.81 83.51,-39.81 20.62,0 40.17,4.51 58.66,13.51 12.05,5.93 24.38,14.22 36.94,24.88 10.43,9 16.23,13.5 17.42,13.5 2.35,0 4.74,-1.3 7.1,-3.91 3.79,-4.26 14.09,-19.07 30.91,-44.42 17.3,-26.29 25.97,-40.75 25.97,-43.36"
         style="fill:#2d6c9b;fill-opacity:1;fill-rule:nonzero;stroke:none"
         id="path182" />
      <path
         d="m 8131.02,2278.85 c 0,-10.19 -4.4,-16.83 -13.16,-19.9 -7.1,-2.37 -25.81,-3.56 -56.13,-3.56 -29.16,0 -50.47,1.19 -63.98,3.56 -6.41,1.18 -10.62,2.42 -12.62,3.73 -2.01,1.31 -4.57,4.68 -7.65,10.11 -17.3,31.76 -34.47,63.51 -51.53,95.25 -28.2,51.19 -45,79.38 -50.47,84.59 -25.58,-9.24 -38.37,-15.88 -38.37,-19.9 0,-17.77 0.72,-44.61 2.13,-80.5 1.42,-35.89 2.14,-62.84 2.14,-80.84 0,-7.35 -3.2,-11.5 -9.6,-12.44 -12.33,-1.91 -34.59,-2.86 -66.81,-2.86 -30.81,0 -51.19,0.95 -61.12,2.86 -6.88,1.41 -10.32,5.09 -10.32,11.02 0,25.59 1.24,64.2 3.75,115.85 2.49,51.63 3.72,90.37 3.72,116.21 0,27.48 -1.2,68.77 -3.55,123.85 -2.38,55.08 -3.56,96.37 -3.56,123.86 0,5.2 2.49,7.82 7.46,7.82 7.33,0 18.41,-0.35 33.24,-1.07 14.81,-0.72 25.88,-1.08 33.21,-1.08 7.59,0 18.84,0.36 33.76,1.08 14.94,0.72 26.07,1.07 33.42,1.07 4.02,0 6.04,-2.15 6.04,-6.41 0,-17.53 -0.9,-44 -2.66,-79.42 -1.78,-35.42 -2.68,-61.9 -2.68,-79.42 0,-20.39 5.56,-30.56 16.71,-30.56 28.19,0 50.12,7.68 65.76,23.08 11.6,11.38 23.32,32.1 35.18,62.2 7.57,22.98 20.01,56.86 37.3,101.63 2.62,5.93 7.94,8.9 16,8.9 6.15,0 15.46,-0.35 27.89,-1.07 12.45,-0.72 21.74,-1.08 27.9,-1.08 6.41,0 15.93,0.23 28.6,0.71 12.69,0.47 22.09,0.73 28.27,0.73 5.67,0 8.52,-2.74 8.52,-8.19 0,-7.81 -4.98,-26.88 -14.92,-57.2 -29.4,-89.57 -63.15,-145.48 -101.29,-167.75 -7.82,-4.51 -11.72,-8.17 -11.72,-11.01 0,0.23 21.86,-35.31 65.57,-106.63 43.7,-71.31 65.57,-113.72 65.57,-127.22"
         style="fill:#2d6c9b;fill-opacity:1;fill-rule:nonzero;stroke:none"
         id="path184" />
      <path
         d="m 6159.44,2920.96 c -15,44.05 -43.95,58.77 -86.86,44.16 -30.27,-10.31 -45.57,-17.41 -45.93,-21.33 -0.49,-2.91 6.3,-24.97 20.34,-66.19 2.01,-5.86 5.18,-14.43 9.54,-25.7 4.36,-11.29 7.55,-19.85 9.54,-25.7 1.29,-3.79 18.94,0.12 52.98,11.69 41.02,13.98 54.49,41.67 40.39,83.07 m 111.59,43.07 c 15.59,-45.75 16.2,-86.89 1.85,-123.43 -15.46,-38.81 -45.8,-65.92 -91,-81.31 -7.55,-2.57 -19.09,-6.02 -34.59,-10.34 -15.5,-4.34 -27.06,-7.8 -34.61,-10.36 -8.14,-2.78 -11,-7.66 -8.63,-14.65 2.97,-8.7 8.23,-21.37 15.8,-37.98 7.55,-16.63 12.78,-29.19 15.68,-37.71 1.48,-4.35 0.22,-7.19 -3.73,-8.53 -11.55,-3.95 -28.95,-9.51 -52.23,-16.7 -23.3,-7.17 -40.7,-12.74 -52.25,-16.68 -5.48,-1.86 -9.16,-0.05 -11.02,5.42 -7.15,20.99 -17.54,52.64 -31.2,94.92 -13.67,42.3 -24.06,73.93 -31.21,94.92 -20.23,59.36 -44.02,120.88 -71.4,184.56 l -1.64,3.86 c -1.6,3.47 0.49,6.6 6.3,9.42 14.09,6.92 46.29,18.94 96.58,36.06 29.68,10.1 58.26,19.42 85.75,27.94 45.24,13.93 86.15,12.14 122.72,-5.37 37.36,-18.08 63.66,-49.43 78.83,-94.04"
         style="fill:#2d6c9b;fill-opacity:1;fill-rule:nonzero;stroke:none"
         id="path186" />
      <path
         d="m 6612.35,3027.71 c -9.66,28.37 -26.47,49.54 -50.44,63.53 -25.04,14.68 -51.55,17.26 -79.53,7.74 -26.66,-9.1 -45.58,-27.55 -56.75,-55.41 -10.89,-26.92 -11.73,-53.9 -2.53,-80.92 9.84,-28.93 26.47,-50.18 49.87,-63.71 24.66,-14.19 51.26,-16.43 79.81,-6.71 26.66,9.09 45.7,27.49 57.14,55.23 10.83,26.47 11.62,53.22 2.43,80.25 m 107.67,36.03 c 20.08,-58.97 18.1,-114.82 -5.95,-167.52 -24.6,-53.53 -66.29,-90.29 -125.08,-110.32 -58.41,-19.89 -113.87,-15.99 -166.33,11.72 -51.39,27 -87.08,69.81 -107.04,128.42 -20.02,58.8 -17.94,114.66 6.22,167.61 24.6,54.18 66.1,91.22 124.53,111.09 58.03,19.77 113.42,15.74 166.14,-12.1 51.77,-27.5 87.62,-70.48 107.51,-128.9"
         style="fill:#2d6c9b;fill-opacity:1;fill-rule:nonzero;stroke:none"
         id="path188" />
      <path
         d="m 6974.17,3198.4 c -14.99,44.05 -43.96,58.77 -86.87,44.14 -30.26,-10.28 -45.54,-17.4 -45.89,-21.31 -0.51,-2.92 6.28,-24.98 20.32,-66.19 1.99,-5.87 5.17,-14.43 9.53,-25.7 4.39,-11.28 7.55,-19.86 9.54,-25.72 1.29,-3.78 18.94,0.13 52.98,11.72 41.03,13.97 54.5,41.65 40.39,83.06 m 111.62,43.06 c 15.56,-45.75 16.19,-86.89 1.82,-123.43 -15.46,-38.81 -45.8,-65.92 -90.99,-81.3 -7.56,-2.57 -19.09,-6.03 -34.6,-10.36 -15.51,-4.33 -27.04,-7.79 -34.61,-10.36 -8.14,-2.76 -10.99,-7.66 -8.63,-14.63 2.98,-8.72 8.23,-21.38 15.79,-37.99 7.56,-16.63 12.78,-29.19 15.68,-37.71 1.49,-4.35 0.24,-7.19 -3.72,-8.54 -11.55,-3.93 -28.95,-9.49 -52.23,-16.69 -23.3,-7.18 -40.72,-12.74 -52.25,-16.66 -5.48,-1.87 -9.15,-0.08 -11.01,5.42 -7.14,20.98 -17.56,52.61 -31.21,94.9 -13.68,42.3 -24.07,73.93 -31.22,94.91 -20.21,59.38 -44.01,120.89 -71.39,184.57 l -1.64,3.86 c -1.59,3.48 0.48,6.6 6.29,9.42 14.11,6.93 46.29,18.93 96.59,36.06 29.67,10.11 58.27,19.41 85.73,27.93 45.26,13.94 86.18,12.14 122.74,-5.36 37.37,-18.08 63.66,-49.42 78.86,-94.04"
         style="fill:#2d6c9b;fill-opacity:1;fill-rule:nonzero;stroke:none"
         id="path190" />
      <path
         d="m 6913.12,1753.21 c -546.87,0 -990.22,443.37 -990.22,990.25 0,41.79 2.59,83.02 7.62,123.45 8.26,-22.05 16.04,-43.82 23.37,-65.31 7.15,-20.99 17.54,-52.62 31.21,-94.92 13.66,-42.28 24.05,-73.93 31.2,-94.92 1.39,-4.08 3.8,-6.13 7.2,-6.13 1.16,0 2.43,0.24 3.82,0.71 11.55,3.94 28.95,9.51 52.25,16.68 23.28,7.19 40.68,12.75 52.23,16.7 3.95,1.34 5.21,4.18 3.73,8.53 -2.9,8.52 -8.13,21.08 -15.68,37.71 -7.57,16.61 -12.83,29.28 -15.8,37.98 -2.37,6.99 0.49,11.87 8.63,14.65 7.55,2.56 19.11,6.02 34.61,10.36 15.5,4.32 27.04,7.77 34.59,10.34 45.2,15.39 75.54,42.5 91,81.31 14.35,36.54 13.74,77.68 -1.85,123.43 -15.17,44.61 -41.47,75.96 -78.83,94.04 -20.37,9.75 -42.08,14.63 -65.14,14.63 -18.34,0 -37.54,-3.09 -57.58,-9.26 -27.49,-8.52 -56.07,-17.84 -85.75,-27.94 -6.67,-2.27 -13.02,-4.45 -19.05,-6.54 122.54,407.74 500.8,704.74 948.44,704.74 546.91,0 990.26,-443.34 990.26,-990.24 0,-60.32 -5.39,-119.38 -15.72,-176.72 -10.4,-3.33 -22.16,-4.99 -35.27,-4.99 -11.15,0 -16.71,10.17 -16.71,30.56 0,17.52 0.9,44 2.68,79.42 1.76,35.42 2.66,61.89 2.66,79.42 0,4.26 -2.02,6.41 -6.04,6.41 -7.35,0 -18.48,-0.35 -33.42,-1.07 -14.92,-0.72 -26.17,-1.08 -33.76,-1.08 -7.33,0 -18.4,0.36 -33.21,1.08 -14.83,0.72 -25.91,1.07 -33.24,1.07 -4.97,0 -7.46,-2.62 -7.46,-7.82 0,-27.49 1.18,-68.78 3.56,-123.86 2.35,-55.08 3.55,-96.37 3.55,-123.85 0,-25.84 -1.23,-64.58 -3.72,-116.21 -2.51,-51.65 -3.75,-90.26 -3.75,-115.85 0,-5.93 3.44,-9.61 10.32,-11.02 9.93,-1.91 30.31,-2.86 61.12,-2.86 3.59,0 7.05,0.02 10.39,0.04 -170.08,-300.29 -492.48,-502.92 -862.24,-502.92 m 20.61,1017.48 c -73.21,0 -133.98,-25.71 -182.32,-77.1 -47.39,-50.24 -71.07,-112.2 -71.07,-185.87 0,-73.45 23.68,-135.17 71.07,-185.15 48.34,-51.18 109.11,-76.78 182.32,-76.78 73.68,0 134.56,25.36 182.66,76.05 47.14,50 70.71,111.96 70.71,185.88 0,73.21 -23.8,135.15 -71.42,185.87 -48.57,51.39 -109.21,77.1 -181.95,77.1 m 533.43,-1.41 c -70.62,0 -128.77,-26.3 -174.49,-78.9 -43.84,-50.23 -65.76,-111.36 -65.76,-183.38 0,-74.4 22.4,-135.98 67.17,-184.8 45.98,-50.45 105.91,-75.7 179.84,-75.7 72.26,0 130.18,25.95 173.77,77.84 4.99,6.15 7.48,11.14 7.48,14.92 0,2.61 -8.67,17.07 -25.97,43.36 -16.82,25.35 -27.12,40.16 -30.91,44.42 -2.36,2.61 -4.75,3.91 -7.1,3.91 -1.19,0 -6.99,-4.5 -17.42,-13.5 -12.56,-10.66 -24.89,-18.95 -36.94,-24.88 -18.49,-9 -38.04,-13.51 -58.66,-13.51 -34.82,0 -62.65,13.28 -83.51,39.81 -19.2,24.4 -28.79,54.61 -28.79,90.61 0,35.54 9.59,65.4 28.79,89.56 20.86,26.07 48.69,39.1 83.51,39.1 20.14,0 39.57,-4.73 58.27,-14.21 12.34,-6.4 24.89,-15.28 37.68,-26.66 10.67,-9.48 16.58,-14.21 17.78,-14.21 2.85,0 5.21,0.95 7.1,2.83 4.26,3.55 14.61,19.79 31.11,48.7 16.44,28.91 24.69,45.59 24.69,50.1 0,4.04 -2.38,8.65 -7.11,13.87 -43.59,47.14 -103.77,70.72 -180.53,70.72 M 6412.74,2429.17 c 15.38,-0.95 25.22,-6.04 29.5,-15.26 19.65,-46.21 34.11,-81.17 43.35,-104.85 6.86,-18.25 12.09,-31.99 15.64,-41.24 1.88,-4.01 3.56,-6.39 4.96,-7.1 0.72,-0.48 3.68,-1.05 8.9,-1.77 11.13,-1.42 32.21,-2.13 63.25,-2.13 36.25,0 58.88,0.71 67.89,2.13 4.72,0.72 7.1,1.89 7.1,3.56 0,6.15 -14.45,39.09 -43.37,98.78 -28.8,59.49 -43.23,89.21 -43.34,89.21 v 0 c 0,3.31 2.72,6.87 8.15,10.65 26.78,19.43 45.14,39.46 55.1,60.08 9.95,20.61 14.93,48.2 14.93,82.78 0,51.91 -19.32,91.58 -57.93,119.07 -34.13,24.4 -78.18,36.61 -132.2,36.61 -26.07,0 -61.01,-0.48 -104.85,-1.43 -64.67,-1.41 -100.85,-2.85 -108.57,-4.25 -7.7,-1.42 -11.43,-4.15 -11.18,-8.19 l 0.34,-4.97 c 4.51,-56.16 6.76,-134.33 6.76,-234.55 0,-26.31 -1.23,-65.75 -3.73,-118.35 -2.49,-52.6 -3.73,-91.93 -3.73,-117.98 0,-5.93 3.44,-9.61 10.31,-11.02 6.86,-1.42 27.25,-2.13 61.12,-2.13 29.61,0 51.41,0.46 65.39,1.42 3.32,0.25 6.64,0.47 9.95,0.71 2.12,0.72 3.2,3.07 3.2,7.1 0,16.12 -1.48,40.16 -4.45,72.15 -2.95,31.99 -4.43,56.03 -4.43,72.13 0,12.1 1.78,18.14 5.33,18.14 31.5,0 43.7,0.23 36.61,0.7 m 104.56,787.89 c -23.18,0 -46.83,-4.11 -70.93,-12.32 -58.43,-19.87 -99.93,-56.91 -124.53,-111.09 -24.16,-52.95 -26.24,-108.81 -6.22,-167.61 19.96,-58.61 55.65,-101.42 107.04,-128.42 30.53,-16.13 62.08,-24.19 94.64,-24.19 23.38,0 47.28,4.16 71.69,12.47 58.79,20.03 100.48,56.79 125.08,110.32 24.05,52.7 26.03,108.55 5.95,167.52 -19.89,58.42 -55.74,101.4 -107.51,128.9 -30.83,16.28 -62.56,24.42 -95.21,24.42 m 424.49,133.06 c -18.35,0 -37.55,-3.08 -57.6,-9.26 -27.46,-8.52 -56.06,-17.82 -85.73,-27.93 -50.3,-17.13 -82.48,-29.13 -96.59,-36.06 -5.81,-2.82 -7.88,-5.94 -6.29,-9.42 l 1.64,-3.86 c 27.38,-63.68 51.18,-125.19 71.39,-184.57 7.15,-20.98 17.54,-52.61 31.22,-94.91 13.65,-42.29 24.07,-73.92 31.21,-94.9 1.39,-4.1 3.78,-6.14 7.17,-6.14 1.17,0 2.45,0.24 3.84,0.72 11.53,3.92 28.95,9.48 52.25,16.66 23.28,7.2 40.68,12.76 52.23,16.69 3.96,1.35 5.21,4.19 3.72,8.54 -2.9,8.52 -8.12,21.08 -15.68,37.71 -7.56,16.61 -12.81,29.27 -15.79,37.99 -2.36,6.97 0.49,11.87 8.63,14.63 7.57,2.57 19.1,6.03 34.61,10.36 15.51,4.33 27.04,7.79 34.6,10.36 45.19,15.38 75.53,42.49 90.99,81.3 14.37,36.54 13.74,77.68 -1.82,123.43 -15.2,44.62 -41.49,75.96 -78.86,94.04 -20.37,9.75 -42.08,14.62 -65.14,14.62 m -515.56,-830.67 c -15.87,0 -31.03,1.06 -45.48,3.19 -7.58,1.19 -11.38,2.37 -11.38,3.56 0,5.2 -0.12,13.15 -0.36,23.8 -0.23,10.67 -0.36,18.72 -0.36,24.18 0,38.37 0.72,61.58 2.15,69.64 1.43,6.87 13.39,10.32 35.89,10.32 31.27,0 54.26,-4.28 68.94,-12.79 18.95,-11.15 28.43,-31.17 28.43,-60.07 0,-41.22 -25.93,-61.83 -77.83,-61.83"
         style="fill:#143970;fill-opacity:1;fill-rule:nonzero;stroke:none"
         id="path192" />
      <path
         d="m 6578.34,2256.82 c -31.04,0 -52.12,0.71 -63.25,2.13 -5.22,0.72 -8.18,1.29 -8.9,1.77 -1.4,0.71 -3.08,3.09 -4.96,7.1 -3.55,9.25 -8.78,22.99 -15.64,41.24 -9.24,23.68 -23.7,58.64 -43.35,104.85 -4.28,9.22 -14.12,14.31 -29.5,15.26 7.09,-0.47 -5.11,-0.7 -36.61,-0.7 -3.55,0 -5.33,-6.04 -5.33,-18.14 0,-16.1 1.48,-40.14 4.43,-72.13 2.97,-31.99 4.45,-56.03 4.45,-72.15 0,-4.03 -1.08,-6.38 -3.2,-7.1 -3.31,-0.24 -6.63,-0.46 -9.95,-0.71 -13.98,-0.96 -35.78,-1.42 -65.39,-1.42 -33.87,0 -54.26,0.71 -61.12,2.13 -6.87,1.41 -10.31,5.09 -10.31,11.02 0,26.05 1.24,65.38 3.73,117.98 2.5,52.6 3.73,92.04 3.73,118.35 0,100.22 -2.25,178.39 -6.76,234.55 l -0.34,4.97 c -0.25,4.04 3.48,6.77 11.18,8.19 7.72,1.4 43.9,2.84 108.57,4.25 43.84,0.95 78.78,1.43 104.85,1.43 54.02,0 98.07,-12.21 132.2,-36.61 38.61,-27.49 57.93,-67.16 57.93,-119.07 0,-34.58 -4.98,-62.17 -14.93,-82.78 -9.96,-20.62 -28.32,-40.65 -55.1,-60.08 -5.43,-3.78 -8.15,-7.34 -8.15,-10.65 v 0 c 0.11,0 14.54,-29.72 43.34,-89.21 28.92,-59.69 43.37,-92.63 43.37,-98.78 0,-1.67 -2.38,-2.84 -7.1,-3.56 -9.01,-1.42 -31.64,-2.13 -67.89,-2.13 m -171.65,397.32 c -22.5,0 -34.46,-3.45 -35.89,-10.32 -1.43,-8.06 -2.15,-31.27 -2.15,-69.64 0,-5.46 0.13,-13.51 0.36,-24.18 0.24,-10.65 0.36,-18.6 0.36,-23.8 0,-1.19 3.8,-2.37 11.38,-3.56 14.45,-2.13 29.61,-3.19 45.48,-3.19 51.9,0 77.83,20.61 77.83,61.83 0,28.9 -9.48,48.92 -28.43,60.07 -14.68,8.51 -37.67,12.79 -68.94,12.79"
         style="fill:#3294cd;fill-opacity:1;fill-rule:nonzero;stroke:none"
         id="path194" />
      <path
         d="m 6933.73,2379.06 c -35.77,0 -64.8,12.69 -87.08,38.03 -21.07,24.17 -31.62,54.39 -31.62,90.63 0,33.87 11.25,63.84 33.76,89.91 23.21,27.02 51.52,40.51 84.94,40.51 35.06,0 63.84,-13.03 86.36,-39.1 21.54,-24.86 32.32,-55.08 32.32,-90.61 0,-33.89 -11.13,-63.63 -33.39,-89.2 -23.45,-26.78 -51.88,-40.17 -85.29,-40.17 m 904.22,9.68 c -0.56,18.21 -0.84,32.87 -0.84,43.99 0,2.95 6.92,7.33 20.76,13.11 -6.07,-19.29 -12.72,-38.34 -19.92,-57.1"
         style="fill:#143970;fill-opacity:1;fill-rule:nonzero;stroke:none"
         id="path196" />
      <path
         d="m 6933.73,2245.79 c -73.21,0 -133.98,25.6 -182.32,76.78 -47.39,49.98 -71.07,111.7 -71.07,185.15 0,73.67 23.68,135.63 71.07,185.87 48.34,51.39 109.11,77.1 182.32,77.1 72.74,0 133.38,-25.71 181.95,-77.1 47.62,-50.72 71.42,-112.66 71.42,-185.87 0,-73.92 -23.57,-135.88 -70.71,-185.88 -48.1,-50.69 -108.98,-76.05 -182.66,-76.05 m 0,392.35 c -33.42,0 -61.73,-13.49 -84.94,-40.51 -22.51,-26.07 -33.76,-56.04 -33.76,-89.91 0,-36.24 10.55,-66.46 31.62,-90.63 22.28,-25.34 51.31,-38.03 87.08,-38.03 33.41,0 61.84,13.39 85.29,40.17 22.26,25.57 33.39,55.31 33.39,89.2 0,35.53 -10.78,65.75 -32.32,90.61 -22.52,26.07 -51.3,39.1 -86.36,39.1"
         style="fill:#3294cd;fill-opacity:1;fill-rule:nonzero;stroke:none"
         id="path198" />
      <path
         d="m 7473.92,2246.5 c -73.93,0 -133.86,25.25 -179.84,75.7 -44.77,48.82 -67.17,110.4 -67.17,184.8 0,72.02 21.92,133.15 65.76,183.38 45.72,52.6 103.87,78.9 174.49,78.9 76.76,0 136.94,-23.58 180.53,-70.72 4.73,-5.22 7.11,-9.83 7.11,-13.87 0,-4.51 -8.25,-21.19 -24.69,-50.1 -16.5,-28.91 -26.85,-45.15 -31.11,-48.7 -1.89,-1.88 -4.25,-2.83 -7.1,-2.83 -1.2,0 -7.11,4.73 -17.78,14.21 -12.79,11.38 -25.34,20.26 -37.68,26.66 -18.7,9.48 -38.13,14.21 -58.27,14.21 -34.82,0 -62.65,-13.03 -83.51,-39.1 -19.2,-24.16 -28.79,-54.02 -28.79,-89.56 0,-36 9.59,-66.21 28.79,-90.61 20.86,-26.53 48.69,-39.81 83.51,-39.81 20.62,0 40.17,4.51 58.66,13.51 12.05,5.93 24.38,14.22 36.94,24.88 10.43,9 16.23,13.5 17.42,13.5 2.35,0 4.74,-1.3 7.1,-3.91 3.79,-4.26 14.09,-19.07 30.91,-44.42 17.3,-26.29 25.97,-40.75 25.97,-43.36 0,-3.78 -2.49,-8.77 -7.48,-14.92 -43.59,-51.89 -101.51,-77.84 -173.77,-77.84"
         style="fill:#3294cd;fill-opacity:1;fill-rule:nonzero;stroke:none"
         id="path200" />
      <path
         d="m 7764.97,2256.09 c -30.81,0 -51.19,0.95 -61.12,2.86 -6.88,1.41 -10.32,5.09 -10.32,11.02 0,25.59 1.24,64.2 3.75,115.85 2.49,51.63 3.72,90.37 3.72,116.21 0,27.48 -1.2,68.77 -3.55,123.85 -2.38,55.08 -3.56,96.37 -3.56,123.86 0,5.2 2.49,7.82 7.46,7.82 7.33,0 18.41,-0.35 33.24,-1.07 14.81,-0.72 25.88,-1.08 33.21,-1.08 7.59,0 18.84,0.36 33.76,1.08 14.94,0.72 26.07,1.07 33.42,1.07 4.02,0 6.04,-2.15 6.04,-6.41 0,-17.53 -0.9,-44 -2.66,-79.42 -1.78,-35.42 -2.68,-61.9 -2.68,-79.42 0,-20.39 5.56,-30.56 16.71,-30.56 13.11,0 24.87,1.66 35.27,4.99 -7.44,-41.26 -17.41,-81.59 -29.79,-120.9 -13.84,-5.78 -20.76,-10.16 -20.76,-13.11 0,-11.12 0.28,-25.78 0.84,-43.99 -17.63,-45.93 -38.61,-90.27 -62.59,-132.61 -3.34,-0.02 -6.8,-0.04 -10.39,-0.04"
         style="fill:#3294cd;fill-opacity:1;fill-rule:nonzero;stroke:none"
         id="path202" />
      <path
         d="m 6070,2824.8 c -2.3,0 -3.61,0.47 -3.93,1.4 -1.99,5.85 -5.18,14.41 -9.54,25.7 -4.36,11.27 -7.53,19.84 -9.54,25.7 -14.04,41.22 -20.83,63.28 -20.34,66.19 0.36,3.92 15.66,11.02 45.93,21.33 10.69,3.64 20.51,5.46 29.46,5.46 27.01,0 46.14,-16.54 57.4,-49.62 14.1,-41.4 0.63,-69.09 -40.39,-83.07 -25.66,-8.72 -42,-13.09 -49.05,-13.09 m 448.93,61.5 c -16,0 -31.33,4.22 -45.96,12.64 -23.4,13.53 -40.03,34.78 -49.87,63.71 -9.2,27.02 -8.36,54 2.53,80.92 11.17,27.86 30.09,46.31 56.75,55.41 11.01,3.74 21.79,5.61 32.34,5.61 16.27,0 32,-4.45 47.19,-13.35 23.97,-13.99 40.78,-35.16 50.44,-63.53 9.19,-27.03 8.4,-53.78 -2.43,-80.25 -11.44,-27.74 -30.48,-46.14 -57.14,-55.23 -11.6,-3.95 -22.88,-5.93 -33.85,-5.93"
         style="fill:#143970;fill-opacity:1;fill-rule:nonzero;stroke:none"
         id="path204" />
      <path
         d="m 6023.5,2605.63 c -3.4,0 -5.81,2.05 -7.2,6.13 -7.15,20.99 -17.54,52.64 -31.2,94.92 -13.67,42.3 -24.06,73.93 -31.21,94.92 -7.33,21.49 -15.11,43.26 -23.37,65.31 6.91,55.58 18.43,109.72 34.16,162.05 6.03,2.09 12.38,4.27 19.05,6.54 29.68,10.1 58.26,19.42 85.75,27.94 20.04,6.17 39.24,9.26 57.58,9.26 23.06,0 44.77,-4.88 65.14,-14.63 37.36,-18.08 63.66,-49.43 78.83,-94.04 15.59,-45.75 16.2,-86.89 1.85,-123.43 -15.46,-38.81 -45.8,-65.92 -91,-81.31 -7.55,-2.57 -19.09,-6.02 -34.59,-10.34 -15.5,-4.34 -27.06,-7.8 -34.61,-10.36 -8.14,-2.78 -11,-7.66 -8.63,-14.65 2.97,-8.7 8.23,-21.37 15.8,-37.98 7.55,-16.63 12.78,-29.19 15.68,-37.71 1.48,-4.35 0.22,-7.19 -3.73,-8.53 -11.55,-3.95 -28.95,-9.51 -52.23,-16.7 -23.3,-7.17 -40.7,-12.74 -52.25,-16.68 -1.39,-0.47 -2.66,-0.71 -3.82,-0.71 m 78.54,364.95 c -8.95,0 -18.77,-1.82 -29.46,-5.46 -30.27,-10.31 -45.57,-17.41 -45.93,-21.33 -0.49,-2.91 6.3,-24.97 20.34,-66.19 2.01,-5.86 5.18,-14.43 9.54,-25.7 4.36,-11.29 7.55,-19.85 9.54,-25.7 0.32,-0.93 1.63,-1.4 3.93,-1.4 7.05,0 23.39,4.37 49.05,13.09 41.02,13.98 54.49,41.67 40.39,83.07 -11.26,33.08 -30.39,49.62 -57.4,49.62"
         style="fill:#3294cd;fill-opacity:1;fill-rule:nonzero;stroke:none"
         id="path206" />
      <path
         d="m 6517.3,2773.43 c -32.56,0 -64.11,8.06 -94.64,24.19 -51.39,27 -87.08,69.81 -107.04,128.42 -20.02,58.8 -17.94,114.66 6.22,167.61 24.6,54.18 66.1,91.22 124.53,111.09 24.1,8.21 47.75,12.32 70.93,12.32 32.65,0 64.38,-8.14 95.21,-24.42 51.77,-27.5 87.62,-70.48 107.51,-128.9 20.08,-58.97 18.1,-114.82 -5.95,-167.52 -24.6,-53.53 -66.29,-90.29 -125.08,-110.32 -24.41,-8.31 -48.31,-12.47 -71.69,-12.47 m -2.58,331.16 c -10.55,0 -21.33,-1.87 -32.34,-5.61 -26.66,-9.1 -45.58,-27.55 -56.75,-55.41 -10.89,-26.92 -11.73,-53.9 -2.53,-80.92 9.84,-28.93 26.47,-50.18 49.87,-63.71 14.63,-8.42 29.96,-12.64 45.96,-12.64 10.97,0 22.25,1.98 33.85,5.93 26.66,9.09 45.7,27.49 57.14,55.23 10.83,26.47 11.62,53.22 2.43,80.25 -9.66,28.37 -26.47,49.54 -50.44,63.53 -15.19,8.9 -30.92,13.35 -47.19,13.35"
         style="fill:#3294cd;fill-opacity:1;fill-rule:nonzero;stroke:none"
         id="path208" />
      <path
         d="m 6884.72,3102.23 c -2.3,0 -3.6,0.46 -3.92,1.39 -1.99,5.86 -5.15,14.44 -9.54,25.72 -4.36,11.27 -7.54,19.83 -9.53,25.7 -14.04,41.21 -20.83,63.27 -20.32,66.19 0.35,3.91 15.63,11.03 45.89,21.31 10.7,3.65 20.53,5.47 29.49,5.47 26.99,0 46.13,-16.54 57.38,-49.61 14.11,-41.41 0.64,-69.09 -40.39,-83.06 -25.67,-8.74 -42.02,-13.11 -49.06,-13.11"
         style="fill:#143970;fill-opacity:1;fill-rule:nonzero;stroke:none"
         id="path210" />
      <path
         d="m 6838.21,2883.07 c -3.39,0 -5.78,2.04 -7.17,6.14 -7.14,20.98 -17.56,52.61 -31.21,94.9 -13.68,42.3 -24.07,73.93 -31.22,94.91 -20.21,59.38 -44.01,120.89 -71.39,184.57 l -1.64,3.86 c -1.59,3.48 0.48,6.6 6.29,9.42 14.11,6.93 46.29,18.93 96.59,36.06 29.67,10.11 58.27,19.41 85.73,27.93 20.05,6.18 39.25,9.26 57.6,9.26 23.06,0 44.77,-4.87 65.14,-14.62 37.37,-18.08 63.66,-49.42 78.86,-94.04 15.56,-45.75 16.19,-86.89 1.82,-123.43 -15.46,-38.81 -45.8,-65.92 -90.99,-81.3 -7.56,-2.57 -19.09,-6.03 -34.6,-10.36 -15.51,-4.33 -27.04,-7.79 -34.61,-10.36 -8.14,-2.76 -10.99,-7.66 -8.63,-14.63 2.98,-8.72 8.23,-21.38 15.79,-37.99 7.56,-16.63 12.78,-29.19 15.68,-37.71 1.49,-4.35 0.24,-7.19 -3.72,-8.54 -11.55,-3.93 -28.95,-9.49 -52.23,-16.69 -23.3,-7.18 -40.72,-12.74 -52.25,-16.66 -1.39,-0.48 -2.67,-0.72 -3.84,-0.72 m 78.58,364.94 c -8.96,0 -18.79,-1.82 -29.49,-5.47 -30.26,-10.28 -45.54,-17.4 -45.89,-21.31 -0.51,-2.92 6.28,-24.98 20.32,-66.19 1.99,-5.87 5.17,-14.43 9.53,-25.7 4.39,-11.28 7.55,-19.86 9.54,-25.72 0.32,-0.93 1.62,-1.39 3.92,-1.39 7.04,0 23.39,4.37 49.06,13.11 41.03,13.97 54.5,41.65 40.39,83.06 -11.25,33.07 -30.39,49.61 -57.38,49.61"
         style="fill:#3294cd;fill-opacity:1;fill-rule:nonzero;stroke:none"
         id="path212" />
    </g>
  </g>
</svg>
