<?xml version="1.0" encoding="utf-8"?>
<!-- Generator: Adobe Illustrator 27.5.0, SVG Export Plug-In . SVG Version: 6.00 Build 0)  -->
<svg version="1.1" xmlns="http://www.w3.org/2000/svg" xmlns:xlink="http://www.w3.org/1999/xlink" x="0px" y="0px"
	 viewBox="0 0 500 500" style="enable-background:new 0 0 500 500;" xml:space="preserve">
<g id="Background_Complete">
	<g>
		<g>
			<g>
				<g>
					<path style="fill:#EBEBEB;" d="M83.863,381.09c4.564-2.355,9.939-2.661,15.006-1.823c2.722,0.45,5.56,1.264,7.413,3.309
						c1.852,2.045,2.203,5.643,0.076,7.401c-1.266,1.046-3.032,1.205-4.674,1.186c-3.967-0.046-8.368-0.745-11.537,1.642
						c-1.808,1.362-3.011,3.625-5.173,4.295c-2.115,0.655-4.502-0.593-5.623-2.502c-1.121-1.909-1.159-4.295-0.636-6.446
						C78.715,388.152,79.265,383.462,83.863,381.09z"/>
				</g>
			</g>
			<g>
				<g>
					<path style="fill:#EBEBEB;" d="M73.406,360.903c2.791,3.986,8.215,2.666,10.731,0.233c2.515-2.433,3.578-5.96,4.546-9.323
						c2.211-7.684,4.44-15.744,2.796-23.568c-0.492-2.339-1.366-4.672-3.01-6.408c-1.644-1.735-4.171-2.768-6.483-2.157
						c-2.735,0.723-4.435,3.401-5.663,5.95c-3.611,7.49-5.524,15.794-5.552,24.11C70.757,353.624,71.215,357.697,73.406,360.903"/>
				</g>
			</g>
			<g>
				<g>
					<path style="fill:#EBEBEB;" d="M65.741,366.623c3.031-3.597,3.605-8.842,2.257-13.348c-1.349-4.506-4.395-8.339-7.906-11.468
						c-4.116-3.669-8.955-6.524-14.157-8.353c-2.047-0.72-4.207-1.288-6.367-1.082c-2.16,0.206-4.336,1.311-5.343,3.233
						c-1.49,2.842-0.061,6.288,1.484,9.1c2.722,4.954,5.834,9.693,9.298,14.159c2.787,3.593,5.979,7.137,10.227,8.761
						c4.247,1.624,8.659,1.433,10.911-1.513"/>
				</g>
			</g>
			<g>
				<g>
					<g>
						<path style="fill:#E0E0E0;" d="M73.217,421.035c0.052,0.003,0.137-0.643,0.252-1.811c0.128-1.319,0.289-2.974,0.481-4.943
							c0.23-2.08,0.534-4.555,1.112-7.251c0.576-2.689,1.477-5.603,2.635-8.558c1.199-2.938,2.661-5.608,4.37-7.743
							c1.697-2.145,3.67-3.697,5.525-4.593c1.849-0.913,3.507-1.284,4.653-1.449c1.156-0.119,1.803-0.21,1.803-0.261
							c0.001-0.052-0.648-0.06-1.835-0.028c-1.176,0.078-2.903,0.376-4.851,1.262c-1.955,0.867-4.048,2.444-5.828,4.633
							c-1.794,2.18-3.31,4.909-4.53,7.899c-1.178,3.007-2.066,5.951-2.617,8.698c-0.549,2.742-0.8,5.245-0.964,7.342
							c-0.157,2.099-0.216,3.799-0.245,4.974C73.152,420.381,73.166,421.032,73.217,421.035z"/>
					</g>
				</g>
			</g>
			<g>
				<g>
					<g>
						<path style="fill:#E0E0E0;" d="M73.557,417.231c0.026-0.001,0.042-0.291,0.049-0.841c-0.002-0.632-0.004-1.427-0.006-2.404
							c-0.006-2.086-0.005-5.104,0.107-8.831c0.185-7.455,0.826-15.477,2.066-26.788c1.174-10.636,2.75-23.014,4.413-31.061
							c0.356-1.83,0.716-3.478,1.054-4.919c0.322-1.446,0.598-2.692,0.863-3.7c0.228-0.949,0.414-1.722,0.562-2.336
							c0.121-0.537,0.172-0.822,0.147-0.829c-0.025-0.007-0.125,0.264-0.292,0.788c-0.183,0.605-0.414,1.367-0.698,2.303
							c-0.31,0.999-0.627,2.237-0.989,3.677c-0.377,1.436-0.773,3.079-1.164,4.907c-1.645,7.292-3.387,17.484-4.639,28.822
							c-1.242,11.335-1.802,21.655-1.851,29.128c-0.044,3.737,0.035,6.762,0.13,8.849c0.06,0.976,0.108,1.771,0.147,2.402
							C73.497,416.945,73.531,417.232,73.557,417.231z"/>
					</g>
				</g>
			</g>
			<g>
				<g>
					<g>
						<path style="fill:#E0E0E0;" d="M73.607,397.326c0.052-0.002,0.043-0.894-0.018-2.511c-0.092-1.613-0.314-3.945-0.769-6.802
							c-0.482-2.85-1.155-6.234-2.212-9.911c-0.458-1.681-1.535-5.709-4.144-11.727c-3.437-8.154-8.108-14.821-12.17-18.951
							c-0.953-1.096-2.014-1.887-2.863-2.661c-0.439-0.371-0.827-0.742-1.223-1.035c-0.398-0.274-0.768-0.529-1.111-0.766
							c-1.337-0.914-2.086-1.397-2.114-1.353c-0.12,0.163,2.995,1.996,6.928,6.181c3.917,4.176,8.457,10.797,11.867,18.882
							c1.901,4.386,3.227,8.298,4.168,11.619c1.087,3.641,1.809,6.991,2.354,9.812c0.518,2.828,0.819,5.136,1,6.735
							C73.449,396.44,73.556,397.328,73.607,397.326z"/>
					</g>
				</g>
			</g>
		</g>
		<g>
			<g>
				<polygon style="fill:#E0E0E0;" points="54.368,432.439 56.362,459.764 91.467,459.764 93.461,432.439 				"/>
			</g>
		</g>
		<g>
			<g>
				<rect x="50.977" y="421.668" style="fill:#E0E0E0;" width="46.673" height="10.771"/>
			</g>
		</g>
		<g>
			<g>
				<polygon style="fill:#EBEBEB;" points="50.977,458.719 50.977,461.704 53.17,461.704 96.879,461.704 96.879,458.719 				"/>
			</g>
		</g>
		<g>
			<g>
				<polygon style="fill:#E0E0E0;" points="55.32,466.959 53.17,461.704 95.207,461.704 92.699,466.959 				"/>
			</g>
		</g>
		<g>
			<g>
				<g>
					<path style="fill:#F5F5F5;" d="M92.809,441.369c0.008,0.007-0.048,0.092-0.164,0.251c-0.139,0.185-0.312,0.414-0.524,0.696
						c-0.499,0.638-1.184,1.514-2.045,2.617l-0.091,0.116l-0.088-0.122c-1.285-1.778-3.003-4.153-5.024-6.949h0.289
						c-1.494,2.116-3.159,4.473-4.946,7.004l-0.155,0.22l-0.173-0.206c-1.826-2.172-3.808-4.531-5.866-6.98l0.338-0.004
						c-0.102,0.128-0.212,0.267-0.323,0.406c-1.819,2.281-3.58,4.488-5.245,6.576l-0.175,0.219l-0.161-0.228
						c-1.781-2.52-3.445-4.874-4.949-7.002l0.288,0.014c-2.439,2.779-4.507,5.136-6.095,6.944l-0.108,0.123l-0.083-0.139
						c-0.804-1.35-1.444-2.426-1.908-3.206c-0.2-0.348-0.361-0.629-0.489-0.854c-0.108-0.195-0.159-0.299-0.15-0.304
						c0.009-0.006,0.079,0.087,0.204,0.271c0.142,0.216,0.321,0.487,0.542,0.822c0.487,0.766,1.16,1.823,2.003,3.148l-0.191-0.015
						c1.562-1.831,3.597-4.216,5.997-7.029l0.151-0.177l0.137,0.191c1.518,2.119,3.197,4.462,4.993,6.971l-0.336-0.009
						c1.661-2.091,3.418-4.302,5.233-6.586c0.11-0.139,0.221-0.278,0.323-0.406l0.167-0.209l0.172,0.205
						c2.053,2.454,4.03,4.817,5.85,6.993l-0.328,0.013c1.805-2.518,3.486-4.863,4.996-6.969l0.146-0.204l0.143,0.204
						c1.979,2.826,3.66,5.227,4.918,7.024l-0.179-0.005c0.896-1.075,1.609-1.929,2.127-2.551c0.231-0.267,0.418-0.484,0.57-0.659
						C92.73,441.436,92.802,441.363,92.809,441.369z"/>
				</g>
			</g>
		</g>
		<g>
			<g>
				<g>
					<path style="fill:#F5F5F5;" d="M93.95,432.258c0,0.121-8.796,0.219-19.644,0.219c-10.852,0-19.646-0.098-19.646-0.219
						c0-0.121,8.794-0.219,19.646-0.219C85.154,432.04,93.95,432.138,93.95,432.258z"/>
				</g>
			</g>
		</g>
		<g>
			<g>
				<g>
					<path style="fill:#F5F5F5;" d="M95.723,461.999c0,0.121-9.559,0.219-21.349,0.219c-11.794,0-21.351-0.098-21.351-0.219
						c0-0.121,9.557-0.218,21.351-0.218C86.164,461.78,95.723,461.878,95.723,461.999z"/>
				</g>
			</g>
		</g>
	</g>
	<g>
		<g>
			<g>
				<path style="fill:#E0E0E0;" d="M70.017,185.206c0.074,2.296-1.728,4.218-4.025,4.291c-2.296,0.074-4.218-1.728-4.291-4.025
					c-0.074-2.297,1.728-4.218,4.025-4.291C68.022,181.108,69.943,182.91,70.017,185.206z"/>
			</g>
		</g>
		<g>
			<g>
				<g>
					<path style="fill:#E0E0E0;" d="M69.369,183.841c-0.196,0.163-3.014-3.199-5.667-7.859c-2.633-4.653-4.723-8.408-4.536-8.538
						c0.23-0.158,2.703,3.439,5.327,8.077C67.125,180.143,69.566,183.685,69.369,183.841z"/>
				</g>
			</g>
		</g>
		<g>
			<g>
				<g>
					<path style="fill:#E0E0E0;" d="M66.685,162.609c0.229,0.069-0.586,2.268-2.876,3.837c-2.275,1.593-4.62,1.582-4.604,1.344
						c-0.04-0.268,2.033-0.65,4.082-2.097C65.362,164.284,66.448,162.478,66.685,162.609z"/>
				</g>
			</g>
		</g>
		<g>
			<g>
				<g>
					<path style="fill:#E0E0E0;" d="M68.618,166.469c0.242,0.045-0.477,2.269-2.822,3.642c-2.33,1.4-4.626,0.965-4.55,0.731
						c0.005-0.269,2.039-0.275,4.082-1.519C67.398,168.128,68.379,166.345,68.618,166.469z"/>
				</g>
			</g>
		</g>
	</g>
	<g>
		<g>
			<path style="fill:#E0E0E0;" d="M166.159,98.263c-1.769,1.877-4.725,1.965-6.602,0.196c-1.877-1.769-1.965-4.725-0.196-6.602
				c1.769-1.877,4.725-1.965,6.602-0.196C167.84,93.43,167.928,96.386,166.159,98.263z"/>
		</g>
		<g>
			<path style="fill:#E0E0E0;" d="M166.732,96.667c-0.285-0.027,0.159-4.931,1.766-10.733c1.617-5.78,2.95-10.416,3.202-10.371
				c0.308,0.058-0.596,4.874-2.208,10.635C167.898,91.953,167.013,96.7,166.732,96.667z"/>
		</g>
		<g>
			<path style="fill:#E0E0E0;" d="M181.501,77.717c0.126,0.236-2.269,1.33-5.331,0.751c-3.069-0.549-4.918-2.423-4.715-2.599
				c0.182-0.244,2.127,1.103,4.901,1.588C179.121,77.991,181.418,77.425,181.501,77.717z"/>
		</g>
		<g>
			<path style="fill:#E0E0E0;" d="M179.96,82.312c0.156,0.228-2.184,1.417-5.133,0.639c-2.959-0.745-4.432-2.917-4.185-3.041
				c0.218-0.209,1.834,1.405,4.441,2.045C177.675,82.655,179.871,82.024,179.96,82.312z"/>
		</g>
	</g>
	<g>
		<g>
			<path style="fill:#EBEBEB;" d="M458.391,116.533c-0.173,1.894-1.849,3.289-3.742,3.116c-1.894-0.173-3.289-1.849-3.116-3.742
				c0.173-1.894,1.848-3.289,3.742-3.116C457.169,112.964,458.564,114.639,458.391,116.533z"/>
		</g>
		<g>
			<path style="fill:#EBEBEB;" d="M457.997,115.346c-0.178,0.114-2.15-2.934-3.856-7.032c-1.69-4.09-3.025-7.387-2.858-7.475
				c0.205-0.106,1.871,3.1,3.555,7.176C456.53,112.08,458.175,115.237,457.997,115.346z"/>
		</g>
		<g>
			<path style="fill:#EBEBEB;" d="M457.952,97.632c0.181,0.08-0.712,1.803-2.753,2.86c-2.031,1.077-3.956,0.83-3.919,0.636
				c-0.005-0.224,1.736-0.327,3.567-1.307C456.694,98.873,457.771,97.5,457.952,97.632z"/>
		</g>
		<g>
			<path style="fill:#EBEBEB;" d="M459.147,100.999c0.194,0.062-0.623,1.816-2.688,2.705c-2.056,0.913-3.898,0.322-3.811,0.138
				c0.031-0.22,1.703-0.019,3.508-0.833C457.977,102.238,458.964,100.873,459.147,100.999z"/>
		</g>
	</g>
	<g>
		<g>
			<g>
				<path style="fill:#EBEBEB;" d="M76.589,57.774c-2.231,1.758-5.465,1.374-7.222-0.858s-1.374-5.465,0.858-7.222
					c2.231-1.758,5.465-1.374,7.222,0.858C79.205,52.783,78.821,56.016,76.589,57.774z"/>
			</g>
			<g>
				<path style="fill:#EBEBEB;" d="M77.473,56.128c-0.481-0.122,0.667-5.46,3.365-11.533c2.701-6.039,5.032-10.796,5.469-10.647
					c0.496,0.172-1.143,5.347-3.831,11.355C79.812,51.298,77.948,56.255,77.473,56.128z"/>
			</g>
			<g>
				<path style="fill:#EBEBEB;" d="M99.986,43.458c0.013,0.417-4.278,0.628-8.795-1.953c-2.231-1.263-3.906-3.032-4.694-4.562
					c-0.829-1.532-0.718-2.685-0.507-2.702c0.273-0.055,0.593,0.864,1.564,2.013c0.941,1.162,2.507,2.557,4.531,3.706
					C96.127,42.298,100.071,42.902,99.986,43.458z"/>
			</g>
		</g>
		<g>
			<path style="fill:#EBEBEB;" d="M90.268,67.284c-2.231,1.757-5.465,1.374-7.222-0.858c-1.757-2.231-1.374-5.465,0.858-7.222
				c2.231-1.757,5.465-1.374,7.222,0.858C92.884,62.293,92.5,65.527,90.268,67.284z"/>
		</g>
		<g>
			<path style="fill:#EBEBEB;" d="M91.152,65.638c-0.481-0.122,0.667-5.461,3.365-11.533c2.701-6.039,5.032-10.796,5.469-10.647
				c0.496,0.173-1.143,5.347-3.831,11.355C93.491,60.808,91.627,65.765,91.152,65.638z"/>
		</g>
		<g>
			<path style="fill:#EBEBEB;" d="M98.714,46.731c0.066,0.462-4.019,0.932-8.339-1.338c-4.342-2.232-6.303-5.846-5.887-6.057
				c0.418-0.315,2.803,2.485,6.71,4.473C95.07,45.864,98.732,46.207,98.714,46.731z"/>
		</g>
	</g>
	<g>
		<g>
			<g>
				<path style="fill:#EBEBEB;" d="M330.311,90.185c-1.46,1.788-4.093,2.053-5.881,0.593c-1.788-1.46-2.053-4.093-0.593-5.881
					c1.46-1.788,4.093-2.053,5.881-0.593C331.506,85.764,331.771,88.397,330.311,90.185z"/>
			</g>
			<g>
				<path style="fill:#EBEBEB;" d="M330.722,88.723c-0.403-0.012-0.434-4.45,0.637-9.743c1.079-5.268,2.089-9.452,2.462-9.411
					c0.424,0.049,0.036,4.443-1.038,9.683C331.727,84.479,331.121,88.74,330.722,88.723z"/>
			</g>
			<g>
				<path style="fill:#EBEBEB;" d="M346.349,74.703c0.084,0.329-3.283,1.252-7.322,0.001c-1.992-0.609-3.633-1.717-4.528-2.792
					c-0.927-1.069-1.043-2.003-0.878-2.054c0.207-0.091,0.622,0.581,1.596,1.321c0.951,0.756,2.44,1.587,4.248,2.142
					C343.083,74.463,346.319,74.247,346.349,74.703z"/>
			</g>
		</g>
		<g>
			<path style="fill:#EBEBEB;" d="M342.84,95.319c-1.46,1.788-4.093,2.053-5.881,0.593c-1.788-1.46-2.053-4.093-0.593-5.881
				c1.46-1.788,4.093-2.053,5.881-0.593C344.035,90.898,344.3,93.531,342.84,95.319z"/>
		</g>
		<g>
			<path style="fill:#EBEBEB;" d="M343.251,93.857c-0.403-0.012-0.434-4.45,0.637-9.743c1.079-5.268,2.089-9.452,2.462-9.411
				c0.424,0.049,0.036,4.444-1.038,9.684C344.255,89.613,343.65,93.874,343.251,93.857z"/>
		</g>
		<g>
			<path style="fill:#EBEBEB;" d="M345.918,77.524c0.134,0.355-3.024,1.448-6.852,0.408c-3.838-1.006-6.031-3.527-5.738-3.768
				c0.276-0.324,2.661,1.477,6.112,2.366C342.874,77.479,345.839,77.105,345.918,77.524z"/>
		</g>
	</g>
	<g>
		<g>
			<g>
				<g>
					<g>
						
							<ellipse transform="matrix(0.7071 -0.7071 0.7071 0.7071 78.4748 304.5294)" style="fill:#F5F5F5;" cx="406.837" cy="57.537" rx="3.314" ry="3.314"/>
					</g>
				</g>
				<g>
					<g>
						<g>
							<path style="fill:#F5F5F5;" d="M409.44,59.108c-0.309-0.082,0.467-3.514,2.248-7.408c1.782-3.873,3.317-6.922,3.598-6.823
								c0.319,0.114-0.773,3.438-2.547,7.291C410.981,56.012,409.745,59.193,409.44,59.108z"/>
						</g>
					</g>
				</g>
				<g>
					<g>
						<g>
							<path style="fill:#F5F5F5;" d="M424.035,51.099c0.006,0.269-2.761,0.375-5.654-1.319c-1.429-0.829-2.496-1.981-2.993-2.972
								c-0.523-0.993-0.444-1.735-0.308-1.744c0.176-0.033,0.376,0.561,0.994,1.308c0.598,0.755,1.598,1.665,2.894,2.42
								C421.556,50.324,424.094,50.741,424.035,51.099z"/>
						</g>
					</g>
				</g>
			</g>
			<g>
				<g>
					<path style="fill:#F5F5F5;" d="M417.609,66.385c-1.45,1.117-3.531,0.848-4.648-0.602c-1.117-1.45-0.848-3.531,0.602-4.648
						c1.45-1.117,3.531-0.847,4.648,0.602C419.329,63.187,419.059,65.268,417.609,66.385z"/>
				</g>
			</g>
			<g>
				<g>
					<g>
						<path style="fill:#F5F5F5;" d="M418.19,65.331c-0.309-0.082,0.467-3.514,2.248-7.409c1.782-3.873,3.317-6.923,3.598-6.824
							c0.319,0.115-0.773,3.438-2.547,7.291C419.731,62.234,418.495,65.416,418.19,65.331z"/>
					</g>
				</g>
			</g>
			<g>
				<g>
					<g>
						<path style="fill:#F5F5F5;" d="M423.193,53.199c0.039,0.298-2.596,0.573-5.365-0.92c-2.782-1.468-4.021-3.811-3.752-3.944
							c0.272-0.2,1.789,1.62,4.293,2.929C420.851,52.615,423.208,52.861,423.193,53.199z"/>
					</g>
				</g>
			</g>
		</g>
	</g>
	<g>
		<g>
			<rect x="300.193" y="304.366" style="fill:#EBEBEB;" width="48.653" height="12.871"/>
		</g>
		<g>
			<g>
				<path style="fill:#E0E0E0;" d="M328.273,330.794c-0.005-0.005-0.01-0.084-0.015-0.234c-0.004-0.172-0.009-0.389-0.016-0.66
					c-0.009-0.606-0.021-1.45-0.036-2.533c-0.02-2.222-0.048-5.416-0.083-9.444l0.151,0.151c-11.109,0.022-28.776,0.057-48.65,0.097
					c0.11-0.11-0.25,0.247,0.245-0.247v0.003v0.007v0.013v0.026v0.052v0.104v0.207l0,0.414v0.825c0,0.549,0,1.096,0,1.642
					c0,1.091-0.001,2.174-0.001,3.248c-0.001,2.148-0.003,4.261-0.004,6.331l-0.242-0.242c13.854,0.044,25.977,0.082,34.671,0.11
					c4.331,0.029,7.806,0.053,10.234,0.069c1.181,0.014,2.105,0.024,2.767,0.032c0.298,0.007,0.536,0.012,0.724,0.016
					C328.181,330.783,328.268,330.788,328.273,330.794c0.005,0.005-0.071,0.01-0.225,0.016c-0.18,0.004-0.408,0.009-0.694,0.016
					c-0.649,0.008-1.557,0.018-2.715,0.032c-2.414,0.016-5.871,0.04-10.178,0.069c-8.737,0.028-20.919,0.066-34.84,0.11
					l-0.242,0.001l0-0.243c-0.001-2.07-0.003-4.183-0.004-6.331c0-1.074-0.001-2.157-0.001-3.248c0-0.545,0-1.093,0-1.642l0-0.825
					v-0.414v-0.207v-0.104v-0.052v-0.026v-0.013v-0.007v-0.003c0.496-0.496,0.139-0.138,0.251-0.248
					c19.874,0.04,37.541,0.075,48.65,0.097l0.152,0l-0.001,0.151c-0.036,4.066-0.064,7.29-0.083,9.534
					c-0.016,1.068-0.028,1.902-0.037,2.499c-0.006,0.26-0.012,0.468-0.016,0.634C328.283,330.73,328.278,330.799,328.273,330.794z"
					/>
			</g>
		</g>
	</g>
	<g>
		<g>
			<g>
				<path style="fill:#E0E0E0;" d="M269.115,415.875c-0.005-0.005-0.01-0.084-0.015-0.234c-0.004-0.172-0.009-0.389-0.016-0.66
					c-0.009-0.606-0.021-1.45-0.037-2.533c-0.02-2.222-0.048-5.416-0.083-9.444l0.151,0.151c-11.109,0.022-28.776,0.057-48.65,0.097
					c0.11-0.11-0.25,0.247,0.245-0.248v0.003v0.007v0.013v0.026v0.052v0.104l0,0.207v0.414v0.825c0,0.549,0,1.097,0,1.642
					c0,1.091-0.001,2.174-0.001,3.248c-0.001,2.148-0.003,4.261-0.004,6.331l-0.242-0.242c13.854,0.044,25.977,0.083,34.671,0.11
					c4.331,0.029,7.806,0.053,10.234,0.069c1.181,0.014,2.105,0.024,2.767,0.032c0.298,0.006,0.536,0.012,0.724,0.016
					C269.023,415.864,269.11,415.869,269.115,415.875c0.005,0.005-0.071,0.01-0.225,0.016c-0.18,0.004-0.408,0.009-0.694,0.016
					c-0.649,0.008-1.556,0.018-2.715,0.032c-2.414,0.016-5.871,0.04-10.178,0.069c-8.737,0.028-20.919,0.066-34.84,0.11
					l-0.242,0.001l0-0.243c-0.001-2.07-0.003-4.183-0.004-6.331c0-1.074-0.001-2.157-0.001-3.248c0-0.545,0-1.093,0-1.642l0-0.825
					v-0.414v-0.207v-0.104v-0.052v-0.026v-0.013v-0.007v-0.003c0.496-0.496,0.139-0.138,0.251-0.248
					c19.874,0.04,37.541,0.075,48.65,0.097l0.152,0l-0.001,0.151c-0.036,4.066-0.064,7.29-0.083,9.534
					c-0.016,1.068-0.028,1.901-0.037,2.499c-0.007,0.26-0.012,0.468-0.016,0.634C269.125,415.811,269.12,415.879,269.115,415.875z"
					/>
			</g>
		</g>
		<g>
			<g>
				<path style="fill:#E0E0E0;" d="M275.711,403.004c-0.006-0.006-0.012-0.089-0.019-0.245c-0.005-0.185-0.012-0.409-0.019-0.682
					c-0.011-0.633-0.026-1.494-0.044-2.581c-0.023-2.257-0.056-5.444-0.096-9.363l0.178,0.178c-7.573,0.018-17.875,0.043-29.23,0.07
					c-0.223,0.221,0.299-0.302,0.246-0.247v0.003v0.007v0.013v0.026v0.053v0.106l0,0.212v0.422l0,0.841c0,0.56,0,1.116-0.001,1.669
					c-0.001,1.106-0.002,2.199-0.002,3.276c-0.003,2.153-0.006,4.241-0.009,6.241l-0.236-0.236
					c8.439,0.045,15.704,0.084,20.911,0.112c2.568,0.027,4.626,0.049,6.091,0.065c0.684,0.012,1.229,0.022,1.643,0.03
					C275.501,402.984,275.702,402.994,275.711,403.004c0.01,0.01-0.172,0.019-0.531,0.029c-0.401,0.007-0.93,0.017-1.594,0.03
					c-1.452,0.016-3.492,0.038-6.038,0.065c-5.247,0.028-12.567,0.067-21.07,0.112l-0.236,0.001l0-0.237
					c-0.003-2-0.006-4.088-0.009-6.241c-0.001-1.077-0.002-2.17-0.002-3.276c0-0.553,0-1.11-0.001-1.669l0-0.841v-0.422v-0.212
					v-0.106v-0.053v-0.026v-0.013v-0.007v-0.003c-0.054,0.052,0.47-0.471,0.25-0.249c11.355,0.027,21.657,0.052,29.23,0.07l0.18,0
					l-0.002,0.178c-0.04,3.965-0.073,7.189-0.096,9.472c-0.019,1.07-0.034,1.917-0.044,2.541
					C275.736,402.72,275.724,403.016,275.711,403.004z"/>
			</g>
		</g>
	</g>
	<g>
		<g>
			<g>
				<path style="fill:#E0E0E0;" d="M104.669,132.425c-0.005-0.005-0.01-0.084-0.015-0.234c-0.004-0.172-0.009-0.389-0.016-0.66
					c-0.009-0.606-0.021-1.45-0.037-2.533c-0.02-2.222-0.048-5.416-0.083-9.444l0.151,0.151c-11.109,0.022-28.776,0.057-48.65,0.097
					c0.11-0.11-0.25,0.247,0.245-0.248v0.003v0.007v0.013v0.026v0.052v0.104l0,0.207v0.414v0.825c0,0.549,0,1.097,0,1.642
					c0,1.091-0.001,2.174-0.001,3.248c-0.001,2.148-0.003,4.261-0.004,6.331l-0.242-0.242c13.854,0.044,25.977,0.083,34.671,0.11
					c4.331,0.029,7.806,0.053,10.234,0.069c1.181,0.014,2.106,0.024,2.767,0.032c0.298,0.006,0.536,0.011,0.724,0.015
					C104.577,132.415,104.664,132.42,104.669,132.425c0.005,0.005-0.071,0.01-0.225,0.016c-0.18,0.004-0.408,0.009-0.694,0.016
					c-0.649,0.008-1.556,0.018-2.715,0.032c-2.414,0.016-5.871,0.04-10.178,0.069c-8.737,0.028-20.919,0.066-34.84,0.11
					l-0.242,0.001l0-0.243c-0.001-2.07-0.003-4.183-0.004-6.331c0-1.074-0.001-2.157-0.001-3.248c0-0.545,0-1.093,0-1.642l0-0.825
					v-0.414v-0.207v-0.104v-0.052v-0.026v-0.013v-0.007v-0.003c0.496-0.496,0.139-0.137,0.251-0.248
					c19.874,0.04,37.541,0.075,48.65,0.097l0.152,0l-0.001,0.151c-0.036,4.066-0.064,7.291-0.083,9.534
					c-0.016,1.068-0.028,1.902-0.037,2.499c-0.007,0.26-0.012,0.468-0.016,0.634C104.679,132.361,104.674,132.43,104.669,132.425z"
					/>
			</g>
		</g>
		<g>
			<g>
				<path style="fill:#E0E0E0;" d="M111.266,119.554c-0.006-0.006-0.012-0.089-0.019-0.245c-0.005-0.185-0.012-0.409-0.019-0.682
					c-0.011-0.633-0.026-1.494-0.044-2.581c-0.023-2.257-0.056-5.444-0.096-9.363l0.178,0.178c-7.573,0.018-17.875,0.043-29.23,0.07
					c-0.223,0.221,0.299-0.302,0.246-0.247v0.003v0.007v0.013v0.026v0.053v0.106l0,0.212v0.422l0,0.841c0,0.559,0,1.116-0.001,1.669
					c-0.001,1.106-0.002,2.199-0.002,3.276c-0.003,2.153-0.006,4.241-0.009,6.241l-0.236-0.236
					c8.439,0.045,15.704,0.084,20.911,0.112c2.568,0.028,4.626,0.049,6.091,0.065c0.684,0.012,1.229,0.022,1.643,0.03
					C111.055,119.535,111.256,119.544,111.266,119.554c0.01,0.01-0.172,0.019-0.531,0.029c-0.401,0.007-0.93,0.017-1.594,0.03
					c-1.452,0.016-3.492,0.038-6.037,0.065c-5.247,0.028-12.567,0.067-21.07,0.112l-0.236,0.001l0-0.237
					c-0.003-2-0.006-4.088-0.009-6.241c-0.001-1.077-0.002-2.17-0.002-3.276c0-0.553,0-1.11-0.001-1.669l0-0.841v-0.422v-0.212
					v-0.106v-0.053v-0.026v-0.013v-0.007v-0.003c-0.054,0.052,0.47-0.471,0.25-0.249c11.355,0.027,21.657,0.052,29.23,0.07
					l0.18,0.001l-0.002,0.178c-0.04,3.965-0.073,7.189-0.096,9.472c-0.019,1.07-0.034,1.917-0.044,2.541
					C111.29,119.271,111.278,119.566,111.266,119.554z"/>
			</g>
		</g>
	</g>
	<g>
		<g>
			<rect x="227.432" y="53.869" style="fill:#F5F5F5;" width="48.653" height="12.871"/>
		</g>
		<g>
			<g>
				<path style="fill:#E0E0E0;" d="M290.493,53.869c-0.005-0.005-0.01-0.084-0.015-0.234c-0.004-0.172-0.009-0.389-0.016-0.66
					c-0.009-0.606-0.021-1.45-0.036-2.533c-0.02-2.222-0.048-5.416-0.083-9.444l0.151,0.151c-11.109,0.022-28.776,0.058-48.65,0.097
					c0.11-0.11-0.25,0.247,0.245-0.248v0.003v0.007v0.013v0.026v0.052v0.104v0.207l0,0.414v0.825c0,0.549,0,1.097,0,1.642
					c0,1.091-0.001,2.174-0.001,3.248c-0.001,2.148-0.003,4.261-0.004,6.331l-0.242-0.242c13.854,0.044,25.977,0.083,34.671,0.11
					c4.331,0.029,7.806,0.053,10.234,0.069c1.181,0.014,2.106,0.024,2.767,0.032c0.298,0.007,0.536,0.012,0.724,0.016
					C290.401,53.859,290.488,53.864,290.493,53.869c0.005,0.005-0.071,0.01-0.225,0.016c-0.18,0.004-0.408,0.009-0.694,0.016
					c-0.649,0.008-1.556,0.018-2.715,0.032c-2.414,0.016-5.871,0.04-10.178,0.069c-8.737,0.028-20.919,0.066-34.84,0.11
					l-0.242,0.001l0-0.243c-0.001-2.07-0.003-4.183-0.004-6.331c0-1.074-0.001-2.157-0.001-3.248c0-0.545,0-1.093,0-1.642l0-0.825
					V41.41v-0.207v-0.104v-0.052v-0.026v-0.013v-0.007v-0.003c0.496-0.496,0.139-0.138,0.251-0.248
					c19.874,0.04,37.541,0.075,48.65,0.097l0.152,0l-0.001,0.151c-0.036,4.066-0.064,7.29-0.083,9.533
					c-0.016,1.068-0.028,1.902-0.037,2.499c-0.006,0.26-0.012,0.468-0.016,0.634C290.503,53.805,290.498,53.874,290.493,53.869z"/>
			</g>
		</g>
	</g>
	<g>
		<g>
			<path style="fill:#E0E0E0;" d="M470.282,355.41c-0.005-0.005-0.01-0.084-0.015-0.234c-0.004-0.172-0.009-0.389-0.016-0.66
				c-0.009-0.606-0.021-1.45-0.036-2.533c-0.02-2.222-0.048-5.416-0.083-9.444l0.151,0.151c-11.109,0.022-28.776,0.057-48.65,0.097
				c0.11-0.11-0.25,0.247,0.245-0.247v0.003v0.007v0.013v0.026v0.052v0.104v0.207l0,0.414v0.825c0,0.549,0,1.096,0,1.642
				c0,1.091-0.001,2.174-0.001,3.248c-0.001,2.148-0.003,4.261-0.004,6.331l-0.242-0.242c13.854,0.044,25.977,0.082,34.671,0.11
				c4.331,0.029,7.806,0.053,10.234,0.069c1.181,0.014,2.105,0.024,2.767,0.032c0.298,0.007,0.536,0.012,0.724,0.016
				C470.19,355.4,470.277,355.405,470.282,355.41c0.005,0.005-0.071,0.01-0.225,0.016c-0.18,0.004-0.408,0.009-0.694,0.016
				c-0.649,0.008-1.557,0.018-2.715,0.032c-2.414,0.016-5.871,0.04-10.178,0.069c-8.737,0.028-20.919,0.066-34.84,0.11l-0.242,0.001
				l0-0.243c-0.001-2.07-0.003-4.183-0.004-6.331c0-1.074-0.001-2.157-0.001-3.248c0-0.545,0-1.093,0-1.642l0-0.825v-0.414v-0.207
				v-0.104v-0.052v-0.026v-0.013v-0.007v-0.003c0.496-0.496,0.139-0.138,0.251-0.248c19.874,0.04,37.541,0.075,48.65,0.097l0.152,0
				l-0.001,0.151c-0.036,4.066-0.064,7.29-0.083,9.534c-0.016,1.068-0.028,1.902-0.037,2.499c-0.006,0.26-0.012,0.468-0.016,0.634
				C470.292,355.346,470.287,355.415,470.282,355.41z"/>
		</g>
	</g>
	<g>
		<rect x="428.317" y="213.946" style="fill:#F5F5F5;" width="48.653" height="12.871"/>
	</g>
</g>
<g id="Background_Simple" style="display:none;">
	<circle style="display:inline;fill:#F5F5F5;" cx="429.033" cy="229.058" r="16.145"/>
	<path style="display:inline;fill:#F5F5F5;" d="M259.927,107.921c2.671,2.908,5.964,4.819,9.236,6.32
		c15.646,7.175,31.812,5.209,44.771-1.824c18.143-9.846,24.292-19.57,26.046-35.354c1.914-9.397-8.872-27.754-18.029-29.61
		c-7.791-1.579-15.691-1.26-20.465,4.45c-6.334,7.575-8.311,20.581-17.351,23.927c-5.121,1.895-11.371,0.108-16.892,0.906
		c-5.833,0.843-10.826,4.879-12.538,11.128C252.993,94.113,254.952,102.504,259.927,107.921z"/>
	<path style="display:inline;fill:#F5F5F5;" d="M335.974,317.213c-4.245-10.062-12.668-17.228-25.86-19.194l0.289,0.089
		c-8.623-1.939-17.645-2.118-26.319-0.415c-10.232,2.008-20.102,6.689-27.307,14.225c-7.205,7.537-11.514,18.068-10.508,28.446
		c1.304,13.445,12.089,25.422,25.325,28.123c10.166,2.074,22.751-2.79,24.813-12.959c0.496-2.445,0.351-4.996,0.96-7.415
		c1.905-7.569,10.861-11.571,18.602-10.578c3.737,0.48,7.455,1.846,11.175,1.254c4.423-0.703,8.104-4.246,9.594-8.469
		C338.228,326.098,337.715,321.339,335.974,317.213z"/>
	<circle style="display:inline;fill:#F5F5F5;" cx="135.187" cy="99.781" r="21.622"/>
	<circle style="display:inline;fill:#F5F5F5;" cx="399.171" cy="99.781" r="9.509"/>
	<path style="display:inline;fill:#F5F5F5;" d="M255.239,189.512c-0.747-2.495-2.974-4.484-5.538-4.944
		c-1.184-0.212-2.403-0.12-3.589,0.077c-5.019,0.833-9.931,3.888-11.732,8.646c-1.451,3.832-2.068,7.8-1.364,11.799
		c0.121,1.502,0.355,2.986,0.954,4.455c0.862,2.115,3.281,4.473,5.415,5.288c2.106,0.804,4.621-0.063,6.1-1.764
		c1.479-1.701,2.014-4.076,1.836-6.323c-0.125-1.572-0.563-3.196-0.055-4.689c0.886-2.6,4.069-3.481,6.061-5.372
		C255.216,194.893,255.985,192.007,255.239,189.512z"/>
</g>
<g id="Floor">
	<g>
		<path style="fill:#263238;" d="M477.213,466.959c0,0.144-98.601,0.26-220.202,0.26c-121.644,0-220.223-0.117-220.223-0.26
			c0-0.144,98.579-0.26,220.223-0.26C378.612,466.698,477.213,466.815,477.213,466.959z"/>
	</g>
</g>
<g id="Plant">
	<g>
		<g>
			<g>
				<g>
					<path style="fill:#E8505B;" d="M400.807,376.588c-0.08-14.066-9.282-23.057-9.282-23.057
						C388.717,365.101,400.807,376.588,400.807,376.588z"/>
				</g>
				<g>
					<path style="fill:#E8505B;" d="M387.329,370.062c-12.931-5.537-24.846-0.687-24.846-0.687
						C371.971,376.563,387.329,370.062,387.329,370.062z"/>
				</g>
				<g>
					<path style="fill:#E8505B;" d="M385.796,362.564c2.247-10.871-3.38-19.312-3.38-19.312
						C378.349,351.727,385.796,362.564,385.796,362.564z"/>
				</g>
				<g>
					<path style="fill:#E8505B;" d="M437.908,335.517c-19.699,5.244-30.266,22.371-30.266,22.371
						C424.479,357.899,437.908,335.517,437.908,335.517z"/>
				</g>
				<g>
					<path style="fill:#E8505B;" d="M406.445,343.59c1.024-21.233-19.729-45.265-19.729-45.265
						C389.85,324.689,406.445,343.59,406.445,343.59"/>
				</g>
				<g>
					<path style="fill:#E8505B;" d="M406.547,283.118c-0.881,17.221,7.461,30.414,7.461,30.414
						C416.939,299.874,406.547,283.118,406.547,283.118z"/>
				</g>
				<g>
					<path style="fill:#E8505B;" d="M414.548,326.257c15.524-1.666,23.97-17.111,23.97-17.111
						C419.744,314.406,414.548,326.257,414.548,326.257z"/>
				</g>
				<g>
					<path style="fill:#E8505B;" d="M448.033,391.173c-11.864-7.559-24.408-4.701-24.408-4.701
						C431.824,395.1,448.033,391.173,448.033,391.173z"/>
				</g>
				<g>
					<path style="fill:#E8505B;" d="M407.805,398.141c2.943,8.116,10.432,11.752,10.432,11.752
						C417.573,402.729,407.805,398.141,407.805,398.141z"/>
				</g>
				<g>
					<path style="fill:#E8505B;" d="M409.801,395.856c8.83,5.435,18.567,3.313,18.567,3.313
						C422.39,392.94,409.801,395.856,409.801,395.856z"/>
				</g>
				<g>
					<g>
						<path style="fill:#263238;" d="M401.864,424.438c0.012,0,0.022-0.108,0.03-0.316c0.005-0.25,0.012-0.554,0.019-0.926
							c0.002-0.872,0.004-2.06,0.007-3.558c-0.015-1.545-0.015-3.434,0.032-5.628c0.035-2.194,0.04-4.691,0.157-7.45
							c0.133-5.52,0.525-12.085,1.09-19.362c0.632-7.272,1.514-15.25,2.73-23.584c2.454-16.676,5.805-31.58,8.5-42.288
							c1.357-5.353,2.502-9.674,3.337-12.648c0.39-1.447,0.7-2.593,0.927-3.435c0.09-0.361,0.164-0.656,0.224-0.898
							c0.047-0.203,0.065-0.31,0.054-0.313c-0.012-0.004-0.053,0.096-0.122,0.293c-0.079,0.238-0.174,0.526-0.291,0.879
							c-0.258,0.833-0.61,1.968-1.053,3.4c-0.916,2.952-2.134,7.257-3.554,12.6c-2.82,10.688-6.254,25.601-8.712,42.309
							c-1.218,8.351-2.083,16.347-2.681,23.634c-0.53,7.293-0.872,13.871-0.942,19.401c-0.085,2.764-0.056,5.265-0.054,7.461
							c-0.01,2.196,0.031,4.087,0.087,5.633c0.052,1.499,0.093,2.686,0.124,3.558c0.02,0.371,0.036,0.675,0.05,0.925
							C401.838,424.332,401.852,424.438,401.864,424.438z"/>
					</g>
				</g>
				<g>
					<g>
						<path style="fill:#263238;" d="M430.356,379.493c-0.109-0.159-6.384,3.953-14.014,9.183c-7.632,5.232-13.729,9.6-13.621,9.759
							c0.109,0.159,6.382-3.953,14.015-9.185C424.367,384.021,430.465,379.652,430.356,379.493z"/>
					</g>
				</g>
				<g>
					<g>
						<path style="fill:#263238;" d="M402.722,381.756c0.032-0.036-0.313-0.409-0.964-1.055c-0.771-0.742-1.702-1.64-2.794-2.691
							c-2.514-2.358-5.751-5.394-9.33-8.752c-3.581-3.357-6.818-6.392-9.331-8.749c-1.105-1.036-2.048-1.921-2.828-2.652
							c-0.674-0.621-1.063-0.948-1.097-0.915c-0.034,0.034,0.289,0.425,0.904,1.106c0.612,0.684,1.531,1.64,2.676,2.813
							c2.297,2.339,5.546,5.492,9.2,8.905c3.652,3.413,7.012,6.445,9.474,8.606c1.231,1.081,2.237,1.944,2.944,2.528
							C402.283,381.486,402.69,381.791,402.722,381.756z"/>
					</g>
				</g>
				<g>
					<path style="fill:#E8505B;" d="M450.287,369.431c0,0-16.043-0.306-22.829,12.323
						C427.458,381.754,441.143,382.204,450.287,369.431z"/>
				</g>
				<g>
					<path style="fill:#E8505B;" d="M428.377,362.991c0,0-13.064,9.317-10.984,23.502
						C417.392,386.494,428.649,378.698,428.377,362.991z"/>
				</g>
				<g>
					<path style="fill:#E8505B;" d="M359.571,340.032c0,0,5.154,17.959,21.533,21.185
						C381.104,361.217,376.917,345.833,359.571,340.032z"/>
				</g>
				<g>
					<path style="fill:#E8505B;" d="M435.503,273.268c0,0-20.468,13.351-18.202,35.067
						C417.3,308.336,434.922,297.185,435.503,273.268z"/>
				</g>
			</g>
			<g>
				<g>
					<path style="fill:#263238;" d="M367.379,392.027c-0.026,0.04,0.449,0.418,1.329,1.066c0.885,0.639,2.145,1.595,3.672,2.807
						c3.057,2.419,7.105,5.993,11.084,10.413c3.97,4.431,7.09,8.839,9.168,12.137c1.042,1.648,1.856,3.003,2.397,3.951
						c0.55,0.944,0.875,1.457,0.917,1.435c0.043-0.022-0.201-0.577-0.678-1.564c-0.469-0.991-1.222-2.389-2.216-4.08
						c-1.982-3.384-5.065-7.878-9.07-12.346c-4.012-4.458-8.149-8.005-11.301-10.338c-1.575-1.169-2.884-2.068-3.82-2.641
						C367.931,392.288,367.405,391.987,367.379,392.027z"/>
				</g>
			</g>
			<g>
				<path style="fill:#E8505B;" d="M385.19,405.362c2.611-13.822-4.699-24.407-4.699-24.407
					C378.29,396.175,385.19,405.362,385.19,405.362z"/>
			</g>
			<g>
				<path style="fill:#E8505B;" d="M371.417,397.853c-8.824-5.178-17.866-2.769-17.866-2.769
					C363.433,400.325,371.417,397.853,371.417,397.853z"/>
			</g>
		</g>
		<g>
			<g>
				<polygon style="fill:#263238;" points="383.838,465.156 417.583,465.117 427.154,420.284 376.841,420.284 				"/>
			</g>
			<g>
				
					<rect x="373.498" y="420.284" transform="matrix(-1 -1.224647e-16 1.224647e-16 -1 803.8381 848.3053)" style="fill:#263238;" width="56.842" height="7.737"/>
			</g>
			<g>
				<g>
					<path style="fill:#455A64;" d="M373.867,428.04c0,0.144,12.711,0.26,28.387,0.26c15.681,0,28.389-0.117,28.389-0.26
						c0-0.144-12.708-0.26-28.389-0.26C386.578,427.78,373.867,427.896,373.867,428.04z"/>
				</g>
			</g>
		</g>
	</g>
</g>
<g id="Notes">
	<g>
		<g>
			<path style="fill:#E8505B;" d="M349.597,215.198c5.836-0.782,10.544-5.47,13.036-10.805c2.492-5.335,3.169-11.306,3.92-17.146
				c0.751-5.84,1.657-11.818,4.531-16.957s8.156-9.335,14.044-9.262c5.888,0.073,11.593,5.681,10.388,11.445
				c-1.624,7.766-12.528,9.563-16.501,16.431c-2.393,4.136-1.831,9.4-3.797,13.755c-1.967,4.357-6.289,7.289-10.856,8.702
				C359.795,212.772,354.376,215.113,349.597,215.198"/>
			<path style="fill:#E8505B;" d="M241.938,263.947c8.898,4.213,20.911-0.742,24.252-10.003c2.82-7.819,0.017-17.109,3.955-24.429
				c6.459-12.006,25.185-9.986,35.012-19.436c6.151-5.915,7.574-15.146,7.885-23.674c0.311-8.528-0.067-17.442,3.616-25.14
				c3.683-7.698,13.22-13.458,20.853-9.642c4.011,2.005,6.535,6.107,8.279,10.239c6.042,14.314,4.825,31.482-3.176,44.801
				c-8.001,13.319-22.586,22.456-38.062,23.844c-5.727,0.514-12.125,0.247-16.414,4.077c-4.516,4.034-4.754,10.869-6.852,16.55
				c-2.534,6.86-8.286,12.452-15.214,14.792S248.112,267.866,241.938,263.947"/>
			<circle style="fill:#E8505B;" cx="358.66" cy="131.738" r="9.063"/>
			<g style="opacity:0.9;">
				<path style="fill:#FFFFFF;" d="M349.597,215.198c5.836-0.782,10.544-5.47,13.036-10.805c2.492-5.335,3.169-11.306,3.92-17.146
					c0.751-5.84,1.657-11.818,4.531-16.957s8.156-9.335,14.044-9.262c5.888,0.073,11.593,5.681,10.388,11.445
					c-1.624,7.766-12.528,9.563-16.501,16.431c-2.393,4.136-1.831,9.4-3.797,13.755c-1.967,4.357-6.289,7.289-10.856,8.702
					C359.795,212.772,354.376,215.113,349.597,215.198"/>
			</g>
			<g style="opacity:0.9;">
				<path style="fill:#FFFFFF;" d="M241.938,263.947c8.898,4.213,20.911-0.742,24.252-10.003c2.82-7.819,0.017-17.109,3.955-24.429
					c6.459-12.006,25.185-9.986,35.012-19.436c6.151-5.915,7.574-15.146,7.885-23.674c0.311-8.528-0.067-17.442,3.616-25.14
					c3.683-7.698,13.22-13.458,20.853-9.642c4.011,2.005,6.535,6.107,8.279,10.239c6.042,14.314,4.825,31.482-3.176,44.801
					c-8.001,13.319-22.586,22.456-38.062,23.844c-5.727,0.514-12.125,0.247-16.414,4.077c-4.516,4.034-4.754,10.869-6.852,16.55
					c-2.534,6.86-8.286,12.452-15.214,14.792S248.112,267.866,241.938,263.947"/>
			</g>
			<g style="opacity:0.9;">
				<circle style="fill:#FFFFFF;" cx="358.66" cy="131.738" r="9.063"/>
			</g>
		</g>
		<g>
			<path style="fill:#E8505B;" d="M404.732,130.586c-3.671,2.389-6.599,6.085-7.517,10.367c-0.918,4.283,0.392,9.108,3.732,11.942
				c1.993,1.69,4.61,2.664,6.207,4.732c4.087,5.293-1.025,13.521,1.937,19.517c1.753,3.549,6.167,5.309,10.061,4.605
				c3.895-0.704,7.189-3.503,9.215-6.904c2.025-3.401,2.917-7.359,3.384-11.289c0.972-8.183,0.507-17.541-4.335-24.209
				C422.575,132.678,412.12,126.935,404.732,130.586"/>
			<g style="opacity:0.9;">
				<path style="fill:#FFFFFF;" d="M404.732,130.586c-3.671,2.389-6.599,6.085-7.517,10.367c-0.918,4.283,0.392,9.108,3.732,11.942
					c1.993,1.69,4.61,2.664,6.207,4.732c4.087,5.293-1.025,13.521,1.937,19.517c1.753,3.549,6.167,5.309,10.061,4.605
					c3.895-0.704,7.189-3.503,9.215-6.904c2.025-3.401,2.917-7.359,3.384-11.289c0.972-8.183,0.507-17.541-4.335-24.209
					C422.575,132.678,412.12,126.935,404.732,130.586"/>
			</g>
		</g>
		<g>
			<path style="fill:#E8505B;" d="M294.624,258.205c8.145-9.414,17.919-19.61,30.367-19.575c8.674,0.025,16.953,5.21,25.551,4.071
				c10.351-1.372,19.501-11.679,29.452-8.513c7.15,2.275,10.526,11.471,7.917,18.506c-2.609,7.034-9.801,11.634-17.201,12.871
				c-7.4,1.237-14.987-0.397-22.118-2.732c-7.13-2.334-14.044-5.379-21.348-7.093c-10.287-2.414-21.203-2.087-31.327,0.938"/>
			<g style="opacity:0.9;">
				<path style="fill:#FFFFFF;" d="M294.624,258.205c8.145-9.414,17.919-19.61,30.367-19.575c8.674,0.025,16.953,5.21,25.551,4.071
					c10.351-1.372,19.501-11.679,29.452-8.513c7.15,2.275,10.526,11.471,7.917,18.506c-2.609,7.034-9.801,11.634-17.201,12.871
					c-7.4,1.237-14.987-0.397-22.118-2.732c-7.13-2.334-14.044-5.379-21.348-7.093c-10.287-2.414-21.203-2.087-31.327,0.938"/>
			</g>
		</g>
		<g>
			<g>
				<path style="fill:#E8505B;" d="M285.291,239.075c0.896,2.725-0.586,5.66-3.311,6.556c-2.725,0.896-5.66-0.586-6.556-3.311
					c-0.896-2.725,0.586-5.66,3.311-6.556C281.46,234.868,284.395,236.351,285.291,239.075z"/>
			</g>
			<g>
				<path style="fill:#E8505B;" d="M284.035,237.668c-0.178,0.264-4.735-2.771-9.553-7.42c-4.791-4.647-8.615-8.41-8.437-8.632
					c0.22-0.27,4.448,3.168,9.223,7.801C280.046,234.028,284.216,237.411,284.035,237.668z"/>
			</g>
			<g>
				<path style="fill:#E8505B;" d="M273.351,213.18c0.298,0.002,0.096,2.923-2.095,5.608c-2.165,2.708-4.977,3.521-5.042,3.23
					c-0.142-0.307,2.206-1.494,4.152-3.948C272.355,215.652,273.021,213.106,273.351,213.18z"/>
			</g>
			<g>
				<path style="fill:#E8505B;" d="M277.023,217.124c0.306-0.031,0.227,2.886-2.099,5.356c-2.298,2.497-5.202,2.784-5.192,2.477
					c-0.089-0.324,2.346-1.047,4.355-3.256C276.146,219.539,276.694,217.059,277.023,217.124z"/>
			</g>
		</g>
		<g>
			<g>
				<path style="fill:#263238;" d="M367.591,160.701c0.454,1.381-0.297,2.868-1.678,3.322c-1.381,0.454-2.868-0.297-3.322-1.678
					c-0.454-1.381,0.297-2.868,1.678-3.322C365.649,158.569,367.137,159.32,367.591,160.701z"/>
			</g>
			<g>
				<path style="fill:#263238;" d="M366.954,159.987c-0.09,0.134-2.399-1.404-4.841-3.76c-2.428-2.355-4.365-4.261-4.275-4.374
					c0.112-0.137,2.254,1.605,4.673,3.953C364.933,158.143,367.046,159.857,366.954,159.987z"/>
			</g>
			<g>
				<path style="fill:#263238;" d="M361.54,147.579c0.151,0.001,0.049,1.481-1.061,2.842c-1.097,1.372-2.522,1.784-2.555,1.637
					c-0.072-0.156,1.118-0.757,2.104-2C361.036,148.832,361.373,147.542,361.54,147.579z"/>
			</g>
			<g>
				<path style="fill:#263238;" d="M363.401,149.578c0.155-0.016,0.115,1.462-1.063,2.714c-1.164,1.265-2.636,1.41-2.631,1.255
					c-0.045-0.164,1.189-0.531,2.207-1.65C362.957,150.801,363.235,149.545,363.401,149.578z"/>
			</g>
		</g>
		<g>
			<g>
				<g>
					<path style="fill:#E8505B;" d="M286.336,167.117c-2.384,1.65-5.654,1.055-7.304-1.329c-1.65-2.384-1.055-5.654,1.329-7.304
						c2.384-1.65,5.654-1.055,7.304,1.329C289.314,162.197,288.719,165.467,286.336,167.117z"/>
				</g>
				<g>
					<path style="fill:#E8505B;" d="M287.34,165.496c-0.482-0.154,1.023-5.521,4.155-11.538c3.133-5.983,5.806-10.682,6.243-10.503
						c0.495,0.207-1.501,5.376-4.618,11.327C290.027,160.723,287.815,165.656,287.34,165.496z"/>
				</g>
				<g>
					<path style="fill:#E8505B;" d="M311.075,154.006c-0.013,0.426-4.398,0.37-8.838-2.544c-2.193-1.427-3.788-3.336-4.495-4.943
						c-0.747-1.613-0.563-2.78-0.346-2.785c0.281-0.038,0.549,0.918,1.466,2.149c0.885,1.243,2.393,2.763,4.383,4.061
						C307.216,152.581,311.196,153.445,311.075,154.006z"/>
				</g>
			</g>
			<g>
				<path style="fill:#E8505B;" d="M299.673,177.669c-2.384,1.65-5.654,1.055-7.304-1.329c-1.65-2.384-1.055-5.654,1.329-7.304
					c2.384-1.65,5.654-1.055,7.304,1.329C302.652,172.749,302.057,176.019,299.673,177.669z"/>
			</g>
			<g>
				<path style="fill:#E8505B;" d="M300.677,176.048c-0.482-0.154,1.023-5.521,4.155-11.538c3.133-5.983,5.807-10.683,6.243-10.503
					c0.495,0.207-1.501,5.376-4.619,11.327C303.365,171.274,301.153,176.207,300.677,176.048z"/>
			</g>
			<g>
				<path style="fill:#E8505B;" d="M309.573,157.261c0.038,0.475-4.154,0.697-8.412-1.889c-4.283-2.548-6.053-6.353-5.616-6.542
					c0.446-0.295,2.699,2.708,6.555,4.98C305.915,156.148,309.624,156.728,309.573,157.261z"/>
			</g>
		</g>
		<g>
			<g>
				<g>
					<path style="fill:#E8505B;" d="M321.915,231.582c-0.934,1.988-3.303,2.843-5.291,1.909c-1.988-0.934-2.843-3.303-1.909-5.291
						c0.934-1.988,3.303-2.843,5.291-1.909C321.994,227.225,322.849,229.594,321.915,231.582z"/>
				</g>
				<g>
					<path style="fill:#E8505B;" d="M321.956,230.137c-0.375,0.083-1.431-4.007-1.669-9.14c-0.225-5.112-0.262-9.208,0.093-9.257
						c0.403-0.053,1.062,4.093,1.285,9.179C321.9,225.987,322.328,230.061,321.956,230.137z"/>
				</g>
				<g>
					<path style="fill:#E8505B;" d="M333.133,213.577c0.154,0.284-2.74,1.916-6.758,1.697c-1.98-0.1-3.751-0.743-4.826-1.528
						c-1.104-0.772-1.427-1.607-1.286-1.693c0.17-0.132,0.709,0.392,1.779,0.85c1.053,0.478,2.62,0.899,4.417,0.993
						C330.063,214.111,332.999,213.163,333.133,213.577z"/>
				</g>
			</g>
			<g>
				<path style="fill:#E8505B;" d="M334.669,233.419c-0.934,1.988-3.303,2.843-5.291,1.909c-1.988-0.934-2.843-3.303-1.909-5.291
					c0.934-1.988,3.303-2.843,5.291-1.909C334.748,229.061,335.603,231.43,334.669,233.419z"/>
			</g>
			<g>
				<path style="fill:#E8505B;" d="M334.71,231.974c-0.375,0.083-1.431-4.007-1.669-9.14c-0.224-5.112-0.261-9.209,0.093-9.257
					c0.403-0.053,1.062,4.093,1.285,9.179C334.654,227.824,335.082,231.898,334.71,231.974z"/>
			</g>
			<g>
				<path style="fill:#E8505B;" d="M333.388,216.28c0.206,0.297-2.456,2.037-6.23,1.964c-3.776-0.039-6.384-1.858-6.169-2.149
					c0.18-0.363,2.799,0.747,6.19,0.768C330.568,216.943,333.219,215.912,333.388,216.28z"/>
			</g>
		</g>
		<g>
			<g>
				<g>
					<path style="fill:#263238;" d="M371.468,223.213c-0.831,0.514-1.921,0.257-2.435-0.574c-0.514-0.831-0.257-1.921,0.575-2.435
						c0.831-0.514,1.921-0.257,2.435,0.574C372.557,221.609,372.299,222.7,371.468,223.213z"/>
				</g>
				<g>
					<path style="fill:#263238;" d="M371.835,222.685c-0.16-0.06,0.441-1.84,1.599-3.811c1.159-1.959,2.14-3.494,2.284-3.426
						c0.163,0.078-0.599,1.783-1.752,3.732C372.822,221.126,371.992,222.747,371.835,222.685z"/>
				</g>
				<g>
					<path style="fill:#263238;" d="M380.023,219.232c-0.012,0.143-1.487,0.048-2.93-1.01c-0.713-0.519-1.217-1.189-1.427-1.742
						c-0.224-0.556-0.141-0.946-0.068-0.943c0.095-0.008,0.169,0.318,0.456,0.749c0.276,0.434,0.757,0.972,1.404,1.443
						C378.749,218.685,380.074,219.045,380.023,219.232z"/>
				</g>
			</g>
			<g>
				<path style="fill:#263238;" d="M375.773,226.997c-0.831,0.514-1.921,0.257-2.435-0.574c-0.514-0.831-0.257-1.921,0.574-2.435
					c0.831-0.514,1.921-0.257,2.435,0.574C376.862,225.393,376.604,226.483,375.773,226.997z"/>
			</g>
			<g>
				<path style="fill:#263238;" d="M376.139,226.469c-0.16-0.06,0.441-1.84,1.599-3.811c1.159-1.959,2.141-3.494,2.284-3.426
					c0.163,0.078-0.599,1.783-1.752,3.732C377.127,224.909,376.297,226.531,376.139,226.469z"/>
			</g>
			<g>
				<path style="fill:#263238;" d="M379.461,220.301c0.005,0.16-1.41,0.162-2.798-0.782c-1.397-0.932-1.926-2.244-1.776-2.3
					c0.155-0.092,0.861,0.958,2.119,1.79C378.249,219.863,379.487,220.123,379.461,220.301z"/>
			</g>
		</g>
		<g>
			<g>
				<g>
					<path style="fill:#263238;" d="M254.541,286.521c-1.248,0.772-2.885,0.385-3.657-0.863c-0.772-1.248-0.385-2.885,0.863-3.657
						c1.248-0.772,2.885-0.385,3.657,0.863C256.175,284.112,255.789,285.749,254.541,286.521z"/>
				</g>
				<g>
					<path style="fill:#263238;" d="M255.091,285.728c-0.24-0.091,0.662-2.764,2.402-5.723c1.74-2.942,3.214-5.247,3.43-5.145
						c0.245,0.117-0.899,2.678-2.631,5.604C256.574,283.385,255.327,285.821,255.091,285.728z"/>
				</g>
				<g>
					<path style="fill:#263238;" d="M267.388,280.542c-0.018,0.215-2.232,0.072-4.4-1.517c-1.071-0.779-1.828-1.785-2.142-2.616
						c-0.336-0.835-0.212-1.42-0.102-1.416c0.143-0.012,0.254,0.478,0.685,1.125c0.415,0.652,1.137,1.459,2.109,2.167
						C265.475,279.72,267.464,280.261,267.388,280.542z"/>
				</g>
			</g>
			<g>
				<path style="fill:#263238;" d="M261.006,292.203c-1.248,0.772-2.885,0.385-3.657-0.863c-0.772-1.248-0.385-2.885,0.863-3.657
					c1.248-0.772,2.885-0.385,3.657,0.863C262.64,289.794,262.254,291.431,261.006,292.203z"/>
			</g>
			<g>
				<path style="fill:#263238;" d="M261.556,291.41c-0.24-0.091,0.662-2.764,2.402-5.723c1.74-2.942,3.215-5.247,3.43-5.145
					c0.245,0.117-0.899,2.678-2.631,5.604C263.039,289.067,261.792,291.503,261.556,291.41z"/>
			</g>
			<g>
				<path style="fill:#263238;" d="M266.543,282.147c0.007,0.241-2.117,0.243-4.202-1.175c-2.098-1.4-2.893-3.369-2.667-3.454
					c0.233-0.137,1.293,1.439,3.182,2.689C264.724,281.489,266.583,281.879,266.543,282.147z"/>
			</g>
		</g>
	</g>
</g>
<g id="Character">
	<g>
		<g>
			<g>
				<g>
					<g>
						<g>
							<g>
								<path style="fill:#B78876;" d="M180.884,144.474l-2.991,16.565l1.331,16.477l11.343-2.728l6.187-7.213l5.189-6.049
									c0,0,9.002,5.75,16.08-2.079c3.418-3.781,9.821-12.137,15.53-19.768c6.139-8.207,4.948-19.751-2.739-26.531l-0.764-0.673
									c-8.659-6.781-19.255-3.215-25.794,5.628L180.884,144.474"/>
							</g>
						</g>
					</g>
				</g>
			</g>
			<g>
				<g>
					<g>
						<g>
							<g>
								<path style="fill:#AA6550;" d="M201.958,161.529c0,0-5.361-4.004-7.733-12.032c0,0-2.584,7.847,5.942,14.099
									L201.958,161.529z"/>
							</g>
						</g>
					</g>
				</g>
			</g>
			<g>
				<g>
					<g>
						<g>
							<g>
								<g>
									<g>
										<g>
											<g>
												<path style="fill:#263238;" d="M223.354,138.577c0.266-0.052,0.708,1.298,2.033,2.233
													c1.31,0.953,2.763,0.962,2.792,1.226c0.02,0.122-0.341,0.301-0.982,0.308c-0.633,0.011-1.555-0.195-2.376-0.783
													c-0.82-0.589-1.298-1.384-1.476-1.978C223.16,138.983,223.228,138.595,223.354,138.577z"/>
											</g>
										</g>
									</g>
								</g>
							</g>
						</g>
					</g>
				</g>
			</g>
			<g>
				<g>
					<g>
						<g>
							<g>
								<g>
									<g>
										<g>
											<g>
												<path style="fill:#263238;" d="M210.574,129.184c0.27-0.028,0.589,1.357,1.823,2.408
													c1.218,1.068,2.665,1.208,2.67,1.473c0.008,0.123-0.365,0.27-1.006,0.218c-0.632-0.046-1.531-0.334-2.296-0.994
													c-0.764-0.661-1.167-1.496-1.292-2.103C210.345,129.572,210.447,129.191,210.574,129.184z"/>
											</g>
										</g>
									</g>
								</g>
							</g>
						</g>
					</g>
				</g>
			</g>
			<g>
				<g>
					<g>
						<g>
							<g>
								<g>
									<g>
										<g>
											<path style="fill:#263238;" d="M212.743,144.644c0.055-0.074,0.927,0.462,2.29,1.386
												c0.339,0.242,0.687,0.439,0.927,0.274c0.271-0.16,0.436-0.609,0.605-1.104c0.371-1.009,0.76-2.066,1.167-3.175
												c1.694-4.492,3.212-8.075,3.393-8.006c0.18,0.07-1.046,3.768-2.74,8.26c-0.425,1.101-0.829,2.152-1.218,3.155
												c-0.194,0.456-0.345,1.035-0.914,1.361c-0.288,0.158-0.665,0.126-0.911,0.004c-0.252-0.115-0.43-0.266-0.592-0.392
												C213.457,145.386,212.687,144.717,212.743,144.644z"/>
										</g>
									</g>
								</g>
							</g>
						</g>
					</g>
				</g>
			</g>
			<g>
				<g>
					<g>
						<g>
							<path style="fill:#263238;" d="M212.991,124.784c0.341-0.322,1.694,0.591,3.497,1.239c1.79,0.685,3.412,0.875,3.46,1.341
								c0.016,0.22-0.41,0.47-1.156,0.574c-0.74,0.105-1.799,0.027-2.877-0.371c-1.077-0.401-1.93-1.032-2.423-1.595
								C212.995,125.407,212.836,124.94,212.991,124.784z"/>
						</g>
					</g>
				</g>
			</g>
			<g>
				<g>
					<g>
						<g>
							<path style="fill:#263238;" d="M228.715,134.018c0.464,0.043,0.741,1.191,1.447,2.334c0.666,1.168,1.541,1.96,1.356,2.388
								c-0.096,0.197-0.503,0.244-1.064,0.012c-0.556-0.227-1.236-0.766-1.708-1.559c-0.471-0.795-0.619-1.649-0.551-2.245
								C228.26,134.343,228.496,134.008,228.715,134.018z"/>
						</g>
					</g>
				</g>
			</g>
			<path style="fill:#B78876;" d="M199.735,124.534c-0.083-0.177-4.02-6.404-8.619-0.841c-4.599,5.564,1.935,9.033,2.077,8.882
				C193.334,132.423,199.735,124.534,199.735,124.534z"/>
			<g>
				<path style="fill:#AA6550;" d="M193.235,129.062c-0.01-0.038-0.153-0.012-0.379-0.073c-0.22-0.059-0.536-0.235-0.737-0.584
					c-0.409-0.702-0.133-2.044,0.669-3.069c0.404-0.518,0.909-0.912,1.418-1.163c0.507-0.267,1.005-0.333,1.344-0.141
					c0.351,0.175,0.414,0.526,0.352,0.739c-0.054,0.217-0.181,0.299-0.16,0.333c0.004,0.027,0.197,0.005,0.342-0.261
					c0.068-0.129,0.112-0.315,0.069-0.529c-0.044-0.219-0.194-0.437-0.419-0.585c-0.454-0.325-1.166-0.25-1.726,0.026
					c-0.585,0.258-1.164,0.691-1.618,1.273c-0.891,1.151-1.185,2.674-0.572,3.571c0.307,0.426,0.731,0.577,1.008,0.586
					C193.114,129.188,193.246,129.088,193.235,129.062z"/>
			</g>
			<path style="fill:#263238;" d="M244.285,123.518c-0.305-1.442-1.686-2.58-3.159-2.604c1.522-1.591,0.668-4.709-1.453-5.302
				c0.902-0.905,1.072-2.449,0.389-3.529c-0.684-1.08-2.152-1.587-3.356-1.158c0.581-2.939-2.36-5.991-5.319-5.52
				c-1.478-2.677-5.178-3.849-7.928-2.511c-1.85-1.465-4.625-1.633-6.637-0.4c-1.217-0.907-2.925-1.108-4.32-0.508
				c-1.395,0.6-2.423,1.978-2.603,3.485c-1.951-0.548-4.146,1.368-3.865,3.376c-1.15-0.314-2.464,0.09-3.239,0.995
				c-0.775,0.905-0.972,2.266-0.485,3.353c-0.883-0.604-2.13,0.167-2.569,1.143c-0.439,0.976,0.056,2.404-0.743,3.116
				c-0.536,0.478-1.688,2.68-1.014,4.885l-2.42,4.551l0,0c-0.18,1.116,1.262,1.733,1.936,0.824c0.343-0.462,0.654-0.847,0.961-0.85
				c0.868-0.008,1.737,0.072,2.563-0.195c1.128-0.364,2.359-0.559,3.342-1.236c0.89-0.613,1.524-1.775,1.133-2.783
				c1.207,0.516,2.651,0.095,3.682-0.717c1.031-0.812,1.735-1.959,2.417-3.08c1.007-1.655,2.013-3.31,3.02-4.965
				c2.003,1.682,4.98,2.107,7.374,1.053c0.446,2.318,3.303,3.815,5.463,2.863c-1.084,2.492,0.207,5.747,2.704,6.818
				c-1.202,0.93-0.11,3.744,0.73,5.011c0.841,1.267,3.535,1.076,3.535,1.076s0.277,3.423,1.68,3.924
				c1.376,0.492,3.898,0.398,4.174-1.263c0,0,1.611-0.895,2.297-2.152c0.687-1.257,0.794-2.945-0.129-4.04
				C243.786,126.559,244.589,124.96,244.285,123.518z"/>
			<g>
				<path style="fill:#AA6550;" d="M206.649,132.422c-0.129,0.061-0.319-0.072-0.349-0.313c-0.03-0.242,0.122-0.417,0.262-0.389
					c0.142,0.027,0.234,0.172,0.255,0.325C206.834,132.198,206.78,132.361,206.649,132.422z"/>
			</g>
			<g>
				<path style="fill:#AA6550;" d="M209.002,134.353c0.065,0.129-0.04,0.311-0.232,0.408c-0.193,0.097-0.402,0.071-0.466-0.057
					c-0.064-0.128,0.04-0.311,0.232-0.408C208.729,134.199,208.938,134.225,209.002,134.353z"/>
			</g>
			<g>
				<path style="fill:#AA6550;" d="M211.278,136.725c0.09,0.113,0.056,0.288-0.076,0.393c-0.131,0.104-0.31,0.098-0.4-0.015
					c-0.089-0.113-0.056-0.288,0.076-0.393C211.01,136.605,211.189,136.612,211.278,136.725z"/>
			</g>
			<g>
				<path style="fill:#AA6550;" d="M204.849,135.93c-0.144,0-0.26-0.147-0.26-0.328c0-0.181,0.117-0.328,0.26-0.328
					c0.144,0,0.26,0.147,0.26,0.328C205.11,135.784,204.993,135.93,204.849,135.93z"/>
			</g>
			<g>
				<path style="fill:#AA6550;" d="M208.101,137.72c0.038,0.139-0.099,0.274-0.308,0.3c-0.208,0.025-0.374-0.074-0.37-0.217
					c0.004-0.144,0.141-0.279,0.308-0.3C207.897,137.483,208.064,137.582,208.101,137.72z"/>
			</g>
			<g>
				<path style="fill:#AA6550;" d="M222.177,144.493c-0.136,0.044-0.316-0.142-0.342-0.424c-0.026-0.282,0.117-0.498,0.258-0.48
					c0.144,0.017,0.239,0.211,0.26,0.432C222.373,144.242,222.315,144.45,222.177,144.493z"/>
			</g>
			<g>
				<path style="fill:#AA6550;" d="M225.254,145.398c0.075,0.123-0.021,0.292-0.214,0.376c-0.194,0.084-0.382,0.037-0.421-0.102
					c-0.038-0.138,0.057-0.308,0.214-0.376C224.99,145.228,225.179,145.275,225.254,145.398z"/>
			</g>
			<g>
				<path style="fill:#AA6550;" d="M222.014,147.843c-0.133-0.056-0.142-0.281-0.019-0.501c0.123-0.221,0.319-0.331,0.436-0.248
					c0.117,0.083,0.127,0.308,0.019,0.501C222.342,147.788,222.146,147.899,222.014,147.843z"/>
			</g>
			<path style="fill:#263238;" d="M230.16,104.168c1.547,0.351,2.839,1.643,3.19,3.19c1.502-1.107,3.682-1.197,5.27-0.217
				c1.588,0.98,2.485,2.969,2.169,4.808c1.572-0.709,3.489-0.701,4.975,0.173c1.486,0.874,2.442,2.648,2.193,4.354
				c-0.249,1.706-1.788,3.179-3.512,3.203c2.239-0.328,4.532,1.633,4.555,3.895c0.023,2.263-2.229,4.271-4.474,3.989
				c1.048,0.65,1.377,2.222,0.678,3.238c-0.699,1.016-2.285,1.271-3.266,0.525c-0.714,1.476-3.021,1.422-4.211,0.295
				c-1.19-1.127-1.553-2.851-1.856-4.461"/>
			<g>
				<path style="fill:#455A64;" d="M245.396,119.554c0.018,0.001,0.025,0.146,0.02,0.427c-0.008,0.28-0.057,0.692-0.181,1.213
					c-0.272,1.014-0.921,2.534-2.474,3.731c-0.767,0.585-1.778,1.06-2.938,1.137c-1.155,0.088-2.401-0.24-3.5-0.916
					c-1.099-0.677-2.046-1.735-2.596-3.036c-0.286-0.646-0.448-1.368-0.435-2.113c0.01-0.735,0.245-1.554,0.873-2.104
					c0.641-0.541,1.547-0.622,2.267-0.343c0.74,0.258,1.307,0.903,1.532,1.603c0.463,1.405-0.001,2.956-1.015,3.838
					c-1.006,0.895-2.374,1.131-3.5,0.9c-1.122-0.225-2.098-0.635-2.928-1.128c-0.417-0.24-0.783-0.553-1.09-0.835
					c-0.318-0.284-0.615-0.559-0.875-0.837c-0.527-0.549-0.892-1.123-1.064-1.641c-0.167-0.521-0.165-0.951-0.132-1.229
					c0.037-0.28,0.081-0.421,0.096-0.418c0.071-0.003-0.128,0.609,0.227,1.577c0.361,0.949,1.514,2.057,3.025,3.065
					c0.797,0.448,1.762,0.828,2.816,1.02c1.031,0.195,2.237-0.044,3.104-0.831c0.866-0.756,1.255-2.133,0.854-3.314
					c-0.198-0.588-0.635-1.073-1.228-1.284c-0.58-0.223-1.281-0.145-1.751,0.253c-0.47,0.41-0.684,1.071-0.693,1.72
					c-0.012,0.654,0.127,1.311,0.388,1.904c0.5,1.2,1.368,2.188,2.381,2.827c1.013,0.637,2.159,0.954,3.218,0.891
					c1.063-0.052,2.008-0.469,2.746-1.002c1.493-1.09,2.176-2.523,2.498-3.491C245.343,120.143,245.344,119.55,245.396,119.554z"/>
			</g>
		</g>
		<g>
			<g>
				<polygon style="fill:#455A64;" points="160.015,219.613 177.503,228.421 170.823,242.664 152.084,242.664 154.776,227.079 				
					"/>
			</g>
			<polygon style="fill:#455A64;" points="186.39,182.967 194.331,174.329 192.832,171.91 187.005,179.145 			"/>
			<path style="fill:#455A64;" d="M187.055,177.443c-0.941-3.763-8.298-31.838-8.298-31.838s0.267-3.037-18.548-0.45
				c-1.255,0.173-17.254,4.621-22.428,10.266c-4.921,5.368-34.622,64.052-37.719,70.794v-0.001c0,0-1.994,1.914-2.533,1.997
				c-0.539,0.083-1.871,3.075-1.954,6.731c-0.083,3.656,0.697,4.121,0.697,4.121s31.28,16.934,52.918,15.287
				c0,0,9.988,0.089,10.128-4.728l-0.605-6.59l25.585-51.448C184.297,191.584,187.996,181.206,187.055,177.443z"/>
			<path style="fill:#455A64;" d="M176.744,143.592l6.544-4.368c0,0,0.46,3.543,2.577,8.717c2.515,6.147,5.932,16.989,5.932,16.989
				l0.179,2.828l-2.402-1.051c-0.544-0.238-1.152-0.285-1.725-0.133l-8.434,2.232c0,0-0.446-14.194-2.188-19.831
				C176.25,145.818,176.744,143.592,176.744,143.592z"/>
			<g>
				<path style="fill:#E8505B;" d="M194.01,175.629c-0.175-0.622-0.735-1.077-1.342-1.297c-0.608-0.22-1.267-0.243-1.913-0.263
					c0.78-0.105,1.053-1.243,0.571-1.865c-0.482-0.622-1.379-0.764-2.155-0.635c0.824-0.031,1.672-0.19,2.348-0.661
					c0.677-0.471,1.143-1.31,0.99-2.12c-0.153-0.81-0.878-1.923-2.492-2.085c-3.615-0.156-4.453,0.759-7.236,1.703
					c-0.89,0.302-1.859,0.753-2.169,1.64c-0.283,0.812,0.129,1.753,0.816,2.27c0.582,0.439,1.316,0.609,2.05,0.64
					c-0.341,0.076-0.646,0.361-0.723,0.711c-0.107,0.483,0.168,1.002,0.589,1.261c0.422,0.26,0.957,0.287,1.436,0.161
					c-0.922,0.403-1.341,1.592-1.046,2.554c0.295,0.963,1.169,1.672,2.13,1.972c0.961,0.3,2,0.242,2.99,0.059
					c1.257-0.231,2.484-0.66,3.571-1.331C193.386,177.752,194.315,176.713,194.01,175.629z"/>
				<g>
					<g>
						<path style="fill:#263238;" d="M189.98,170.989c0.104,0.082-1.065,1.313-3.025,1.818c-1.955,0.525-3.579,0.03-3.528-0.092
							c0.023-0.156,1.578,0.082,3.396-0.411C188.647,171.838,189.884,170.865,189.98,170.989z"/>
					</g>
					<g>
						<path style="fill:#263238;" d="M190.769,173.961c0.047,0.044-0.204,0.429-0.786,0.881c-0.575,0.45-1.513,0.933-2.643,1.08
							c-1.13,0.147-2.161-0.081-2.832-0.369c-0.678-0.287-1.019-0.596-0.985-0.65c0.057-0.145,1.65,0.784,3.749,0.503
							C189.374,175.14,190.677,173.835,190.769,173.961z"/>
					</g>
					<g>
						<path style="fill:#263238;" d="M186.699,179.491c-0.059,0.032-0.242-0.146-0.391-0.522c-0.149-0.37-0.238-0.951-0.086-1.563
							c0.152-0.612,0.503-1.083,0.809-1.34c0.308-0.262,0.553-0.334,0.59-0.278c0.09,0.117-0.643,0.712-0.893,1.744
							C186.465,178.561,186.834,179.43,186.699,179.491z"/>
					</g>
					<g>
						<path style="fill:#263238;" d="M190.199,177.66c-0.097,0.101-0.649-0.289-1.038-1.002c-0.393-0.712-0.425-1.387-0.288-1.414
							c0.144-0.034,0.39,0.524,0.745,1.164C189.966,177.049,190.305,177.556,190.199,177.66z"/>
					</g>
				</g>
			</g>
			<path style="fill:#263238;" d="M172.421,152.137c-3.727-5.142-8.533-7.427-8.533-7.427c-5.013,0.375-4.739,0.921-6.598,1.212
				c1.701-0.48,27.748,11.764,12.089,39.654c-15.918,28.351-33.449,59.499-33.449,59.499l1.155,1.91l1.746,2.888
				c0,0,26.199-47.364,31.779-57.264c5.58-9.899,7.218-15.111,7.453-22.139C178.298,163.445,176.148,157.279,172.421,152.137z"/>
			<g>
				<path style="fill:#263238;" d="M191.975,167.757c-0.023,0.029-0.285-0.196-0.853-0.445c-0.559-0.237-1.467-0.505-2.578-0.548
					c-1.108,0.041-2.446,0.553-3.976,0.927c-1.543,0.411-3.246,0.866-5.074,1.354l-0.343,0.091l0.036-0.356
					c0.191-1.899,0.248-3.99,0.176-6.162c-0.196-5.298-0.997-10.053-1.612-13.476c-0.311-1.639-0.57-3.002-0.769-4.053
					c-0.187-0.956-0.274-1.489-0.239-1.498c0.035-0.008,0.189,0.51,0.437,1.453c0.24,0.946,0.576,2.317,0.932,4.026
					c0.709,3.414,1.573,8.183,1.771,13.53c0.072,2.192,0.005,4.307-0.207,6.231l-0.307-0.264c1.835-0.462,3.545-0.892,5.093-1.281
					c0.762-0.188,1.484-0.366,2.161-0.533c0.67-0.166,1.316-0.307,1.92-0.295c1.199,0.092,2.076,0.412,2.65,0.706
					C191.761,167.471,191.99,167.744,191.975,167.757z"/>
			</g>
			<g>
				<path style="fill:#263238;" d="M176.744,206.773c0.016,0.009-0.057,0.171-0.208,0.471c-0.184,0.35-0.409,0.78-0.683,1.302
					c-0.638,1.195-1.499,2.807-2.546,4.767c-2.159,4.02-5.095,9.6-8.523,15.668c-0.858,1.517-1.719,2.986-2.571,4.394
					c-0.857,1.41-1.748,2.715-2.401,4.052c-0.661,1.327-1.086,2.696-1.068,4c0.006,1.302,0.444,2.484,0.758,3.581
					c0.319,1.093,0.568,2.15,0.447,3.089c-0.105,0.928-0.44,1.689-0.844,2.208c-0.406,0.524-0.885,0.774-1.209,0.872
					c-0.329,0.103-0.514,0.076-0.514,0.076c-0.044-0.068,0.809-0.04,1.56-1.069c0.355-0.504,0.645-1.234,0.717-2.114
					c0.087-0.88-0.171-1.874-0.51-2.954c-0.33-1.079-0.808-2.281-0.837-3.682c-0.039-1.394,0.4-2.844,1.068-4.216
					c0.662-1.383,1.556-2.708,2.397-4.107c0.842-1.406,1.697-2.872,2.554-4.387c3.361-6.056,6.404-11.536,8.653-15.588
					c1.116-1.991,2.04-3.592,2.692-4.689c0.308-0.503,0.561-0.917,0.768-1.255C176.625,206.909,176.728,206.764,176.744,206.773z"/>
			</g>
			<g>
				<path style="fill:#263238;" d="M150.822,242.113c0.035-0.041,0.629,0.421,1.173,1.479c0.543,1.034,0.953,2.741,0.474,4.528
					c-0.487,1.785-1.702,3.053-2.692,3.673c-1.003,0.64-1.749,0.739-1.759,0.687c-0.031-0.084,0.655-0.308,1.547-0.988
					c0.885-0.663,1.955-1.874,2.401-3.507c0.438-1.635,0.124-3.221-0.306-4.239C151.233,242.709,150.753,242.17,150.822,242.113z"/>
			</g>
			<g>
				<path style="fill:#263238;" d="M183.991,175.464c0.018,0.002-0.001,0.265-0.054,0.764c-0.05,0.5-0.132,1.236-0.306,2.175
					c-0.322,1.879-0.961,4.578-2.117,7.793c-1.158,3.213-2.847,6.919-4.956,10.901c-2.107,3.985-4.564,8.278-7.09,12.815
					c-5.092,9.028-9.701,17.197-13.069,23.168c-1.673,2.916-3.037,5.292-4.013,6.992c-0.463,0.785-0.834,1.413-1.114,1.888
					c-0.26,0.429-0.404,0.65-0.419,0.641c-0.016-0.009,0.098-0.247,0.328-0.692c0.259-0.487,0.601-1.13,1.029-1.936
					c0.94-1.719,2.255-4.123,3.868-7.073c3.334-5.99,7.896-14.186,12.936-23.243c2.526-4.537,4.997-8.826,7.12-12.785
					c2.126-3.958,3.839-7.627,5.034-10.804c1.192-3.178,1.881-5.844,2.263-7.703c0.204-0.928,0.318-1.657,0.401-2.151
					C183.919,175.72,183.973,175.462,183.991,175.464z"/>
			</g>
			<g>
				<path style="fill:#EBEBEB;" d="M159.095,202.698c-0.046,0.013,0.172-0.464,0.59-1.334c0.419-0.868,1.044-2.138,1.835-3.658
					l0.105-0.203l0.203,0.114c1.47,0.822,3.145,1.758,4.934,2.758l0.004,0.003l0.226,0.128l-0.126,0.225
					c-0.995,1.771-1.927,3.43-2.746,4.887l-0.114,0.203l-0.196-0.117c-1.48-0.887-2.686-1.647-3.504-2.172
					C159.488,203.005,159.049,202.711,159.095,202.698c0.046-0.013,0.573,0.255,1.445,0.712c0.872,0.46,2.08,1.105,3.497,1.904
					l-0.31,0.085c0.8-1.467,1.711-3.138,2.684-4.922l0.099,0.353l-0.004-0.003c-1.776-1.023-3.439-1.98-4.899-2.82l0.308-0.089
					c-0.784,1.413-1.469,2.585-1.968,3.427C159.448,202.185,159.141,202.685,159.095,202.698z"/>
			</g>
		</g>
		<g>
			<g>
				<g>
					<g>
						<path style="fill:#E8505B;" d="M82.035,411.904l-0.524,0.684l-10.086,13.169l-12.493,8.566l16.728,32.225l18.42,0.02
							c0,0-1.33-4.428-10.192-6.72l-0.582-17.689l15.91-17.477"/>
					</g>
				</g>
				<g style="opacity:0.6;">
					<g>
						<polygon style="fill:#FFFFFF;" points="58.932,434.323 75.66,466.548 94.08,466.569 92.007,463.798 77.03,462.959 
							61.59,432.501 						"/>
					</g>
				</g>
			</g>
			<g>
				<g>
					<g>
						<path style="fill:#263238;" d="M83.775,451.745c-0.136,0.188-1.198-0.416-2.623-0.377c-1.426-0.001-2.47,0.632-2.612,0.447
							c-0.173-0.139,0.866-1.242,2.601-1.257C82.876,450.526,83.944,451.601,83.775,451.745z"/>
					</g>
				</g>
			</g>
			<g>
				<g>
					<g>
						<path style="fill:#263238;" d="M83.481,447.357c-0.185,0.13-1.004-0.958-2.473-1.245c-1.466-0.303-2.642,0.384-2.762,0.193
							c-0.063-0.083,0.149-0.391,0.667-0.673c0.507-0.281,1.346-0.495,2.255-0.313c0.907,0.183,1.598,0.705,1.958,1.16
							C83.494,446.938,83.571,447.305,83.481,447.357z"/>
					</g>
				</g>
			</g>
			<g>
				<g>
					<g>
						<path style="fill:#263238;" d="M83.604,441.722c-0.202,0.101-0.829-0.963-2.112-1.408c-1.278-0.461-2.434-0.027-2.527-0.233
							c-0.049-0.093,0.184-0.349,0.694-0.54c0.501-0.191,1.296-0.276,2.103,0.009c0.807,0.285,1.372,0.852,1.641,1.315
							C83.681,441.335,83.701,441.681,83.604,441.722z"/>
					</g>
				</g>
			</g>
			<g>
				<g>
					<g>
						<path style="fill:#263238;" d="M88.537,437.357c-0.219,0.077-0.736-0.971-1.88-1.712c-1.122-0.774-2.287-0.852-2.3-1.083
							c-0.062-0.213,1.365-0.526,2.75,0.41C88.502,435.894,88.758,437.332,88.537,437.357z"/>
					</g>
				</g>
			</g>
			<g style="opacity:0.6;">
				<g>
					<path style="fill:#FFFFFF;" d="M73.626,433.773c0,1.207-0.978,2.185-2.185,2.185c-1.207,0-2.185-0.978-2.185-2.185
						c0-1.207,0.979-2.185,2.185-2.185C72.648,431.588,73.626,432.566,73.626,433.773z"/>
				</g>
			</g>
		</g>
		<g>
			<g>
				<g>
					<g>
						<g>
							<g>
								<path style="fill:#E8505B;" d="M190.29,430.904l-0.435,23.011c0,0,23.445,8.335,23.782,12.598l-45.031,0.445l-0.806-35.893
									L190.29,430.904z"/>
							</g>
						</g>
					</g>
					<g>
						<g>
							<g>
								<g>
									<path style="fill:#FFFFFF;" d="M175.897,452.118c-0.868,0.245-1.453,1.223-1.236,2.094
										c0.217,0.871,1.219,1.477,2.091,1.248c0.872-0.23,1.611-1.382,1.297-2.224c-0.314-0.842-1.529-1.49-2.318-1.06"/>
								</g>
							</g>
						</g>
					</g>
					<g style="opacity:0.6;">
						<g>
							<g>
								<path style="fill:#FFFFFF;" d="M168.605,466.959l0.062-3.62l43.152,0.927c0,0,2.02,0.845,1.817,2.248L168.605,466.959z"/>
							</g>
						</g>
					</g>
					<g>
						<g>
							<g>
								<g>
									<path style="fill:#263238;" d="M190.581,453.681c-0.003,0.218-1.101,0.328-2.171,1.04c-1.089,0.684-1.63,1.634-1.834,1.55
										c-0.203-0.04,0.102-1.347,1.413-2.186C189.291,453.233,190.625,453.48,190.581,453.681z"/>
								</g>
							</g>
						</g>
					</g>
					<g>
						<g>
							<g>
								<g>
									<path style="fill:#263238;" d="M195.337,455.572c0.054,0.211-0.892,0.591-1.623,1.521c-0.758,0.908-0.93,1.907-1.149,1.9
										c-0.206,0.036-0.38-1.239,0.551-2.378C194.037,455.468,195.329,455.364,195.337,455.572z"/>
								</g>
							</g>
						</g>
					</g>
					<g>
						<g>
							<g>
								<g>
									<path style="fill:#263238;" d="M198.117,461.151c-0.199,0.048-0.524-1.038,0.02-2.238c0.535-1.204,1.564-1.685,1.66-1.505
										c0.127,0.178-0.529,0.825-0.961,1.817C198.382,460.207,198.335,461.128,198.117,461.151z"/>
								</g>
							</g>
						</g>
					</g>
					<g>
						<g>
							<g>
								<g>
									<path style="fill:#263238;" d="M190.093,448.422c-0.089,0.2-1.103-0.091-2.344,0.005c-1.244,0.071-2.204,0.494-2.321,0.308
										c-0.13-0.156,0.8-0.973,2.264-1.066C189.154,447.565,190.198,448.249,190.093,448.422z"/>
								</g>
							</g>
						</g>
					</g>
				</g>
			</g>
		</g>
		<g>
			<g>
				<path style="fill:#263238;" d="M158.681,252.238c1.084,4.72,40.77,77.386,42.062,86.47c0.797,5.602-7.833,102.142-7.833,102.142
					l-28.117-0.218l3.248-96.307l-35.659-45.075l-12.611-47.566L158.681,252.238z"/>
				<path style="fill:#263238;" d="M96.272,239.063c0,0-6.57,22.801-5.411,28.568c1.852,9.214,33.674,82.452,33.674,82.452
					L73.11,417.861l20.969,21.375c0,0,55.655-66.769,60.974-74.742c5.231-7.841,1.951-17.135,1.387-21.486
					c-0.452-3.49-19.843-85.923-19.843-85.923L96.272,239.063z"/>
				<g>
					<path style="fill:#455A64;" d="M176.767,339.066c0.07,0.125-1.893,1.361-4.386,2.759c-2.493,1.399-4.571,2.431-4.641,2.305
						c-0.07-0.125,1.893-1.361,4.386-2.759C174.619,339.973,176.697,338.941,176.767,339.066z"/>
				</g>
				<g>
					<path style="fill:#455A64;" d="M123.348,404.815c-0.007-0.006,0.058-0.102,0.192-0.283c0.153-0.202,0.353-0.465,0.606-0.799
						c0.562-0.721,1.355-1.74,2.368-3.039c2.095-2.651,5.091-6.443,8.784-11.117c3.73-4.69,8.161-10.261,13.08-16.446
						c1.233-1.546,2.496-3.13,3.786-4.749c1.343-1.591,2.51-3.315,3.4-5.251c1.801-3.863,2.306-8.417,1.736-12.891
						c-0.135-0.971-0.31-1.945-0.546-2.805l-0.008-0.028l-0.003-0.028c-0.411-4.354-1.285-8.564-2.153-12.599
						c-0.89-4.034-1.81-7.907-2.741-11.578c-1.847-7.345-3.638-13.907-5.17-19.398c-1.534-5.49-2.819-9.908-3.712-12.955
						c-0.442-1.498-0.789-2.672-1.035-3.504c-0.109-0.38-0.195-0.681-0.262-0.913c-0.056-0.206-0.081-0.313-0.073-0.316
						c0.008-0.003,0.049,0.099,0.122,0.3c0.079,0.228,0.181,0.524,0.31,0.898c0.271,0.79,0.647,1.963,1.127,3.477
						c0.952,3.031,2.29,7.435,3.87,12.915c1.577,5.48,3.406,12.035,5.281,19.38c0.945,3.671,1.877,7.546,2.776,11.586
						c0.877,4.045,1.759,8.253,2.177,12.668l-0.01-0.055c0.251,0.913,0.424,1.889,0.564,2.886c0.581,4.559,0.064,9.21-1.788,13.171
						c-0.907,1.974-2.139,3.776-3.471,5.343c-1.295,1.615-2.563,3.196-3.801,4.739c-4.953,6.16-9.415,11.709-13.17,16.38
						c-3.749,4.632-6.789,8.389-8.915,11.016c-1.045,1.274-1.865,2.272-2.444,2.978c-0.27,0.32-0.483,0.573-0.646,0.766
						C123.434,404.735,123.355,404.82,123.348,404.815z"/>
				</g>
			</g>
			<g>
				<path style="fill:#455A64;" d="M99.855,432.581c-0.025,0.025-0.357-0.245-0.934-0.756c-0.649-0.592-1.455-1.327-2.409-2.198
					c-2.018-1.872-4.78-4.482-7.808-7.389c-3.029-2.908-5.751-5.561-7.703-7.501c-0.909-0.917-1.676-1.692-2.294-2.317
					c-0.534-0.556-0.817-0.875-0.793-0.902c0.024-0.026,0.355,0.243,0.931,0.753c0.649,0.592,1.454,1.327,2.408,2.197
					c2.018,1.872,4.782,4.484,7.812,7.393c3.03,2.908,5.753,5.563,7.705,7.502c0.908,0.917,1.675,1.692,2.293,2.316
					C99.598,432.236,99.881,432.555,99.855,432.581z"/>
			</g>
			<g>
				<path style="fill:#455A64;" d="M142.674,307.333c0.006-0.002,0.03,0.058,0.07,0.178c0.045,0.142,0.1,0.316,0.17,0.536
					c0.15,0.503,0.359,1.202,0.626,2.097c0.54,1.869,1.316,4.552,2.296,7.94c1.948,6.858,4.703,16.558,7.969,28.058l0.003,0.01
					l0.002,0.011c0.862,4.635-0.111,9.783-2.351,14.486c-2.232,4.745-5.661,9.044-9.242,13.295
					c-12.699,15.039-24.194,28.651-32.536,38.53c-4.168,4.896-7.547,8.866-9.905,11.637c-1.163,1.349-2.073,2.404-2.713,3.147
					c-0.3,0.34-0.537,0.608-0.716,0.81c-0.163,0.181-0.251,0.27-0.257,0.264c-0.007-0.006,0.067-0.107,0.217-0.299
					c0.169-0.21,0.392-0.489,0.676-0.843c0.623-0.758,1.508-1.835,2.639-3.21c2.329-2.797,5.664-6.803,9.779-11.744
					c8.313-9.905,19.766-23.551,32.419-38.628c3.578-4.246,6.977-8.509,9.182-13.177c2.214-4.629,3.172-9.669,2.349-14.185
					l0.005,0.021c-3.192-11.521-5.884-21.239-7.788-28.109c-0.925-3.403-1.659-6.098-2.169-7.975
					c-0.237-0.903-0.423-1.608-0.556-2.116c-0.055-0.224-0.098-0.402-0.134-0.546C142.679,307.398,142.668,307.335,142.674,307.333z
					"/>
			</g>
			<g>
				<path style="fill:#455A64;" d="M115.459,255.944c0.046,0.036-0.487,0.829-1.569,1.926c-1.077,1.096-2.747,2.454-4.827,3.565
					c-2.084,1.105-4.143,1.732-5.654,2.013c-1.514,0.285-2.469,0.284-2.473,0.225c-0.039-0.173,3.8-0.493,7.883-2.698
					C112.927,258.82,115.338,255.815,115.459,255.944z"/>
			</g>
			<g>
				<path style="fill:#455A64;" d="M193.867,432.909c-0.001,0.144-6.32,0.211-14.112,0.15c-7.795-0.061-14.111-0.227-14.11-0.37
					c0.001-0.144,6.319-0.211,14.114-0.15C187.551,432.599,193.868,432.765,193.867,432.909z"/>
			</g>
			<g>
				<path style="fill:#455A64;" d="M173.856,295.579c0.006-0.003,0.05,0.063,0.129,0.195c0.089,0.154,0.202,0.35,0.344,0.595
					c0.31,0.555,0.744,1.332,1.3,2.328c1.134,2.069,2.763,5.042,4.808,8.773c4.092,7.546,9.845,18.153,16.55,30.517l0.034,0.063
					l-0.005,0.072c-0.508,7.185-1.078,15.036-1.724,23.204c-1.544,19.711-3.346,37.523-4.935,50.381
					c-0.778,6.431-1.49,11.624-1.998,15.21c-0.263,1.768-0.469,3.152-0.613,4.125c-0.073,0.45-0.13,0.804-0.173,1.071
					c-0.042,0.241-0.068,0.364-0.076,0.362c-0.009-0.001-0.001-0.127,0.024-0.37c0.03-0.269,0.07-0.625,0.121-1.078
					c0.122-0.977,0.295-2.365,0.516-4.138c0.446-3.594,1.102-8.793,1.833-15.227c1.494-12.864,3.238-30.672,4.781-50.378
					c0.617-8.168,1.21-16.015,1.752-23.199l0.029,0.134c-6.638-12.399-12.334-23.037-16.385-30.605
					c-1.992-3.76-3.579-6.755-4.683-8.84c-0.526-1.012-0.937-1.802-1.23-2.366c-0.127-0.254-0.228-0.456-0.308-0.615
					C173.881,295.655,173.85,295.582,173.856,295.579z"/>
			</g>
		</g>
		<path style="fill:#B78876;" d="M176.999,228.377l7.243-3.489c0,0,5.149-0.952,6.329-1.171c1.18-0.218,4.394-2.033,4.394-2.033
			s1.048,1.47,0.486,2.628c-0.562,1.158-3.435,3.021-5.413,3.719c-1.979,0.699-2.412,2.554-2.233,3.519s8.213,8.849,8.213,8.849
			l-11.251,11.746l-9.084-8.257l-4.042-4.089L176.999,228.377z"/>
		<g>
			<g>
				<g>
					<path style="fill:#E8505B;" d="M229.837,195.414l-6.776-5.731l2.027-2.098c0.307-0.317,0.298-0.823-0.02-1.13
						c-0.318-0.307-0.823-0.298-1.13,0.02l-63.401,65.63c-0.307,0.317-0.298,0.824,0.02,1.13c0.318,0.307,0.823,0.298,1.13-0.02
						l2.726-2.822c0.032,0.04,0.053,0.086,0.093,0.12l7.176,6.07c0.344,0.291,0.861,0.24,1.142-0.113v0
						c0.269-0.338,0.22-0.829-0.109-1.108l-7.176-6.069c-0.012-0.01-0.028-0.013-0.04-0.023l8.431-8.727l7.063,5.974
						c0.344,0.291,0.861,0.24,1.142-0.113h0c0.269-0.338,0.22-0.829-0.109-1.108l-6.982-5.906l8.216-8.505l7.084,5.992
						c0.344,0.291,0.861,0.24,1.142-0.113c0.269-0.338,0.22-0.829-0.109-1.108l-7.004-5.924l5.902-6.11l6.922,5.854
						c0.344,0.291,0.861,0.24,1.142-0.113l0,0c0.269-0.338,0.22-0.829-0.109-1.108l-6.841-5.786l8.67-8.975
						c0.046,0.129,0.112,0.251,0.225,0.346l7.176,6.07c0.344,0.291,0.861,0.24,1.142-0.113h0c0.269-0.338,0.22-0.829-0.11-1.108
						l-7.176-6.07c-0.081-0.069-0.173-0.117-0.27-0.149l4.561-4.721l6.958,5.885c0.344,0.291,0.861,0.24,1.142-0.113
						c0.269-0.338,0.22-0.829-0.109-1.108l-6.877-5.817l7.456-7.719c0.032,0.041,0.053,0.087,0.095,0.122l7.176,6.07
						c0.344,0.291,0.861,0.24,1.142-0.113c0.269-0.338,0.22-0.829-0.109-1.108l-7.176-6.07c-0.013-0.011-0.029-0.014-0.043-0.024
						l6.69-6.925l6.857,5.799c0.344,0.291,0.861,0.24,1.142-0.113v0C230.215,196.184,230.167,195.693,229.837,195.414z"/>
					<g style="opacity:0.3;">
						<path d="M229.837,195.414l-6.776-5.731l2.027-2.098c0.307-0.317,0.298-0.823-0.02-1.13c-0.318-0.307-0.823-0.298-1.13,0.02
							l-63.401,65.63c-0.307,0.317-0.298,0.824,0.02,1.13c0.318,0.307,0.823,0.298,1.13-0.02l2.726-2.822
							c0.032,0.04,0.053,0.086,0.093,0.12l7.176,6.07c0.344,0.291,0.861,0.24,1.142-0.113v0c0.269-0.338,0.22-0.829-0.109-1.108
							l-7.176-6.069c-0.012-0.01-0.028-0.013-0.04-0.023l8.431-8.727l7.063,5.974c0.344,0.291,0.861,0.24,1.142-0.113h0
							c0.269-0.338,0.22-0.829-0.109-1.108l-6.982-5.906l8.216-8.505l7.084,5.992c0.344,0.291,0.861,0.24,1.142-0.113
							c0.269-0.338,0.22-0.829-0.109-1.108l-7.004-5.924l5.902-6.11l6.922,5.854c0.344,0.291,0.861,0.24,1.142-0.113l0,0
							c0.269-0.338,0.22-0.829-0.109-1.108l-6.841-5.786l8.67-8.975c0.046,0.129,0.112,0.251,0.225,0.346l7.176,6.07
							c0.344,0.291,0.861,0.24,1.142-0.113h0c0.269-0.338,0.22-0.829-0.11-1.108l-7.176-6.07c-0.081-0.069-0.173-0.117-0.27-0.149
							l4.561-4.721l6.958,5.885c0.344,0.291,0.861,0.24,1.142-0.113c0.269-0.338,0.22-0.829-0.109-1.108l-6.877-5.817l7.456-7.719
							c0.032,0.041,0.053,0.087,0.095,0.122l7.176,6.07c0.344,0.291,0.861,0.24,1.142-0.113c0.269-0.338,0.22-0.829-0.109-1.108
							l-7.176-6.07c-0.013-0.011-0.029-0.014-0.043-0.024l6.69-6.925l6.857,5.799c0.344,0.291,0.861,0.24,1.142-0.113v0
							C230.215,196.184,230.167,195.693,229.837,195.414z"/>
					</g>
					<path style="fill:#263238;" d="M215.865,151.532l-3.716-2.602c0,0-1.973,0.328-3.657-1.836l-0.971,0.859l5.868,6.324
						L215.865,151.532z"/>
					<path style="fill:#E8505B;" d="M231.594,185.9c0,0-72.881,75.194-86.76,90.857c-8.686,9.803-7.172,18.186-4.823,23.087
						c1.738,3.627,4.897,6.436,8.732,7.646c17.939,5.658,33.997-26.232,45.208-33.689c5.232-3.48,10.505-4.746,17.59-2.224
						c6.977,2.483,4.708,9.523,3.701,11.911c-0.311,0.736-0.392,1.564-0.14,2.323c0.807,2.434,3.42,0.548,3.42,0.548
						c11.64-12.929,15.074-24.249,17.251-31.764c2.015-6.96-1.592-8.319-3.301-4.911c-1.708,3.409-3.628,3.656-5.509,3.703
						c-1.881,0.047-10.025-5.085-22.342-2.197c-6.947,1.629-12.409,5.137-15.766,7.828c-9.288,6.844-22.291,22.573-26.757,28.126
						c-0.813,1.011-2.261,1.33-3.369,0.654c-1.345-0.821-1.626-2.618-0.646-3.806c4.891-5.932,18.713-22.732,21.28-26.241
						c3.13-4.28,52.044-60.426,56.328-65.689c0,0,4.624-5.404,2.866-10.997c-1.381-4.392-16.69-23.527-16.69-23.527l-2.715,2.683
						c0,0,13.429,18.025,14.127,20.416C234.252,183.971,231.594,185.9,231.594,185.9z"/>
					
						<rect x="215.595" y="151.564" transform="matrix(0.7112 -0.703 0.703 0.7112 -46.7368 197.9176)" style="fill:#E8505B;" width="3.817" height="8.55"/>
					<g>
						<path style="fill:#E8505B;" d="M233.388,198.762c-1.411,1.571-3.244,2.257-4.54,0.991c-1.296-1.266,1.117-4.066,1.117-4.066
							s2.525-2.699,3.923-1.546C235.285,195.295,234.8,197.191,233.388,198.762z"/>
						<g>
							<path style="fill:#263238;" d="M233.388,198.762c-0.031-0.028,0.137-0.247,0.4-0.659c0.245-0.414,0.622-1.043,0.725-1.877
								c0.043-0.412-0.007-0.871-0.234-1.283c-0.246-0.384-0.619-0.829-1.1-0.835c-0.492-0.043-1.048,0.214-1.557,0.539
								c-0.511,0.327-1.017,0.761-1.462,1.215c-0.403,0.491-0.781,1.041-1.051,1.584c-0.269,0.541-0.465,1.121-0.369,1.606
								c0.058,0.478,0.54,0.801,0.949,1.005c0.433,0.182,0.895,0.182,1.3,0.096c0.818-0.192,1.403-0.633,1.788-0.922
								C233.158,198.925,233.358,198.734,233.388,198.762c0.023,0.02-0.126,0.257-0.478,0.62c-0.36,0.344-0.925,0.86-1.835,1.128
								c-0.859,0.264-2.349,0.049-2.807-1.36c-0.139-0.685,0.102-1.336,0.381-1.929c0.295-0.602,0.666-1.153,1.122-1.707
								c0.502-0.511,1.01-0.939,1.576-1.297c0.56-0.341,1.181-0.65,1.877-0.586c1.45,0.304,1.823,1.763,1.652,2.645
								c-0.169,0.934-0.621,1.551-0.925,1.945C233.63,198.61,233.411,198.782,233.388,198.762z"/>
						</g>
					</g>
					<g>
						<path style="fill:#E8505B;" d="M226.172,206.533c-1.411,1.571-3.244,2.257-4.54,0.991c-1.296-1.266,1.117-4.066,1.117-4.066
							s2.526-2.699,3.923-1.546C228.069,203.066,227.583,204.962,226.172,206.533z"/>
						<g>
							<path style="fill:#263238;" d="M226.172,206.533c-0.031-0.028,0.137-0.247,0.4-0.659c0.245-0.414,0.622-1.043,0.725-1.877
								c0.043-0.412-0.007-0.871-0.234-1.282c-0.246-0.384-0.619-0.829-1.1-0.835c-0.492-0.043-1.048,0.214-1.557,0.539
								c-0.511,0.327-1.017,0.761-1.462,1.214c-0.403,0.491-0.781,1.041-1.051,1.584c-0.269,0.541-0.465,1.121-0.369,1.606
								c0.058,0.478,0.54,0.801,0.949,1.005c0.433,0.182,0.895,0.182,1.3,0.096c0.818-0.192,1.403-0.633,1.788-0.922
								C225.942,206.696,226.142,206.505,226.172,206.533c0.023,0.02-0.126,0.257-0.478,0.62c-0.359,0.344-0.925,0.86-1.835,1.128
								c-0.859,0.264-2.349,0.049-2.807-1.36c-0.139-0.685,0.102-1.336,0.381-1.93c0.295-0.602,0.666-1.153,1.122-1.707
								c0.502-0.512,1.01-0.939,1.577-1.297c0.56-0.341,1.181-0.65,1.877-0.586c1.45,0.304,1.823,1.763,1.652,2.645
								c-0.169,0.934-0.621,1.551-0.925,1.945C226.414,206.381,226.194,206.553,226.172,206.533z"/>
						</g>
					</g>
					<g>
						<path style="fill:#E8505B;" d="M218.158,216.27c-1.411,1.571-3.244,2.257-4.54,0.991c-1.296-1.266,1.117-4.066,1.117-4.066
							s2.526-2.699,3.923-1.546C220.055,212.803,219.569,214.698,218.158,216.27z"/>
						<g>
							<path style="fill:#263238;" d="M218.158,216.27c-0.031-0.028,0.137-0.247,0.4-0.659c0.245-0.414,0.622-1.043,0.725-1.877
								c0.043-0.412-0.007-0.871-0.234-1.282c-0.246-0.384-0.619-0.829-1.1-0.835c-0.492-0.043-1.048,0.214-1.557,0.539
								c-0.511,0.327-1.017,0.761-1.463,1.215c-0.403,0.491-0.781,1.041-1.051,1.584c-0.269,0.541-0.465,1.122-0.369,1.606
								c0.058,0.478,0.541,0.801,0.949,1.005c0.433,0.182,0.895,0.182,1.3,0.096c0.818-0.192,1.403-0.633,1.788-0.922
								C217.928,216.432,218.128,216.241,218.158,216.27c0.023,0.02-0.126,0.257-0.478,0.62c-0.359,0.344-0.924,0.86-1.835,1.128
								c-0.859,0.264-2.349,0.049-2.807-1.36c-0.139-0.685,0.102-1.336,0.381-1.929c0.295-0.602,0.666-1.153,1.122-1.707
								c0.502-0.512,1.01-0.939,1.576-1.297c0.56-0.341,1.181-0.65,1.877-0.585c1.45,0.304,1.823,1.762,1.652,2.645
								c-0.169,0.934-0.621,1.551-0.925,1.945C218.4,216.117,218.18,216.29,218.158,216.27z"/>
						</g>
					</g>
					<g>
						<path style="fill:#E8505B;" d="M212.015,223.018c-1.411,1.571-3.244,2.257-4.54,0.992c-1.296-1.266,1.117-4.066,1.117-4.066
							s2.525-2.699,3.923-1.546C213.912,219.551,213.426,221.447,212.015,223.018z"/>
						<g>
							<path style="fill:#263238;" d="M212.015,223.018c-0.031-0.028,0.137-0.247,0.4-0.659c0.245-0.414,0.622-1.043,0.725-1.877
								c0.043-0.412-0.007-0.871-0.234-1.283c-0.246-0.384-0.619-0.829-1.1-0.835c-0.492-0.043-1.048,0.214-1.557,0.539
								c-0.511,0.327-1.017,0.761-1.463,1.215c-0.403,0.491-0.781,1.041-1.051,1.584c-0.269,0.541-0.465,1.121-0.369,1.606
								c0.058,0.478,0.541,0.801,0.949,1.005c0.433,0.182,0.895,0.182,1.3,0.096c0.818-0.192,1.403-0.633,1.788-0.922
								C211.785,223.181,211.984,222.99,212.015,223.018c0.023,0.02-0.126,0.257-0.478,0.62c-0.36,0.344-0.925,0.86-1.835,1.128
								c-0.859,0.264-2.349,0.049-2.807-1.36c-0.139-0.685,0.102-1.336,0.381-1.929c0.295-0.602,0.666-1.153,1.122-1.707
								c0.502-0.512,1.01-0.939,1.576-1.297c0.56-0.341,1.181-0.65,1.877-0.586c1.449,0.304,1.823,1.762,1.652,2.645
								c-0.169,0.934-0.621,1.551-0.925,1.945C212.257,222.865,212.037,223.038,212.015,223.018z"/>
						</g>
					</g>
					<g>
						<path style="fill:#E8505B;" d="M203.862,232.802c-1.411,1.571-3.244,2.257-4.54,0.991c-1.296-1.266,1.117-4.066,1.117-4.066
							s2.526-2.699,3.923-1.546C205.759,229.335,205.274,231.23,203.862,232.802z"/>
						<g>
							<path style="fill:#263238;" d="M203.863,232.802c-0.031-0.028,0.137-0.247,0.4-0.659c0.245-0.414,0.622-1.043,0.725-1.877
								c0.043-0.412-0.007-0.871-0.234-1.282c-0.246-0.384-0.619-0.829-1.1-0.836c-0.492-0.043-1.048,0.214-1.557,0.539
								c-0.511,0.327-1.017,0.761-1.463,1.214c-0.403,0.491-0.781,1.041-1.051,1.584c-0.269,0.541-0.465,1.121-0.369,1.606
								c0.058,0.478,0.54,0.801,0.949,1.005c0.433,0.182,0.895,0.182,1.3,0.096c0.818-0.192,1.403-0.633,1.788-0.922
								C203.632,232.964,203.832,232.773,203.863,232.802c0.022,0.02-0.126,0.257-0.478,0.62c-0.359,0.344-0.924,0.86-1.835,1.128
								c-0.859,0.264-2.35,0.049-2.807-1.36c-0.139-0.685,0.102-1.336,0.381-1.93c0.295-0.602,0.666-1.153,1.122-1.707
								c0.502-0.512,1.01-0.939,1.576-1.297c0.56-0.341,1.181-0.65,1.877-0.585c1.45,0.304,1.823,1.762,1.652,2.645
								c-0.169,0.934-0.621,1.551-0.925,1.945C204.105,232.649,203.885,232.822,203.863,232.802z"/>
						</g>
					</g>
					<g>
						<path style="fill:#E8505B;" d="M196.838,240.239c-1.411,1.571-3.244,2.257-4.54,0.991c-1.296-1.266,1.117-4.066,1.117-4.066
							s2.526-2.699,3.923-1.546C198.735,236.772,198.249,238.667,196.838,240.239z"/>
						<g>
							<path style="fill:#263238;" d="M196.838,240.239c-0.031-0.028,0.137-0.247,0.4-0.659c0.245-0.414,0.622-1.043,0.725-1.877
								c0.043-0.412-0.007-0.871-0.234-1.283c-0.246-0.384-0.619-0.829-1.1-0.836c-0.492-0.043-1.048,0.214-1.557,0.539
								c-0.511,0.327-1.017,0.761-1.463,1.215c-0.403,0.491-0.78,1.041-1.051,1.584c-0.269,0.541-0.465,1.121-0.369,1.606
								c0.058,0.478,0.54,0.801,0.949,1.005c0.433,0.182,0.895,0.182,1.3,0.095c0.818-0.192,1.403-0.633,1.788-0.922
								C196.607,240.401,196.807,240.211,196.838,240.239c0.022,0.02-0.126,0.257-0.478,0.62c-0.36,0.344-0.925,0.86-1.835,1.128
								c-0.859,0.264-2.35,0.049-2.807-1.36c-0.139-0.685,0.102-1.336,0.381-1.93c0.295-0.601,0.666-1.153,1.121-1.707
								c0.502-0.512,1.01-0.939,1.577-1.297c0.56-0.341,1.181-0.65,1.877-0.586c1.45,0.304,1.823,1.762,1.652,2.645
								c-0.169,0.933-0.621,1.551-0.925,1.945C197.08,240.086,196.86,240.259,196.838,240.239z"/>
						</g>
					</g>
					<g>
						<g>
							<path style="fill:#E8505B;" d="M187.394,251.893c-1.411,1.571-3.244,2.257-4.54,0.992c-1.296-1.266,1.117-4.066,1.117-4.066
								s2.525-2.699,3.923-1.546C189.291,248.427,188.805,250.322,187.394,251.893z"/>
							<g>
								<path style="fill:#263238;" d="M187.394,251.893c-0.031-0.028,0.137-0.247,0.4-0.659c0.245-0.414,0.622-1.043,0.725-1.877
									c0.043-0.412-0.007-0.871-0.234-1.283c-0.246-0.384-0.619-0.829-1.1-0.836c-0.492-0.043-1.048,0.214-1.557,0.539
									c-0.511,0.327-1.017,0.761-1.463,1.215c-0.403,0.491-0.781,1.041-1.051,1.584c-0.269,0.541-0.465,1.121-0.369,1.606
									c0.058,0.478,0.541,0.801,0.949,1.005c0.433,0.182,0.895,0.182,1.3,0.095c0.818-0.191,1.403-0.633,1.788-0.922
									C187.163,252.056,187.363,251.865,187.394,251.893c0.023,0.02-0.126,0.257-0.478,0.62c-0.36,0.344-0.925,0.86-1.835,1.128
									c-0.859,0.264-2.349,0.049-2.807-1.36c-0.139-0.685,0.102-1.336,0.381-1.93c0.295-0.601,0.666-1.153,1.121-1.707
									c0.502-0.512,1.01-0.939,1.577-1.297c0.56-0.341,1.181-0.65,1.877-0.586c1.45,0.304,1.823,1.762,1.652,2.645
									c-0.169,0.934-0.621,1.551-0.925,1.945C187.636,251.741,187.416,251.914,187.394,251.893z"/>
							</g>
						</g>
					</g>
					<g>
						<path style="fill:#E8505B;" d="M179.694,261.288c-1.411,1.571-3.244,2.257-4.54,0.992c-1.296-1.266,1.117-4.066,1.117-4.066
							s2.525-2.699,3.923-1.546C181.59,257.821,181.105,259.717,179.694,261.288z"/>
						<g>
							<path style="fill:#263238;" d="M179.694,261.288c-0.031-0.027,0.137-0.246,0.4-0.659c0.245-0.414,0.622-1.043,0.725-1.877
								c0.043-0.412-0.007-0.871-0.234-1.282c-0.246-0.384-0.619-0.829-1.1-0.836c-0.492-0.043-1.048,0.214-1.557,0.539
								c-0.511,0.327-1.017,0.761-1.462,1.215c-0.403,0.491-0.781,1.041-1.051,1.584c-0.269,0.541-0.465,1.121-0.369,1.606
								c0.058,0.478,0.54,0.801,0.949,1.005c0.433,0.182,0.895,0.182,1.3,0.095c0.818-0.192,1.403-0.633,1.788-0.922
								C179.463,261.451,179.663,261.26,179.694,261.288c0.023,0.02-0.126,0.257-0.478,0.62c-0.359,0.344-0.925,0.86-1.835,1.128
								c-0.859,0.264-2.349,0.049-2.807-1.36c-0.139-0.685,0.102-1.336,0.381-1.929c0.295-0.602,0.666-1.153,1.122-1.707
								c0.502-0.512,1.01-0.939,1.576-1.297c0.56-0.341,1.181-0.65,1.877-0.586c1.449,0.304,1.823,1.762,1.652,2.645
								c-0.169,0.934-0.621,1.551-0.925,1.945C179.936,261.135,179.716,261.308,179.694,261.288z"/>
						</g>
					</g>
				</g>
				<g>
					<path style="fill:#263238;" d="M217.951,284.927c-0.035-0.008,0.056-0.553,0.251-1.533c0.188-0.982,0.523-2.39,0.994-4.115
						c0.937-3.45,2.539-8.146,4.887-13.081c2.358-4.932,5-9.133,7.091-12.032c1.044-1.452,1.927-2.598,2.572-3.362
						c0.639-0.769,1.005-1.182,1.033-1.16c0.028,0.022-0.285,0.479-0.873,1.284c-0.594,0.8-1.43,1.976-2.43,3.449
						c-2.005,2.941-4.58,7.144-6.923,12.046c-2.333,4.904-3.979,9.55-5.003,12.959c-0.514,1.704-0.903,3.094-1.15,4.059
						C218.144,284.404,217.986,284.935,217.951,284.927z"/>
				</g>
				<g style="opacity:0.3;">
					<path d="M233.589,251.417c-5.514,5.189-8.803,12.296-11.342,19.43c-1.381,3.881-2.579,7.826-3.59,11.819
						c7.292-7.589,11.127-17.762,14.778-27.633c0.472-1.275,0.933-2.744,0.283-3.938"/>
				</g>
				<g style="opacity:0.3;">
					<path d="M233.279,180.637c0.626,2.111-0.587,4.359-1.684,5.263c0,0-72.881,75.194-86.76,90.857
						c-8.686,9.803-7.172,18.186-4.823,23.087c1.738,3.627,4.897,6.436,8.732,7.646c17.939,5.658,33.997-26.232,45.208-33.689
						c5.232-3.48,10.505-4.746,17.59-2.224c0,0-8.538-4.583-16.497-0.712s-26.899,30.692-37.13,32.489
						c-10.23,1.797-17.419-2.765-17.281-10.922c0.138-8.157,4.009-12.028,6.083-14.102c2.074-2.074,25.3-28.066,25.3-28.066
						s60.54-62.069,61.477-64.033C235.028,183.015,233.279,180.637,233.279,180.637z"/>
				</g>
				<g>
					<path style="fill:#FFFFFF;" d="M221.994,253.764c-0.02,0.051-0.853-0.285-2.4-0.734c-1.543-0.461-3.849-0.912-6.723-1
						c-2.874-0.101-6.311,0.302-9.969,1.339c-3.653,1.049-7.506,2.78-11.181,5.18c-3.662,2.433-6.835,5.201-9.532,7.896
						c-2.701,2.696-4.962,5.294-6.822,7.506c-1.859,2.214-3.328,4.037-4.352,5.29c-0.487,0.59-0.881,1.066-1.187,1.437
						c-0.276,0.325-0.427,0.491-0.441,0.479c-0.014-0.011,0.11-0.198,0.359-0.544c0.286-0.386,0.655-0.882,1.111-1.497
						c0.975-1.292,2.4-3.152,4.227-5.4c1.828-2.247,4.067-4.879,6.766-7.61c2.694-2.729,5.884-5.534,9.585-7.992
						c3.721-2.431,7.629-4.17,11.337-5.207c3.713-1.026,7.203-1.395,10.112-1.246c2.91,0.136,5.232,0.65,6.769,1.174
						c0.784,0.216,1.351,0.508,1.751,0.654C221.798,253.654,222.001,253.747,221.994,253.764z"/>
				</g>
				<g>
					<path style="fill:#FFFFFF;" d="M232.889,197.857c-0.084-0.121,0.374-0.57,0.509-1.299c0.163-0.724-0.081-1.317,0.044-1.395
						c0.102-0.107,0.666,0.552,0.466,1.5C233.718,197.611,232.941,197.995,232.889,197.857z"/>
				</g>
				<g>
					<path style="fill:#FFFFFF;" d="M225.631,205.266c-0.101-0.108,0.234-0.574,0.324-1.235c0.111-0.658-0.07-1.203,0.059-1.276
						c0.11-0.091,0.59,0.499,0.456,1.354C226.343,204.965,225.709,205.386,225.631,205.266z"/>
				</g>
				<g>
					<path style="fill:#FFFFFF;" d="M217.208,215.367c-0.077-0.125,0.459-0.575,0.657-1.361c0.226-0.779-0.011-1.437,0.119-1.507
						c0.058-0.032,0.215,0.103,0.336,0.403c0.122,0.296,0.176,0.76,0.047,1.24c-0.13,0.479-0.411,0.852-0.666,1.046
						C217.446,215.387,217.242,215.424,217.208,215.367z"/>
				</g>
				<g>
					<path style="fill:#FFFFFF;" d="M210.649,222.464c-0.071-0.13,0.5-0.554,0.768-1.334c0.294-0.771,0.126-1.463,0.263-1.517
						c0.118-0.087,0.587,0.714,0.227,1.694C211.557,222.291,210.685,222.607,210.649,222.464z"/>
				</g>
				<g>
					<path style="fill:#FFFFFF;" d="M203.595,230.92c-0.099-0.109,0.118-0.466,0.229-0.932c0.125-0.463,0.105-0.88,0.244-0.929
						c0.128-0.06,0.423,0.426,0.261,1.057C204.17,230.747,203.679,231.034,203.595,230.92z"/>
				</g>
				<g>
					<path style="fill:#FFFFFF;" d="M195.464,239.797c-0.076-0.122,0.404-0.563,0.449-1.313c0.08-0.747-0.32-1.261-0.225-1.369
						c0.043-0.049,0.233,0.017,0.429,0.263c0.196,0.241,0.354,0.672,0.315,1.149c-0.04,0.477-0.267,0.876-0.501,1.081
						C195.697,239.819,195.498,239.852,195.464,239.797z"/>
				</g>
				<g>
					<path style="fill:#FFFFFF;" d="M186.055,251.804c-0.13-0.061,0.028-0.676,0.354-1.374c0.326-0.698,0.696-1.215,0.826-1.154
						c0.13,0.061-0.028,0.676-0.354,1.374C186.555,251.348,186.186,251.865,186.055,251.804z"/>
				</g>
				<g>
					<path style="fill:#FFFFFF;" d="M235.49,187.394c-0.132-0.089,1.134-1.576,1.352-3.855c0.267-2.275-0.657-3.995-0.509-4.054
						c0.052-0.031,0.364,0.348,0.652,1.081c0.289,0.728,0.501,1.825,0.376,3.028c-0.13,1.202-0.569,2.23-1.005,2.881
						C235.92,187.131,235.535,187.435,235.49,187.394z"/>
				</g>
			</g>
			<g>
				<path style="fill:#B78876;" d="M208.942,151.155c0.904-0.369,0.262-1.983-0.253-2.812c0.845,0.42,1.778,0.852,2.696,0.636
					c0.255-0.06,0.51-0.18,0.657-0.396c0.286-0.423,0.052-0.995-0.224-1.425c-0.44-0.682-0.98-1.3-1.598-1.826l-3.382,3.105
					C206.838,148.438,207.408,151.781,208.942,151.155z"/>
				<g>
					<path style="fill:#AA6550;" d="M210.321,146.407c0.04-0.051,0.491,0.202,1.041,0.824c0.238,0.323,0.65,0.661,0.693,1.37
						c-0.003,0.178-0.068,0.375-0.204,0.528c-0.138,0.152-0.308,0.23-0.462,0.286c-0.317,0.117-0.68,0.124-1.006,0.069
						c-0.658-0.114-1.21-0.394-1.665-0.731l0.346-0.32c0.791,1.606,0.165,2.862,0.033,2.741c-0.049-0.034,0.069-0.275,0.043-0.736
						c-0.025-0.442-0.124-1.142-0.484-1.752c-0.068-0.115-0.029-0.263,0.085-0.33c0.083-0.049,0.186-0.04,0.261,0.01
						c0.402,0.27,0.92,0.513,1.464,0.604c0.521,0.098,1.132-0.066,1.111-0.391c0.019-0.38-0.302-0.806-0.505-1.121
						C210.627,146.815,210.27,146.466,210.321,146.407z"/>
				</g>
			</g>
		</g>
		<g>
			<path style="fill:#B78876;" d="M197.464,243.188c-0.382-1.148-0.881-2.254-1.422-3.336c-0.444-0.887-0.957-1.802-1.813-2.303
				c-0.856-0.5-2.147-0.386-2.619,0.486c-0.293,0.54-0.203,1.204-0.045,1.798c0.301,1.131,0.823,2.203,1.527,3.138
				c-0.72-0.556-1.267-1.323-2.036-1.809c-0.769-0.486-1.927-0.58-2.478,0.143c-0.562,0.737-0.164,1.798,0.313,2.593
				c0.662,1.101,1.45,2.126,2.344,3.049c0.454,0.643,1.393,0.734,2.179,0.687c0.205-0.012,0.424-0.06,0.561-0.212
				c0.126-0.139,0.159-0.338,0.183-0.524c0.11-0.858,0.145-1.726,0.104-2.59c0.42,0.453,0.858,0.919,1.428,1.159
				c0.57,0.24,1.311,0.189,1.706-0.286C197.84,244.646,197.683,243.848,197.464,243.188z"/>
			<path style="fill:#B78876;" d="M199.582,235.85c-0.221-0.328-0.453-0.658-0.774-0.889c-0.5-0.359-1.194-0.426-1.754-0.17
				c-0.559,0.256-0.963,0.825-1.019,1.438c-0.052,0.573,0.176,1.13,0.412,1.655c0.327,0.728,0.711,1.458,1.292,1.994
				c0.313,0.78,1.32,1.135,2.155,0.946c0.192-0.044,0.383-0.111,0.539-0.232c0.298-0.231,0.424-0.622,0.466-0.996
				C201.051,238.252,200.338,236.973,199.582,235.85z"/>
			<path style="fill:#B78876;" d="M191.458,247.815c-0.266-1.326-1.337-2.327-2.399-3.165c-0.31-0.245-0.633-0.488-1.009-0.61
				c-0.586-0.189-1.268-0.041-1.722,0.373c-0.455,0.415-0.665,1.08-0.531,1.68c0.125,0.561,0.513,1.023,0.898,1.45
				c0.534,0.593,1.123,1.171,1.839,1.505c0.537,0.647,1.604,0.677,2.341,0.242c0.17-0.1,0.331-0.222,0.443-0.385
				C191.532,248.595,191.532,248.184,191.458,247.815z"/>
			<g>
				<path style="fill:#AA6550;" d="M191.343,247.083c-0.116,0.087-0.567-0.319-1.058-0.863c-0.49-0.546-0.846-1.037-0.747-1.143
					c0.097-0.104,0.627,0.23,1.135,0.795C191.18,246.436,191.457,246.998,191.343,247.083z"/>
			</g>
			<g>
				<path style="fill:#AA6550;" d="M194.5,244.385c-0.132,0.037-0.425-0.29-0.953-0.629c-0.545-0.342-0.894-0.87-0.752-0.958
					c0.115-0.066,0.497,0.177,1.054,0.534C194.436,243.7,194.664,244.34,194.5,244.385z"/>
			</g>
		</g>
		<g>
			<path style="fill:#B78876;" d="M146.414,262.674l14.812-2.923l9.372,3.779l3.255,4.269c0,0,0.105,4.655-0.84,4.97
				c-0.009,0.003-0.019,0.006-0.028,0.009c-0.93,0.298-1.876-0.436-1.91-1.411l-0.057-1.643l-1.05-0.315l-0.34,5.687
				c-0.045,0.757-0.672,1.347-1.43,1.347h-0.226l-0.21,3.884c0,0-0.42,0.63-1.68,0c-1.26-0.63-2.415-2.73-2.415-2.73l-0.63-2.31
				l-3.255-3.779c0,0,4.724,8.504,4.199,9.869c-0.525,1.365-1.26,1.68-1.995,1.155c-0.735-0.525-5.669-9.029-5.669-9.029
				s-4.514-0.525-4.829-0.63c-0.315-0.105-8.609,2.134-9.764,1.399c-1.155-0.735-3.989-2.52-3.989-2.52L146.414,262.674z"/>
			<g>
				<path style="fill:#AA6550;" d="M159.703,266.822c-0.008-0.056,0.875-0.121,2.113,0.47c1.234,0.576,2.693,1.814,3.881,3.488
					c1.199,1.674,1.851,3.462,2.083,4.781c0.254,1.323,0.141,2.161,0.089,2.157c-0.091,0.004-0.111-0.818-0.448-2.077
					c-0.316-1.258-0.994-2.947-2.148-4.56c-1.145-1.614-2.504-2.839-3.627-3.463C160.522,266.977,159.689,266.908,159.703,266.822z"
					/>
			</g>
			<g>
				<path style="fill:#AA6550;" d="M163.518,263.151c0.034-0.063,0.696,0.219,1.737,0.726c0.582,0.293,1.186,0.597,1.817,0.915
					c0.348,0.182,0.702,0.366,1.064,0.556c0.364,0.195,0.775,0.399,1.134,0.742c0.741,0.729,0.807,1.737,0.786,2.499
					c-0.026,0.706-0.05,1.382-0.073,2.032c-0.057,1.155-0.128,1.871-0.2,1.871c-0.072,0-0.131-0.716-0.169-1.876
					c-0.012-0.652-0.025-1.329-0.038-2.035c0-0.726-0.103-1.575-0.667-2.116c-0.584-0.517-1.424-0.856-2.064-1.25
					c-0.613-0.352-1.199-0.689-1.764-1.013C164.084,263.611,163.484,263.215,163.518,263.151z"/>
			</g>
		</g>
		<g>
			<path style="fill:#455A64;" d="M150.451,150.765c0,0-11.105,0.582-16.721,8.038c-5.616,7.456-37.208,45.086-36.202,53.738
				c1.006,8.653,12.677,37.831,20.928,46.685c8.25,8.854,17.863,14.267,17.863,14.267l10.318-10.708l-11.278-18.651
				c0,0-1.409-8.25-1.811-9.055c-0.402-0.805-3.018-1.61-3.018-1.61l-4.427-19.318l2.012-0.402l25.355-24.55l8.25-3.622
				c0,0,11.233-13.544,5.634-25.958C162.726,149.356,156.792,151.771,150.451,150.765z"/>
			<g>
				<path style="fill:#263238;" d="M112.966,204.659c0.001-0.036,0.242-0.056,0.682-0.061c0.44-0.015,1.077,0.039,1.854,0.17
					c1.552,0.257,3.67,0.988,5.634,2.414c1.96,1.434,3.308,3.218,4.046,4.605c0.371,0.695,0.627,1.28,0.757,1.7
					c0.139,0.417,0.198,0.652,0.164,0.664c-0.086,0.033-0.433-0.87-1.239-2.179c-0.802-1.307-2.146-2.986-4.035-4.369
					c-1.895-1.374-3.907-2.132-5.401-2.474C113.93,204.782,112.962,204.753,112.966,204.659z"/>
			</g>
			<g>
				<path style="fill:#263238;" d="M156.972,184.673c0,0-0.162,0.195-0.499,0.549c-0.356,0.369-0.857,0.889-1.503,1.56
					c-1.346,1.375-3.294,3.367-5.777,5.904c-5.028,5.097-12.215,12.383-20.926,21.214l-0.046,0.046l-0.065,0.013
					c-0.615,0.124-1.31,0.264-2.011,0.406l0.17-0.264c1.357,5.884,2.862,12.408,4.453,19.312l-0.167-0.18
					c0.979,0.341,1.963,0.648,2.865,1.358c0.109,0.102,0.215,0.219,0.303,0.374c0.055,0.14,0.112,0.289,0.142,0.413
					c0.077,0.261,0.133,0.517,0.196,0.776c0.109,0.516,0.219,1.035,0.33,1.557c0.417,2.087,0.798,4.218,1.173,6.38l-0.033-0.089
					c2.971,4.911,6.056,10.01,9.211,15.224c0.694,1.148,1.384,2.29,2.07,3.424l0.104,0.171l-0.139,0.144
					c-3.522,3.652-6.969,7.228-10.321,10.705l-0.14,0.145l-0.169-0.1c-4.6-2.724-8.741-5.83-12.479-9.087
					c-1.861-1.637-3.621-3.313-5.239-5.046c-1.589-1.776-2.973-3.65-4.152-5.566c-4.754-7.655-7.917-15.029-10.466-21.171
					c-2.506-6.169-4.191-11.234-5.171-14.764c-0.25-0.882-0.459-1.667-0.602-2.356c-0.147-0.688-0.307-1.26-0.361-1.739
					c-0.067-0.457-0.119-0.814-0.157-1.078c-0.033-0.242-0.046-0.367-0.038-0.367s0.036,0.121,0.084,0.361
					c0.049,0.261,0.116,0.614,0.202,1.067c0.068,0.473,0.243,1.042,0.403,1.724c0.156,0.684,0.379,1.463,0.641,2.339
					c1.032,3.507,2.762,8.546,5.305,14.688c2.585,6.112,5.784,13.465,10.535,21.057c1.179,1.902,2.552,3.745,4.117,5.487
					c1.612,1.717,3.365,3.378,5.218,5.001c3.718,3.226,7.86,6.319,12.41,9.007l-0.309,0.045c3.35-3.479,6.795-7.057,10.314-10.712
					l-0.035,0.315c-0.686-1.134-1.376-2.276-2.07-3.424c-3.152-5.217-6.234-10.317-9.203-15.229l-0.025-0.041l-0.008-0.048
					c-0.372-2.157-0.751-4.289-1.163-6.367c-0.109-0.517-0.217-1.032-0.325-1.544c-0.061-0.252-0.117-0.508-0.188-0.748
					c-0.031-0.13-0.072-0.225-0.108-0.328c-0.044-0.073-0.109-0.15-0.19-0.227c-0.736-0.589-1.753-0.943-2.677-1.258l-0.137-0.047
					l-0.03-0.133c-1.573-6.908-3.06-13.436-4.4-19.324l-0.05-0.22l0.221-0.044c0.702-0.139,1.398-0.277,2.013-0.399l-0.11,0.059
					c8.765-8.777,15.997-16.019,21.056-21.085c2.518-2.502,4.495-4.465,5.86-5.821c0.666-0.652,1.182-1.157,1.548-1.515
					C156.779,184.836,156.972,184.673,156.972,184.673z"/>
			</g>
			<g>
				<path style="fill:#263238;" d="M168.349,166.315c-0.1-0.003,0.053-1.373-0.319-3.519c-0.355-2.128-1.38-5.057-3.539-7.573
					c-2.163-2.514-4.904-3.968-6.954-4.64c-2.066-0.691-3.443-0.747-3.431-0.845c0.002-0.031,0.345-0.047,0.963,0.001
					c0.618,0.046,1.509,0.186,2.579,0.493c2.126,0.596,4.996,2.044,7.239,4.652c2.239,2.609,3.238,5.664,3.507,7.856
					c0.143,1.104,0.146,2.006,0.099,2.624C168.448,165.981,168.38,166.318,168.349,166.315z"/>
			</g>
		</g>
	</g>
</g>
</svg>
